<ttFont>
    <TTGlyph name=".notdef" xMin="93" yMin="0" xMax="652" yMax="531">
      <contour>
        <pt x="637" y="506" on="1"/>
        <pt x="385" y="266" on="1"/>
        <pt x="637" y="25" on="1"/>
      </contour>
      <contour>
        <pt x="120" y="13" on="1"/>
        <pt x="627" y="13" on="1"/>
        <pt x="374" y="256" on="1"/>
      </contour>
      <contour>
        <pt x="107" y="22" on="1"/>
        <pt x="363" y="266" on="1"/>
        <pt x="107" y="507" on="1"/>
      </contour>
      <contour>
        <pt x="628" y="518" on="1"/>
        <pt x="117" y="518" on="1"/>
        <pt x="374" y="276" on="1"/>
      </contour>
      <contour>
        <pt x="93" y="0" on="1"/>
        <pt x="93" y="531" on="1"/>
        <pt x="651" y="531" on="1"/>
        <pt x="651" y="0" on="1"/>
      </contour>
    </TTGlyph>
    <TTGlyph name="A" xMin="42" yMin="0" xMax="655" yMax="732">
      <contour>
        <pt x="42" y="0" on="1"/>
        <pt x="305" y="732" on="1"/>
        <pt x="402" y="732" on="1"/>
        <pt x="654" y="0" on="1"/>
        <pt x="549" y="0" on="1"/>
        <pt x="489" y="193" on="1"/>
        <pt x="212" y="193" on="1"/>
        <pt x="149" y="0" on="1"/>
      </contour>
      <contour>
        <pt x="241" y="280" on="1"/>
        <pt x="461" y="280" on="1"/>
        <pt x="353" y="600" on="1"/>
      </contour>
    </TTGlyph>
    <TTGlyph name="AE" xMin="28" yMin="-6" xMax="888" yMax="733">
      <contour>
        <pt x="509" y="733" on="1"/>
        <pt x="549" y="732" on="1"/>
        <pt x="559" y="732" on="0"/>
        <pt x="870" y="718" on="0"/>
        <pt x="888" y="716" on="1"/>
        <pt x="888" y="641" on="1"/>
        <pt x="579" y="641" on="1"/>
        <pt x="544" y="641" on="0"/>
        <pt x="536" y="624" on="1"/>
        <pt x="530" y="611" on="0"/>
        <pt x="529" y="588" on="1"/>
        <pt x="529" y="405" on="1"/>
        <pt x="846" y="395" on="1"/>
        <pt x="846" y="321" on="1"/>
        <pt x="529" y="311" on="1"/>
        <pt x="529" y="137" on="1"/>
        <pt x="529" y="118" on="0"/>
        <pt x="536" y="105" on="0"/>
        <pt x="540" y="97" on="0"/>
        <pt x="550" y="93" on="0"/>
        <pt x="555" y="90" on="0"/>
        <pt x="569" y="89" on="0"/>
        <pt x="573" y="89" on="0"/>
        <pt x="589" y="89" on="0"/>
        <pt x="591" y="89" on="1"/>
        <pt x="887" y="88" on="1"/>
        <pt x="887" y="12" on="1"/>
        <pt x="582" y="-5" on="1"/>
        <pt x="573" y="-5" on="0"/>
        <pt x="565" y="-5" on="1"/>
        <pt x="437" y="-5" on="0"/>
        <pt x="437" y="121" on="1"/>
        <pt x="437" y="218" on="1"/>
        <pt x="236" y="218" on="1"/>
        <pt x="129" y="0" on="1"/>
        <pt x="28" y="0" on="1"/>
        <pt x="322" y="596" on="1"/>
        <pt x="364" y="680" on="0"/>
        <pt x="415" y="708" on="1"/>
        <pt x="460" y="733" on="0"/>
      </contour>
      <contour>
        <pt x="437" y="305" on="1"/>
        <pt x="437" y="626" on="1"/>
        <pt x="279" y="305" on="1"/>
      </contour>
    </TTGlyph>
    <TTGlyph name="Aacute" xMin="42" yMin="0" xMax="654" yMax="932">
      <contour>
        <pt x="316" y="797" on="1"/>
        <pt x="419" y="932" on="1"/>
        <pt x="521" y="932" on="1"/>
        <pt x="391" y="797" on="1"/>
      </contour>
      <contour>
        <pt x="42" y="0" on="1"/>
        <pt x="305" y="732" on="1"/>
        <pt x="402" y="732" on="1"/>
        <pt x="654" y="0" on="1"/>
        <pt x="549" y="0" on="1"/>
        <pt x="489" y="193" on="1"/>
        <pt x="212" y="193" on="1"/>
        <pt x="149" y="0" on="1"/>
      </contour>
      <contour>
        <pt x="241" y="280" on="1"/>
        <pt x="461" y="280" on="1"/>
        <pt x="353" y="600" on="1"/>
      </contour>
    </TTGlyph>
    <TTGlyph name="Abreve" xMin="42" yMin="0" xMax="654" yMax="911">
      <contour>
        <pt x="239" y="911" on="1"/>
        <pt x="289" y="911" on="1"/>
        <pt x="289" y="884" on="0"/>
        <pt x="327" y="847" on="0"/>
        <pt x="382" y="847" on="0"/>
        <pt x="419" y="882" on="0"/>
        <pt x="419" y="911" on="1"/>
        <pt x="469" y="911" on="1"/>
        <pt x="469" y="858" on="0"/>
        <pt x="399" y="797" on="0"/>
        <pt x="307" y="797" on="0"/>
        <pt x="239" y="860" on="0"/>
      </contour>
      <contour>
        <pt x="42" y="0" on="1"/>
        <pt x="305" y="732" on="1"/>
        <pt x="402" y="732" on="1"/>
        <pt x="654" y="0" on="1"/>
        <pt x="549" y="0" on="1"/>
        <pt x="489" y="193" on="1"/>
        <pt x="212" y="193" on="1"/>
        <pt x="149" y="0" on="1"/>
      </contour>
      <contour>
        <pt x="241" y="280" on="1"/>
        <pt x="461" y="280" on="1"/>
        <pt x="353" y="600" on="1"/>
      </contour>
    </TTGlyph>
    <TTGlyph name="Acircumflex" xMin="42" yMin="0" xMax="654" yMax="929">
      <contour>
        <pt x="205" y="797" on="1"/>
        <pt x="320" y="928" on="1"/>
        <pt x="400" y="928" on="1"/>
        <pt x="502" y="797" on="1"/>
        <pt x="425" y="797" on="1"/>
        <pt x="357" y="865" on="1"/>
        <pt x="283" y="797" on="1"/>
      </contour>
      <contour>
        <pt x="42" y="0" on="1"/>
        <pt x="305" y="732" on="1"/>
        <pt x="402" y="732" on="1"/>
        <pt x="654" y="0" on="1"/>
        <pt x="549" y="0" on="1"/>
        <pt x="489" y="193" on="1"/>
        <pt x="212" y="193" on="1"/>
        <pt x="149" y="0" on="1"/>
      </contour>
      <contour>
        <pt x="241" y="280" on="1"/>
        <pt x="461" y="280" on="1"/>
        <pt x="353" y="600" on="1"/>
      </contour>
    </TTGlyph>
    <TTGlyph name="Adieresis" xMin="42" yMin="0" xMax="654" yMax="903">
      <contour>
        <pt x="173" y="828" on="0"/>
        <pt x="173" y="872" on="0"/>
        <pt x="205" y="902" on="0"/>
        <pt x="249" y="902" on="0"/>
        <pt x="279" y="872" on="0"/>
        <pt x="279" y="828" on="0"/>
        <pt x="248" y="797" on="0"/>
        <pt x="205" y="797" on="0"/>
      </contour>
      <contour>
        <pt x="428" y="828" on="0"/>
        <pt x="428" y="872" on="0"/>
        <pt x="460" y="902" on="0"/>
        <pt x="504" y="902" on="0"/>
        <pt x="534" y="872" on="0"/>
        <pt x="534" y="828" on="0"/>
        <pt x="503" y="797" on="0"/>
        <pt x="460" y="797" on="0"/>
      </contour>
      <contour>
        <pt x="42" y="0" on="1"/>
        <pt x="305" y="732" on="1"/>
        <pt x="402" y="732" on="1"/>
        <pt x="654" y="0" on="1"/>
        <pt x="549" y="0" on="1"/>
        <pt x="489" y="193" on="1"/>
        <pt x="212" y="193" on="1"/>
        <pt x="149" y="0" on="1"/>
      </contour>
      <contour>
        <pt x="241" y="280" on="1"/>
        <pt x="461" y="280" on="1"/>
        <pt x="353" y="600" on="1"/>
      </contour>
    </TTGlyph>
    <TTGlyph name="Agrave" xMin="42" yMin="0" xMax="654" yMax="932">
      <contour>
        <pt x="186" y="932" on="1"/>
        <pt x="289" y="932" on="1"/>
        <pt x="391" y="797" on="1"/>
        <pt x="316" y="797" on="1"/>
      </contour>
      <contour>
        <pt x="42" y="0" on="1"/>
        <pt x="305" y="732" on="1"/>
        <pt x="402" y="732" on="1"/>
        <pt x="654" y="0" on="1"/>
        <pt x="549" y="0" on="1"/>
        <pt x="489" y="193" on="1"/>
        <pt x="212" y="193" on="1"/>
        <pt x="149" y="0" on="1"/>
      </contour>
      <contour>
        <pt x="241" y="280" on="1"/>
        <pt x="461" y="280" on="1"/>
        <pt x="353" y="600" on="1"/>
      </contour>
    </TTGlyph>
    <TTGlyph name="Amacron" xMin="42" yMin="0" xMax="654" yMax="865">
      <contour>
        <pt x="208" y="797" on="1"/>
        <pt x="208" y="864" on="1"/>
        <pt x="500" y="864" on="1"/>
        <pt x="500" y="797" on="1"/>
      </contour>
      <contour>
        <pt x="42" y="0" on="1"/>
        <pt x="305" y="732" on="1"/>
        <pt x="402" y="732" on="1"/>
        <pt x="654" y="0" on="1"/>
        <pt x="549" y="0" on="1"/>
        <pt x="489" y="193" on="1"/>
        <pt x="212" y="193" on="1"/>
        <pt x="149" y="0" on="1"/>
      </contour>
      <contour>
        <pt x="241" y="280" on="1"/>
        <pt x="461" y="280" on="1"/>
        <pt x="353" y="600" on="1"/>
      </contour>
    </TTGlyph>
    <TTGlyph name="Aogonek" xMin="42" yMin="-185" xMax="654" yMax="732">
      <contour>
        <pt x="570" y="-79" on="1"/>
        <pt x="570" y="-117" on="0"/>
        <pt x="631" y="-118" on="1"/>
        <pt x="631" y="-182" on="1"/>
        <pt x="620" y="-184" on="0"/>
        <pt x="588" y="-184" on="0"/>
        <pt x="539" y="-166" on="0"/>
        <pt x="523" y="-145" on="1"/>
        <pt x="503" y="-118" on="0"/>
        <pt x="503" y="-69" on="0"/>
        <pt x="541" y="-19" on="0"/>
        <pt x="583" y="0" on="1"/>
        <pt x="626" y="0" on="1"/>
        <pt x="570" y="-46" on="0"/>
      </contour>
      <contour>
        <pt x="42" y="0" on="1"/>
        <pt x="305" y="732" on="1"/>
        <pt x="402" y="732" on="1"/>
        <pt x="654" y="0" on="1"/>
        <pt x="549" y="0" on="1"/>
        <pt x="489" y="193" on="1"/>
        <pt x="212" y="193" on="1"/>
        <pt x="149" y="0" on="1"/>
      </contour>
      <contour>
        <pt x="241" y="280" on="1"/>
        <pt x="461" y="280" on="1"/>
        <pt x="353" y="600" on="1"/>
      </contour>
    </TTGlyph>
    <TTGlyph name="Aring" xMin="42" yMin="0" xMax="654" yMax="936">
      <contour>
        <pt x="252" y="804" on="0"/>
        <pt x="280" y="757" on="0"/>
        <pt x="327" y="730" on="0"/>
        <pt x="382" y="730" on="0"/>
        <pt x="428" y="757" on="0"/>
        <pt x="455" y="804" on="0"/>
        <pt x="455" y="875" on="0"/>
        <pt x="396" y="935" on="0"/>
        <pt x="312" y="935" on="0"/>
        <pt x="252" y="875" on="0"/>
      </contour>
      <contour>
        <pt x="302" y="811" on="0"/>
        <pt x="302" y="853" on="0"/>
        <pt x="333" y="884" on="0"/>
        <pt x="384" y="884" on="0"/>
        <pt x="398" y="858" on="1"/>
        <pt x="405" y="846" on="0"/>
        <pt x="405" y="811" on="0"/>
        <pt x="375" y="781" on="0"/>
        <pt x="333" y="781" on="0"/>
      </contour>
      <contour>
        <pt x="42" y="0" on="1"/>
        <pt x="305" y="732" on="1"/>
        <pt x="402" y="732" on="1"/>
        <pt x="654" y="0" on="1"/>
        <pt x="549" y="0" on="1"/>
        <pt x="489" y="193" on="1"/>
        <pt x="212" y="193" on="1"/>
        <pt x="149" y="0" on="1"/>
      </contour>
      <contour>
        <pt x="241" y="280" on="1"/>
        <pt x="461" y="280" on="1"/>
        <pt x="353" y="600" on="1"/>
      </contour>
    </TTGlyph>
    <TTGlyph name="Atilde" xMin="42" yMin="0" xMax="654" yMax="909">
      <contour>
        <pt x="411" y="872" on="1"/>
        <pt x="438" y="872" on="0"/>
        <pt x="501" y="909" on="1"/>
        <pt x="523" y="862" on="1"/>
        <pt x="521" y="860" on="0"/>
        <pt x="494" y="837" on="0"/>
        <pt x="484" y="829" on="0"/>
        <pt x="459" y="811" on="0"/>
        <pt x="450" y="808" on="1"/>
        <pt x="404" y="787" on="0"/>
        <pt x="349" y="816" on="1"/>
        <pt x="318" y="832" on="0"/>
        <pt x="301" y="832" on="1"/>
        <pt x="270" y="832" on="0"/>
        <pt x="217" y="802" on="0"/>
        <pt x="206" y="797" on="1"/>
        <pt x="184" y="842" on="1"/>
        <pt x="241" y="892" on="0"/>
        <pt x="272" y="902" on="1"/>
        <pt x="311" y="915" on="0"/>
        <pt x="397" y="873" on="0"/>
        <pt x="410" y="872" on="0"/>
      </contour>
      <contour>
        <pt x="42" y="0" on="1"/>
        <pt x="305" y="732" on="1"/>
        <pt x="402" y="732" on="1"/>
        <pt x="654" y="0" on="1"/>
        <pt x="549" y="0" on="1"/>
        <pt x="489" y="193" on="1"/>
        <pt x="212" y="193" on="1"/>
        <pt x="149" y="0" on="1"/>
      </contour>
      <contour>
        <pt x="241" y="280" on="1"/>
        <pt x="461" y="280" on="1"/>
        <pt x="353" y="600" on="1"/>
      </contour>
    </TTGlyph>
    <TTGlyph name="B" xMin="74" yMin="0" xMax="563" yMax="732">
      <contour>
        <pt x="362" y="732" on="1"/>
        <pt x="415" y="732" on="0"/>
        <pt x="494" y="698" on="0"/>
        <pt x="515" y="669" on="1"/>
        <pt x="557" y="613" on="0"/>
        <pt x="557" y="540" on="1"/>
        <pt x="557" y="406" on="0"/>
        <pt x="462" y="380" on="1"/>
        <pt x="503" y="371" on="0"/>
        <pt x="563" y="282" on="0"/>
        <pt x="563" y="207" on="1"/>
        <pt x="563" y="118" on="0"/>
        <pt x="521" y="62" on="1"/>
        <pt x="475" y="0" on="0"/>
        <pt x="363" y="0" on="1"/>
        <pt x="75" y="0" on="1"/>
        <pt x="75" y="732" on="1"/>
      </contour>
      <contour>
        <pt x="168" y="88" on="1"/>
        <pt x="361" y="88" on="1"/>
        <pt x="471" y="88" on="0"/>
        <pt x="471" y="210" on="1"/>
        <pt x="471" y="266" on="0"/>
        <pt x="416" y="340" on="0"/>
        <pt x="361" y="340" on="1"/>
        <pt x="168" y="340" on="1"/>
      </contour>
      <contour>
        <pt x="168" y="426" on="1"/>
        <pt x="360" y="426" on="1"/>
        <pt x="411" y="426" on="0"/>
        <pt x="465" y="482" on="0"/>
        <pt x="465" y="537" on="1"/>
        <pt x="465" y="622" on="0"/>
        <pt x="397" y="640" on="1"/>
        <pt x="380" y="644" on="0"/>
        <pt x="360" y="644" on="1"/>
        <pt x="168" y="644" on="1"/>
      </contour>
    </TTGlyph>
    <TTGlyph name="C" xMin="51" yMin="-7" xMax="544" yMax="740">
      <contour>
        <pt x="51" y="362" on="1"/>
        <pt x="51" y="442" on="0"/>
        <pt x="64" y="552" on="0"/>
        <pt x="97" y="647" on="0"/>
        <pt x="124" y="677" on="1"/>
        <pt x="183" y="740" on="0"/>
        <pt x="297" y="740" on="1"/>
        <pt x="347" y="740" on="0"/>
        <pt x="490" y="724" on="0"/>
        <pt x="544" y="713" on="1"/>
        <pt x="544" y="640" on="1"/>
        <pt x="544" y="640" on="0"/>
        <pt x="533" y="641" on="0"/>
        <pt x="515" y="642" on="0"/>
        <pt x="490" y="644" on="0"/>
        <pt x="460" y="645" on="0"/>
        <pt x="427" y="647" on="0"/>
        <pt x="391" y="649" on="0"/>
        <pt x="373" y="650" on="1"/>
        <pt x="336" y="651" on="0"/>
        <pt x="259" y="651" on="0"/>
        <pt x="201" y="629" on="0"/>
        <pt x="160" y="566" on="0"/>
        <pt x="143" y="455" on="0"/>
        <pt x="143" y="330" on="0"/>
        <pt x="148" y="268" on="0"/>
        <pt x="159" y="209" on="0"/>
        <pt x="175" y="162" on="0"/>
        <pt x="201" y="123" on="0"/>
        <pt x="218" y="110" on="1"/>
        <pt x="253" y="83" on="0"/>
        <pt x="303" y="83" on="1"/>
        <pt x="399" y="83" on="0"/>
        <pt x="508" y="88" on="1"/>
        <pt x="544" y="90" on="1"/>
        <pt x="544" y="17" on="1"/>
        <pt x="494" y="7" on="0"/>
        <pt x="353" y="-6" on="0"/>
        <pt x="299" y="-6" on="0"/>
        <pt x="297" y="-6" on="1"/>
        <pt x="161" y="-6" on="0"/>
        <pt x="104" y="99" on="1"/>
        <pt x="51" y="197" on="0"/>
      </contour>
    </TTGlyph>
    <TTGlyph name="Cacute" xMin="51" yMin="-7" xMax="544" yMax="935">
      <contour>
        <pt x="292" y="800" on="1"/>
        <pt x="395" y="934" on="1"/>
        <pt x="497" y="934" on="1"/>
        <pt x="367" y="800" on="1"/>
      </contour>
      <contour>
        <pt x="51" y="362" on="1"/>
        <pt x="51" y="442" on="0"/>
        <pt x="64" y="552" on="0"/>
        <pt x="97" y="647" on="0"/>
        <pt x="124" y="677" on="1"/>
        <pt x="183" y="740" on="0"/>
        <pt x="297" y="740" on="1"/>
        <pt x="419" y="740" on="0"/>
        <pt x="544" y="713" on="1"/>
        <pt x="544" y="640" on="1"/>
        <pt x="544" y="640" on="0"/>
        <pt x="533" y="641" on="0"/>
        <pt x="515" y="642" on="0"/>
        <pt x="490" y="644" on="0"/>
        <pt x="460" y="645" on="0"/>
        <pt x="427" y="647" on="0"/>
        <pt x="391" y="649" on="0"/>
        <pt x="373" y="650" on="1"/>
        <pt x="336" y="651" on="0"/>
        <pt x="259" y="651" on="0"/>
        <pt x="201" y="629" on="0"/>
        <pt x="160" y="566" on="0"/>
        <pt x="143" y="455" on="0"/>
        <pt x="143" y="330" on="0"/>
        <pt x="148" y="268" on="0"/>
        <pt x="159" y="209" on="0"/>
        <pt x="175" y="162" on="0"/>
        <pt x="201" y="123" on="0"/>
        <pt x="218" y="110" on="1"/>
        <pt x="253" y="83" on="0"/>
        <pt x="303" y="83" on="1"/>
        <pt x="399" y="83" on="0"/>
        <pt x="508" y="88" on="1"/>
        <pt x="544" y="90" on="1"/>
        <pt x="544" y="18" on="1"/>
        <pt x="494" y="7" on="0"/>
        <pt x="353" y="-6" on="0"/>
        <pt x="299" y="-6" on="0"/>
        <pt x="297" y="-6" on="1"/>
        <pt x="161" y="-6" on="0"/>
        <pt x="104" y="99" on="1"/>
        <pt x="51" y="197" on="0"/>
      </contour>
    </TTGlyph>
    <TTGlyph name="Ccaron" xMin="51" yMin="-7" xMax="544" yMax="932">
      <contour>
        <pt x="187" y="932" on="1"/>
        <pt x="265" y="932" on="1"/>
        <pt x="340" y="864" on="1"/>
        <pt x="406" y="932" on="1"/>
        <pt x="483" y="932" on="1"/>
        <pt x="380" y="800" on="1"/>
        <pt x="300" y="800" on="1"/>
      </contour>
      <contour>
        <pt x="51" y="362" on="1"/>
        <pt x="51" y="442" on="0"/>
        <pt x="64" y="552" on="0"/>
        <pt x="97" y="647" on="0"/>
        <pt x="124" y="677" on="1"/>
        <pt x="183" y="740" on="0"/>
        <pt x="297" y="740" on="1"/>
        <pt x="419" y="740" on="0"/>
        <pt x="544" y="713" on="1"/>
        <pt x="544" y="640" on="1"/>
        <pt x="544" y="640" on="0"/>
        <pt x="533" y="641" on="0"/>
        <pt x="515" y="642" on="0"/>
        <pt x="490" y="644" on="0"/>
        <pt x="460" y="645" on="0"/>
        <pt x="427" y="647" on="0"/>
        <pt x="391" y="649" on="0"/>
        <pt x="373" y="650" on="1"/>
        <pt x="336" y="651" on="0"/>
        <pt x="259" y="651" on="0"/>
        <pt x="201" y="629" on="0"/>
        <pt x="160" y="566" on="0"/>
        <pt x="143" y="455" on="0"/>
        <pt x="143" y="330" on="0"/>
        <pt x="148" y="268" on="0"/>
        <pt x="159" y="209" on="0"/>
        <pt x="175" y="162" on="0"/>
        <pt x="201" y="123" on="0"/>
        <pt x="218" y="110" on="1"/>
        <pt x="253" y="83" on="0"/>
        <pt x="303" y="83" on="1"/>
        <pt x="399" y="83" on="0"/>
        <pt x="508" y="88" on="1"/>
        <pt x="544" y="90" on="1"/>
        <pt x="544" y="18" on="1"/>
        <pt x="494" y="7" on="0"/>
        <pt x="353" y="-6" on="0"/>
        <pt x="299" y="-6" on="0"/>
        <pt x="297" y="-6" on="1"/>
        <pt x="161" y="-6" on="0"/>
        <pt x="104" y="99" on="1"/>
        <pt x="51" y="197" on="0"/>
      </contour>
    </TTGlyph>
    <TTGlyph name="Ccedilla" xMin="51" yMin="-174" xMax="544" yMax="740">
      <contour>
        <pt x="272" y="-36" on="1"/>
        <pt x="346" y="-36" on="1"/>
        <pt x="346" y="-114" on="0"/>
        <pt x="302" y="-174" on="0"/>
        <pt x="242" y="-174" on="1"/>
        <pt x="190" y="-174" on="1"/>
        <pt x="190" y="-130" on="1"/>
        <pt x="240" y="-115" on="1"/>
        <pt x="259" y="-107" on="0"/>
        <pt x="272" y="-69" on="0"/>
      </contour>
      <contour>
        <pt x="51" y="362" on="1"/>
        <pt x="51" y="442" on="0"/>
        <pt x="64" y="552" on="0"/>
        <pt x="97" y="647" on="0"/>
        <pt x="124" y="677" on="1"/>
        <pt x="183" y="740" on="0"/>
        <pt x="297" y="740" on="1"/>
        <pt x="419" y="740" on="0"/>
        <pt x="544" y="713" on="1"/>
        <pt x="544" y="640" on="1"/>
        <pt x="544" y="640" on="0"/>
        <pt x="533" y="641" on="0"/>
        <pt x="515" y="642" on="0"/>
        <pt x="490" y="644" on="0"/>
        <pt x="460" y="645" on="0"/>
        <pt x="427" y="647" on="0"/>
        <pt x="391" y="649" on="0"/>
        <pt x="373" y="650" on="1"/>
        <pt x="336" y="651" on="0"/>
        <pt x="259" y="651" on="0"/>
        <pt x="201" y="629" on="0"/>
        <pt x="160" y="566" on="0"/>
        <pt x="143" y="455" on="0"/>
        <pt x="143" y="330" on="0"/>
        <pt x="148" y="268" on="0"/>
        <pt x="159" y="209" on="0"/>
        <pt x="175" y="162" on="0"/>
        <pt x="201" y="123" on="0"/>
        <pt x="218" y="110" on="1"/>
        <pt x="253" y="83" on="0"/>
        <pt x="303" y="83" on="1"/>
        <pt x="399" y="83" on="0"/>
        <pt x="508" y="88" on="1"/>
        <pt x="544" y="90" on="1"/>
        <pt x="544" y="18" on="1"/>
        <pt x="494" y="7" on="0"/>
        <pt x="353" y="-6" on="0"/>
        <pt x="299" y="-6" on="0"/>
        <pt x="297" y="-6" on="1"/>
        <pt x="161" y="-6" on="0"/>
        <pt x="104" y="99" on="1"/>
        <pt x="51" y="197" on="0"/>
      </contour>
    </TTGlyph>
    <TTGlyph name="Ccircumflex" xMin="51" yMin="-7" xMax="544" yMax="932">
      <contour>
        <pt x="181" y="800" on="1"/>
        <pt x="296" y="932" on="1"/>
        <pt x="376" y="932" on="1"/>
        <pt x="478" y="800" on="1"/>
        <pt x="401" y="800" on="1"/>
        <pt x="333" y="868" on="1"/>
        <pt x="259" y="800" on="1"/>
      </contour>
      <contour>
        <pt x="51" y="362" on="1"/>
        <pt x="51" y="442" on="0"/>
        <pt x="64" y="552" on="0"/>
        <pt x="97" y="647" on="0"/>
        <pt x="124" y="677" on="1"/>
        <pt x="183" y="740" on="0"/>
        <pt x="297" y="740" on="1"/>
        <pt x="419" y="740" on="0"/>
        <pt x="544" y="713" on="1"/>
        <pt x="544" y="640" on="1"/>
        <pt x="544" y="640" on="0"/>
        <pt x="533" y="641" on="0"/>
        <pt x="515" y="642" on="0"/>
        <pt x="490" y="644" on="0"/>
        <pt x="460" y="645" on="0"/>
        <pt x="427" y="647" on="0"/>
        <pt x="391" y="649" on="0"/>
        <pt x="373" y="650" on="1"/>
        <pt x="336" y="651" on="0"/>
        <pt x="259" y="651" on="0"/>
        <pt x="201" y="629" on="0"/>
        <pt x="160" y="566" on="0"/>
        <pt x="143" y="455" on="0"/>
        <pt x="143" y="330" on="0"/>
        <pt x="148" y="268" on="0"/>
        <pt x="159" y="209" on="0"/>
        <pt x="175" y="162" on="0"/>
        <pt x="201" y="123" on="0"/>
        <pt x="218" y="110" on="1"/>
        <pt x="253" y="83" on="0"/>
        <pt x="303" y="83" on="1"/>
        <pt x="399" y="83" on="0"/>
        <pt x="508" y="88" on="1"/>
        <pt x="544" y="90" on="1"/>
        <pt x="544" y="18" on="1"/>
        <pt x="494" y="7" on="0"/>
        <pt x="353" y="-6" on="0"/>
        <pt x="299" y="-6" on="0"/>
        <pt x="297" y="-6" on="1"/>
        <pt x="161" y="-6" on="0"/>
        <pt x="104" y="99" on="1"/>
        <pt x="51" y="197" on="0"/>
      </contour>
    </TTGlyph>
    <TTGlyph name="Cdotaccent" xMin="51" yMin="-7" xMax="544" yMax="910">
      <contour>
        <pt x="285" y="825" on="1"/>
        <pt x="285" y="885" on="1"/>
        <pt x="285" y="910" on="0"/>
        <pt x="309" y="910" on="1"/>
        <pt x="365" y="910" on="1"/>
        <pt x="376" y="910" on="0"/>
        <pt x="388" y="896" on="0"/>
        <pt x="388" y="885" on="1"/>
        <pt x="388" y="825" on="1"/>
        <pt x="388" y="802" on="0"/>
        <pt x="365" y="802" on="1"/>
        <pt x="309" y="802" on="1"/>
        <pt x="298" y="802" on="0"/>
        <pt x="285" y="814" on="0"/>
      </contour>
      <contour>
        <pt x="51" y="362" on="1"/>
        <pt x="51" y="442" on="0"/>
        <pt x="64" y="552" on="0"/>
        <pt x="97" y="647" on="0"/>
        <pt x="124" y="677" on="1"/>
        <pt x="183" y="740" on="0"/>
        <pt x="297" y="740" on="1"/>
        <pt x="419" y="740" on="0"/>
        <pt x="544" y="713" on="1"/>
        <pt x="544" y="640" on="1"/>
        <pt x="544" y="640" on="0"/>
        <pt x="533" y="641" on="0"/>
        <pt x="515" y="642" on="0"/>
        <pt x="490" y="644" on="0"/>
        <pt x="460" y="645" on="0"/>
        <pt x="427" y="647" on="0"/>
        <pt x="391" y="649" on="0"/>
        <pt x="373" y="650" on="1"/>
        <pt x="336" y="651" on="0"/>
        <pt x="259" y="651" on="0"/>
        <pt x="201" y="629" on="0"/>
        <pt x="160" y="566" on="0"/>
        <pt x="143" y="455" on="0"/>
        <pt x="143" y="330" on="0"/>
        <pt x="148" y="268" on="0"/>
        <pt x="159" y="209" on="0"/>
        <pt x="175" y="162" on="0"/>
        <pt x="201" y="123" on="0"/>
        <pt x="218" y="110" on="1"/>
        <pt x="253" y="83" on="0"/>
        <pt x="303" y="83" on="1"/>
        <pt x="399" y="83" on="0"/>
        <pt x="508" y="88" on="1"/>
        <pt x="544" y="90" on="1"/>
        <pt x="544" y="18" on="1"/>
        <pt x="494" y="7" on="0"/>
        <pt x="353" y="-6" on="0"/>
        <pt x="299" y="-6" on="0"/>
        <pt x="297" y="-6" on="1"/>
        <pt x="161" y="-6" on="0"/>
        <pt x="104" y="99" on="1"/>
        <pt x="51" y="197" on="0"/>
      </contour>
    </TTGlyph>
    <TTGlyph name="D" xMin="74" yMin="0" xMax="616" yMax="732">
      <contour>
        <pt x="75" y="0" on="1"/>
        <pt x="75" y="732" on="1"/>
        <pt x="357" y="732" on="1"/>
        <pt x="421" y="732" on="0"/>
        <pt x="517" y="684" on="0"/>
        <pt x="571" y="612" on="0"/>
        <pt x="588" y="561" on="1"/>
        <pt x="616" y="476" on="0"/>
        <pt x="616" y="363" on="1"/>
        <pt x="616" y="177" on="0"/>
        <pt x="530" y="76" on="1"/>
        <pt x="501" y="41" on="0"/>
        <pt x="412" y="0" on="0"/>
        <pt x="357" y="0" on="1"/>
      </contour>
      <contour>
        <pt x="167" y="90" on="1"/>
        <pt x="354" y="90" on="1"/>
        <pt x="413" y="90" on="0"/>
        <pt x="452" y="128" on="1"/>
        <pt x="524" y="197" on="0"/>
        <pt x="524" y="515" on="0"/>
        <pt x="438" y="644" on="0"/>
        <pt x="354" y="644" on="1"/>
        <pt x="167" y="644" on="1"/>
      </contour>
    </TTGlyph>
    <TTGlyph name="Dcaron" xMin="74" yMin="0" xMax="616" yMax="925">
      <contour>
        <pt x="170" y="924" on="1"/>
        <pt x="248" y="924" on="1"/>
        <pt x="323" y="856" on="1"/>
        <pt x="389" y="924" on="1"/>
        <pt x="466" y="924" on="1"/>
        <pt x="363" y="793" on="1"/>
        <pt x="283" y="793" on="1"/>
      </contour>
      <contour>
        <pt x="75" y="0" on="1"/>
        <pt x="75" y="732" on="1"/>
        <pt x="357" y="732" on="1"/>
        <pt x="421" y="732" on="0"/>
        <pt x="517" y="684" on="0"/>
        <pt x="571" y="612" on="0"/>
        <pt x="588" y="561" on="1"/>
        <pt x="616" y="476" on="0"/>
        <pt x="616" y="363" on="1"/>
        <pt x="616" y="177" on="0"/>
        <pt x="530" y="76" on="1"/>
        <pt x="501" y="41" on="0"/>
        <pt x="412" y="0" on="0"/>
        <pt x="357" y="0" on="1"/>
      </contour>
      <contour>
        <pt x="167" y="90" on="1"/>
        <pt x="354" y="90" on="1"/>
        <pt x="413" y="90" on="0"/>
        <pt x="452" y="128" on="1"/>
        <pt x="524" y="197" on="0"/>
        <pt x="524" y="515" on="0"/>
        <pt x="438" y="644" on="0"/>
        <pt x="354" y="644" on="1"/>
        <pt x="167" y="644" on="1"/>
      </contour>
    </TTGlyph>
    <TTGlyph name="Dcroat" xMin="9" yMin="0" xMax="616" yMax="732">
      <contour>
        <pt x="10" y="344" on="1"/>
        <pt x="10" y="402" on="1"/>
        <pt x="75" y="402" on="1"/>
        <pt x="75" y="731" on="1"/>
        <pt x="75" y="732" on="0"/>
        <pt x="358" y="732" on="1"/>
        <pt x="488" y="732" on="0"/>
        <pt x="552" y="636" on="1"/>
        <pt x="616" y="542" on="0"/>
        <pt x="616" y="363" on="1"/>
        <pt x="616" y="177" on="0"/>
        <pt x="531" y="76" on="1"/>
        <pt x="502" y="41" on="0"/>
        <pt x="413" y="0" on="0"/>
        <pt x="358" y="0" on="1"/>
        <pt x="75" y="0" on="1"/>
        <pt x="75" y="344" on="1"/>
      </contour>
      <contour>
        <pt x="167" y="90" on="1"/>
        <pt x="355" y="90" on="1"/>
        <pt x="413" y="90" on="0"/>
        <pt x="451" y="128" on="1"/>
        <pt x="521" y="197" on="0"/>
        <pt x="521" y="364" on="1"/>
        <pt x="521" y="640" on="0"/>
        <pt x="355" y="640" on="1"/>
        <pt x="167" y="639" on="1"/>
        <pt x="167" y="402" on="1"/>
        <pt x="298" y="402" on="1"/>
        <pt x="298" y="344" on="1"/>
        <pt x="167" y="344" on="1"/>
      </contour>
    </TTGlyph>
    <TTGlyph name="E" xMin="74" yMin="-4" xMax="527" yMax="733">
      <contour>
        <pt x="202" y="732" on="1"/>
        <pt x="205" y="732" on="0"/>
        <pt x="509" y="718" on="0"/>
        <pt x="527" y="716" on="1"/>
        <pt x="527" y="642" on="1"/>
        <pt x="218" y="642" on="1"/>
        <pt x="181" y="642" on="0"/>
        <pt x="172" y="624" on="1"/>
        <pt x="166" y="610" on="0"/>
        <pt x="166" y="586" on="1"/>
        <pt x="166" y="410" on="1"/>
        <pt x="485" y="399" on="1"/>
        <pt x="485" y="325" on="1"/>
        <pt x="166" y="315" on="1"/>
        <pt x="166" y="139" on="1"/>
        <pt x="167" y="101" on="0"/>
        <pt x="187" y="93" on="1"/>
        <pt x="203" y="87" on="0"/>
        <pt x="228" y="87" on="1"/>
        <pt x="527" y="87" on="1"/>
        <pt x="527" y="14" on="1"/>
        <pt x="219" y="-3" on="1"/>
        <pt x="211" y="-3" on="0"/>
        <pt x="203" y="-3" on="1"/>
        <pt x="74" y="-3" on="0"/>
        <pt x="74" y="129" on="1"/>
        <pt x="74" y="596" on="1"/>
        <pt x="74" y="670" on="0"/>
        <pt x="149" y="732" on="0"/>
      </contour>
    </TTGlyph>
    <TTGlyph name="Eacute" xMin="74" yMin="-4" xMax="527" yMax="928">
      <contour>
        <pt x="284" y="793" on="1"/>
        <pt x="386" y="927" on="1"/>
        <pt x="489" y="927" on="1"/>
        <pt x="359" y="793" on="1"/>
      </contour>
      <contour>
        <pt x="74" y="129" on="1"/>
        <pt x="74" y="596" on="1"/>
        <pt x="74" y="670" on="0"/>
        <pt x="150" y="732" on="0"/>
        <pt x="202" y="732" on="1"/>
        <pt x="206" y="732" on="0"/>
        <pt x="509" y="718" on="0"/>
        <pt x="527" y="716" on="1"/>
        <pt x="527" y="642" on="1"/>
        <pt x="218" y="642" on="1"/>
        <pt x="181" y="642" on="0"/>
        <pt x="172" y="624" on="1"/>
        <pt x="166" y="610" on="0"/>
        <pt x="166" y="586" on="1"/>
        <pt x="166" y="410" on="1"/>
        <pt x="485" y="400" on="1"/>
        <pt x="485" y="325" on="1"/>
        <pt x="166" y="315" on="1"/>
        <pt x="166" y="139" on="1"/>
        <pt x="167" y="101" on="0"/>
        <pt x="187" y="93" on="1"/>
        <pt x="203" y="87" on="0"/>
        <pt x="228" y="87" on="1"/>
        <pt x="527" y="87" on="1"/>
        <pt x="527" y="14" on="1"/>
        <pt x="219" y="-3" on="1"/>
        <pt x="211" y="-3" on="0"/>
        <pt x="203" y="-3" on="1"/>
        <pt x="74" y="-3" on="0"/>
      </contour>
    </TTGlyph>
    <TTGlyph name="Ecaron" xMin="74" yMin="-4" xMax="527" yMax="925">
      <contour>
        <pt x="168" y="924" on="1"/>
        <pt x="246" y="924" on="1"/>
        <pt x="321" y="856" on="1"/>
        <pt x="387" y="924" on="1"/>
        <pt x="464" y="924" on="1"/>
        <pt x="361" y="793" on="1"/>
        <pt x="281" y="793" on="1"/>
      </contour>
      <contour>
        <pt x="74" y="129" on="1"/>
        <pt x="74" y="596" on="1"/>
        <pt x="74" y="670" on="0"/>
        <pt x="150" y="732" on="0"/>
        <pt x="202" y="732" on="1"/>
        <pt x="206" y="732" on="0"/>
        <pt x="509" y="718" on="0"/>
        <pt x="527" y="716" on="1"/>
        <pt x="527" y="642" on="1"/>
        <pt x="218" y="642" on="1"/>
        <pt x="181" y="642" on="0"/>
        <pt x="172" y="624" on="1"/>
        <pt x="166" y="610" on="0"/>
        <pt x="166" y="586" on="1"/>
        <pt x="166" y="410" on="1"/>
        <pt x="485" y="400" on="1"/>
        <pt x="485" y="325" on="1"/>
        <pt x="166" y="315" on="1"/>
        <pt x="166" y="139" on="1"/>
        <pt x="167" y="101" on="0"/>
        <pt x="187" y="93" on="1"/>
        <pt x="203" y="87" on="0"/>
        <pt x="228" y="87" on="1"/>
        <pt x="527" y="87" on="1"/>
        <pt x="527" y="14" on="1"/>
        <pt x="219" y="-3" on="1"/>
        <pt x="211" y="-3" on="0"/>
        <pt x="203" y="-3" on="1"/>
        <pt x="74" y="-3" on="0"/>
      </contour>
    </TTGlyph>
    <TTGlyph name="Ecircumflex" xMin="74" yMin="-4" xMax="527" yMax="929">
      <contour>
        <pt x="168" y="797" on="1"/>
        <pt x="283" y="928" on="1"/>
        <pt x="363" y="928" on="1"/>
        <pt x="465" y="797" on="1"/>
        <pt x="388" y="797" on="1"/>
        <pt x="320" y="865" on="1"/>
        <pt x="246" y="797" on="1"/>
      </contour>
      <contour>
        <pt x="74" y="129" on="1"/>
        <pt x="74" y="596" on="1"/>
        <pt x="74" y="670" on="0"/>
        <pt x="150" y="732" on="0"/>
        <pt x="202" y="732" on="1"/>
        <pt x="206" y="732" on="0"/>
        <pt x="509" y="718" on="0"/>
        <pt x="527" y="716" on="1"/>
        <pt x="527" y="642" on="1"/>
        <pt x="218" y="642" on="1"/>
        <pt x="181" y="642" on="0"/>
        <pt x="172" y="624" on="1"/>
        <pt x="166" y="610" on="0"/>
        <pt x="166" y="586" on="1"/>
        <pt x="166" y="410" on="1"/>
        <pt x="485" y="400" on="1"/>
        <pt x="485" y="325" on="1"/>
        <pt x="166" y="315" on="1"/>
        <pt x="166" y="139" on="1"/>
        <pt x="167" y="101" on="0"/>
        <pt x="187" y="93" on="1"/>
        <pt x="203" y="87" on="0"/>
        <pt x="228" y="87" on="1"/>
        <pt x="527" y="87" on="1"/>
        <pt x="527" y="14" on="1"/>
        <pt x="219" y="-3" on="1"/>
        <pt x="211" y="-3" on="0"/>
        <pt x="203" y="-3" on="1"/>
        <pt x="74" y="-3" on="0"/>
      </contour>
    </TTGlyph>
    <TTGlyph name="Edieresis" xMin="74" yMin="-4" xMax="527" yMax="899">
      <contour>
        <pt x="136" y="824" on="0"/>
        <pt x="136" y="868" on="0"/>
        <pt x="167" y="898" on="0"/>
        <pt x="211" y="898" on="0"/>
        <pt x="241" y="868" on="0"/>
        <pt x="241" y="824" on="0"/>
        <pt x="211" y="793" on="0"/>
        <pt x="167" y="793" on="0"/>
      </contour>
      <contour>
        <pt x="391" y="824" on="0"/>
        <pt x="391" y="868" on="0"/>
        <pt x="422" y="898" on="0"/>
        <pt x="466" y="898" on="0"/>
        <pt x="496" y="868" on="0"/>
        <pt x="496" y="824" on="0"/>
        <pt x="466" y="793" on="0"/>
        <pt x="422" y="793" on="0"/>
      </contour>
      <contour>
        <pt x="74" y="129" on="1"/>
        <pt x="74" y="596" on="1"/>
        <pt x="74" y="670" on="0"/>
        <pt x="150" y="732" on="0"/>
        <pt x="202" y="732" on="1"/>
        <pt x="206" y="732" on="0"/>
        <pt x="509" y="718" on="0"/>
        <pt x="527" y="716" on="1"/>
        <pt x="527" y="642" on="1"/>
        <pt x="218" y="642" on="1"/>
        <pt x="181" y="642" on="0"/>
        <pt x="172" y="624" on="1"/>
        <pt x="166" y="610" on="0"/>
        <pt x="166" y="586" on="1"/>
        <pt x="166" y="410" on="1"/>
        <pt x="485" y="400" on="1"/>
        <pt x="485" y="325" on="1"/>
        <pt x="166" y="315" on="1"/>
        <pt x="166" y="139" on="1"/>
        <pt x="167" y="101" on="0"/>
        <pt x="187" y="93" on="1"/>
        <pt x="203" y="87" on="0"/>
        <pt x="228" y="87" on="1"/>
        <pt x="527" y="87" on="1"/>
        <pt x="527" y="14" on="1"/>
        <pt x="219" y="-3" on="1"/>
        <pt x="211" y="-3" on="0"/>
        <pt x="203" y="-3" on="1"/>
        <pt x="74" y="-3" on="0"/>
      </contour>
    </TTGlyph>
    <TTGlyph name="Edotaccent" xMin="74" yMin="-4" xMax="527" yMax="903">
      <contour>
        <pt x="270" y="817" on="1"/>
        <pt x="270" y="877" on="1"/>
        <pt x="270" y="902" on="0"/>
        <pt x="294" y="902" on="1"/>
        <pt x="350" y="902" on="1"/>
        <pt x="361" y="902" on="0"/>
        <pt x="373" y="888" on="0"/>
        <pt x="373" y="877" on="1"/>
        <pt x="373" y="817" on="1"/>
        <pt x="373" y="794" on="0"/>
        <pt x="350" y="794" on="1"/>
        <pt x="294" y="794" on="1"/>
        <pt x="284" y="794" on="0"/>
        <pt x="270" y="807" on="0"/>
      </contour>
      <contour>
        <pt x="74" y="129" on="1"/>
        <pt x="74" y="596" on="1"/>
        <pt x="74" y="670" on="0"/>
        <pt x="150" y="732" on="0"/>
        <pt x="202" y="732" on="1"/>
        <pt x="206" y="732" on="0"/>
        <pt x="509" y="718" on="0"/>
        <pt x="527" y="716" on="1"/>
        <pt x="527" y="642" on="1"/>
        <pt x="218" y="642" on="1"/>
        <pt x="181" y="642" on="0"/>
        <pt x="172" y="624" on="1"/>
        <pt x="166" y="610" on="0"/>
        <pt x="166" y="586" on="1"/>
        <pt x="166" y="410" on="1"/>
        <pt x="485" y="400" on="1"/>
        <pt x="485" y="325" on="1"/>
        <pt x="166" y="315" on="1"/>
        <pt x="166" y="139" on="1"/>
        <pt x="167" y="101" on="0"/>
        <pt x="187" y="93" on="1"/>
        <pt x="203" y="87" on="0"/>
        <pt x="228" y="87" on="1"/>
        <pt x="527" y="87" on="1"/>
        <pt x="527" y="14" on="1"/>
        <pt x="219" y="-3" on="1"/>
        <pt x="211" y="-3" on="0"/>
        <pt x="203" y="-3" on="1"/>
        <pt x="74" y="-3" on="0"/>
      </contour>
    </TTGlyph>
    <TTGlyph name="Egrave" xMin="74" yMin="-4" xMax="527" yMax="928">
      <contour>
        <pt x="173" y="927" on="1"/>
        <pt x="275" y="927" on="1"/>
        <pt x="378" y="793" on="1"/>
        <pt x="303" y="793" on="1"/>
      </contour>
      <contour>
        <pt x="74" y="129" on="1"/>
        <pt x="74" y="596" on="1"/>
        <pt x="74" y="670" on="0"/>
        <pt x="150" y="732" on="0"/>
        <pt x="202" y="732" on="1"/>
        <pt x="206" y="732" on="0"/>
        <pt x="509" y="718" on="0"/>
        <pt x="527" y="716" on="1"/>
        <pt x="527" y="642" on="1"/>
        <pt x="218" y="642" on="1"/>
        <pt x="181" y="642" on="0"/>
        <pt x="172" y="624" on="1"/>
        <pt x="166" y="610" on="0"/>
        <pt x="166" y="586" on="1"/>
        <pt x="166" y="410" on="1"/>
        <pt x="485" y="400" on="1"/>
        <pt x="485" y="325" on="1"/>
        <pt x="166" y="315" on="1"/>
        <pt x="166" y="139" on="1"/>
        <pt x="167" y="101" on="0"/>
        <pt x="187" y="93" on="1"/>
        <pt x="203" y="87" on="0"/>
        <pt x="228" y="87" on="1"/>
        <pt x="527" y="87" on="1"/>
        <pt x="527" y="14" on="1"/>
        <pt x="219" y="-3" on="1"/>
        <pt x="211" y="-3" on="0"/>
        <pt x="203" y="-3" on="1"/>
        <pt x="74" y="-3" on="0"/>
      </contour>
    </TTGlyph>
    <TTGlyph name="Emacron" xMin="74" yMin="-4" xMax="527" yMax="863">
      <contour>
        <pt x="171" y="795" on="1"/>
        <pt x="171" y="863" on="1"/>
        <pt x="463" y="863" on="1"/>
        <pt x="463" y="795" on="1"/>
      </contour>
      <contour>
        <pt x="74" y="129" on="1"/>
        <pt x="74" y="596" on="1"/>
        <pt x="74" y="670" on="0"/>
        <pt x="150" y="732" on="0"/>
        <pt x="202" y="732" on="1"/>
        <pt x="206" y="732" on="0"/>
        <pt x="509" y="718" on="0"/>
        <pt x="527" y="716" on="1"/>
        <pt x="527" y="642" on="1"/>
        <pt x="218" y="642" on="1"/>
        <pt x="181" y="642" on="0"/>
        <pt x="172" y="624" on="1"/>
        <pt x="166" y="610" on="0"/>
        <pt x="166" y="586" on="1"/>
        <pt x="166" y="410" on="1"/>
        <pt x="485" y="400" on="1"/>
        <pt x="485" y="325" on="1"/>
        <pt x="166" y="315" on="1"/>
        <pt x="166" y="139" on="1"/>
        <pt x="167" y="101" on="0"/>
        <pt x="187" y="93" on="1"/>
        <pt x="203" y="87" on="0"/>
        <pt x="228" y="87" on="1"/>
        <pt x="527" y="87" on="1"/>
        <pt x="527" y="14" on="1"/>
        <pt x="219" y="-3" on="1"/>
        <pt x="211" y="-3" on="0"/>
        <pt x="203" y="-3" on="1"/>
        <pt x="74" y="-3" on="0"/>
      </contour>
    </TTGlyph>
    <TTGlyph name="Eng" xMin="74" yMin="-258" xMax="622" yMax="732">
      <contour>
        <pt x="75" y="0" on="1"/>
        <pt x="75" y="732" on="1"/>
        <pt x="169" y="732" on="1"/>
        <pt x="530" y="180" on="1"/>
        <pt x="530" y="732" on="1"/>
        <pt x="622" y="732" on="1"/>
        <pt x="622" y="-81" on="1"/>
        <pt x="622" y="-209" on="0"/>
        <pt x="527" y="-241" on="1"/>
        <pt x="481" y="-257" on="0"/>
        <pt x="412" y="-257" on="1"/>
        <pt x="405" y="-257" on="0"/>
        <pt x="397" y="-257" on="1"/>
        <pt x="397" y="-188" on="1"/>
        <pt x="405" y="-186" on="0"/>
        <pt x="447" y="-178" on="0"/>
        <pt x="468" y="-173" on="0"/>
        <pt x="501" y="-157" on="0"/>
        <pt x="509" y="-146" on="1"/>
        <pt x="530" y="-117" on="0"/>
        <pt x="530" y="-68" on="1"/>
        <pt x="530" y="0" on="1"/>
        <pt x="169" y="560" on="1"/>
        <pt x="167" y="0" on="1"/>
      </contour>
    </TTGlyph>
    <TTGlyph name="Eogonek" xMin="74" yMin="-171" xMax="532" yMax="733">
      <contour>
        <pt x="471" y="-65" on="1"/>
        <pt x="471" y="-103" on="0"/>
        <pt x="531" y="-104" on="1"/>
        <pt x="531" y="-169" on="1"/>
        <pt x="520" y="-170" on="0"/>
        <pt x="488" y="-170" on="0"/>
        <pt x="439" y="-153" on="0"/>
        <pt x="423" y="-131" on="1"/>
        <pt x="403" y="-104" on="0"/>
        <pt x="403" y="-55" on="0"/>
        <pt x="441" y="-5" on="0"/>
        <pt x="483" y="14" on="1"/>
        <pt x="527" y="14" on="1"/>
        <pt x="471" y="-33" on="0"/>
      </contour>
      <contour>
        <pt x="74" y="129" on="1"/>
        <pt x="74" y="596" on="1"/>
        <pt x="74" y="670" on="0"/>
        <pt x="150" y="732" on="0"/>
        <pt x="202" y="732" on="1"/>
        <pt x="206" y="732" on="0"/>
        <pt x="509" y="718" on="0"/>
        <pt x="527" y="716" on="1"/>
        <pt x="527" y="642" on="1"/>
        <pt x="218" y="642" on="1"/>
        <pt x="181" y="642" on="0"/>
        <pt x="172" y="624" on="1"/>
        <pt x="166" y="610" on="0"/>
        <pt x="166" y="586" on="1"/>
        <pt x="166" y="410" on="1"/>
        <pt x="485" y="400" on="1"/>
        <pt x="485" y="325" on="1"/>
        <pt x="166" y="315" on="1"/>
        <pt x="166" y="139" on="1"/>
        <pt x="167" y="101" on="0"/>
        <pt x="187" y="93" on="1"/>
        <pt x="203" y="87" on="0"/>
        <pt x="228" y="87" on="1"/>
        <pt x="527" y="87" on="1"/>
        <pt x="527" y="14" on="1"/>
        <pt x="219" y="-3" on="1"/>
        <pt x="211" y="-3" on="0"/>
        <pt x="203" y="-3" on="1"/>
        <pt x="74" y="-3" on="0"/>
      </contour>
    </TTGlyph>
    <TTGlyph name="Eth" xMin="9" yMin="0" xMax="616" yMax="732">
      <contour>
        <pt x="10" y="344" on="1"/>
        <pt x="10" y="402" on="1"/>
        <pt x="75" y="402" on="1"/>
        <pt x="75" y="731" on="1"/>
        <pt x="75" y="732" on="0"/>
        <pt x="358" y="732" on="1"/>
        <pt x="488" y="732" on="0"/>
        <pt x="552" y="636" on="1"/>
        <pt x="616" y="542" on="0"/>
        <pt x="616" y="363" on="1"/>
        <pt x="616" y="177" on="0"/>
        <pt x="531" y="76" on="1"/>
        <pt x="502" y="41" on="0"/>
        <pt x="413" y="0" on="0"/>
        <pt x="358" y="0" on="1"/>
        <pt x="75" y="0" on="1"/>
        <pt x="75" y="344" on="1"/>
      </contour>
      <contour>
        <pt x="167" y="90" on="1"/>
        <pt x="355" y="90" on="1"/>
        <pt x="413" y="90" on="0"/>
        <pt x="451" y="128" on="1"/>
        <pt x="521" y="197" on="0"/>
        <pt x="521" y="364" on="1"/>
        <pt x="521" y="640" on="0"/>
        <pt x="355" y="640" on="1"/>
        <pt x="167" y="639" on="1"/>
        <pt x="167" y="402" on="1"/>
        <pt x="298" y="402" on="1"/>
        <pt x="298" y="344" on="1"/>
        <pt x="167" y="344" on="1"/>
      </contour>
    </TTGlyph>
    <TTGlyph name="Euro" xMin="18" yMin="-6" xMax="595" yMax="740">
      <contour>
        <pt x="238" y="726" on="0"/>
        <pt x="302" y="740" on="0"/>
        <pt x="380" y="740" on="0"/>
        <pt x="536" y="720" on="0"/>
        <pt x="590" y="708" on="1"/>
        <pt x="590" y="638" on="1"/>
        <pt x="431" y="652" on="0"/>
        <pt x="307" y="652" on="0"/>
        <pt x="249" y="635" on="0"/>
        <pt x="217" y="607" on="0"/>
        <pt x="208" y="582" on="1"/>
        <pt x="196" y="544" on="0"/>
        <pt x="196" y="472" on="1"/>
        <pt x="430" y="464" on="1"/>
        <pt x="430" y="412" on="1"/>
        <pt x="196" y="406" on="1"/>
        <pt x="196" y="314" on="1"/>
        <pt x="430" y="306" on="1"/>
        <pt x="430" y="254" on="1"/>
        <pt x="291" y="251" on="0"/>
        <pt x="228" y="248" on="1"/>
        <pt x="196" y="246" on="1"/>
        <pt x="196" y="80" on="0"/>
        <pt x="350" y="80" on="1"/>
        <pt x="434" y="80" on="0"/>
        <pt x="554" y="94" on="1"/>
        <pt x="594" y="98" on="1"/>
        <pt x="594" y="30" on="1"/>
        <pt x="481" y="-6" on="0"/>
        <pt x="341" y="-6" on="1"/>
        <pt x="236" y="-6" on="0"/>
        <pt x="173" y="52" on="1"/>
        <pt x="104" y="116" on="0"/>
        <pt x="104" y="246" on="1"/>
        <pt x="19" y="254" on="1"/>
        <pt x="19" y="306" on="1"/>
        <pt x="104" y="314" on="1"/>
        <pt x="104" y="406" on="1"/>
        <pt x="19" y="414" on="1"/>
        <pt x="19" y="462" on="1"/>
        <pt x="104" y="472" on="1"/>
        <pt x="104" y="473" on="0"/>
        <pt x="104" y="496" on="0"/>
        <pt x="104" y="518" on="0"/>
        <pt x="108" y="564" on="0"/>
        <pt x="116" y="595" on="0"/>
        <pt x="132" y="640" on="0"/>
        <pt x="155" y="671" on="0"/>
        <pt x="192" y="706" on="0"/>
      </contour>
    </TTGlyph>
    <TTGlyph name="Euro.smcp" xMin="14" yMin="-5" xMax="485" yMax="577">
      <contour>
        <pt x="355" y="198" on="1"/>
        <pt x="171" y="194" on="0"/>
        <pt x="173" y="192" on="1"/>
        <pt x="173" y="84" on="0"/>
        <pt x="283" y="84" on="1"/>
        <pt x="353" y="84" on="0"/>
        <pt x="452" y="94" on="1"/>
        <pt x="484" y="97" on="1"/>
        <pt x="484" y="23" on="1"/>
        <pt x="394" y="-5" on="0"/>
        <pt x="276" y="-5" on="1"/>
        <pt x="228" y="-5" on="0"/>
        <pt x="154" y="26" on="0"/>
        <pt x="111" y="67" on="0"/>
        <pt x="80" y="142" on="0"/>
        <pt x="80" y="192" on="1"/>
        <pt x="15" y="198" on="1"/>
        <pt x="15" y="250" on="1"/>
        <pt x="80" y="255" on="1"/>
        <pt x="80" y="308" on="1"/>
        <pt x="15" y="314" on="1"/>
        <pt x="15" y="362" on="1"/>
        <pt x="80" y="369" on="1"/>
        <pt x="80" y="577" on="0"/>
        <pt x="276" y="577" on="1"/>
        <pt x="355" y="577" on="0"/>
        <pt x="481" y="554" on="1"/>
        <pt x="481" y="480" on="1"/>
        <pt x="347" y="491" on="0"/>
        <pt x="258" y="491" on="0"/>
        <pt x="220" y="482" on="0"/>
        <pt x="197" y="463" on="0"/>
        <pt x="182" y="442" on="0"/>
        <pt x="178" y="426" on="1"/>
        <pt x="173" y="401" on="0"/>
        <pt x="173" y="369" on="1"/>
        <pt x="355" y="363" on="1"/>
        <pt x="355" y="313" on="1"/>
        <pt x="173" y="308" on="1"/>
        <pt x="173" y="255" on="1"/>
        <pt x="355" y="250" on="1"/>
      </contour>
    </TTGlyph>
    <TTGlyph name="F" xMin="74" yMin="0" xMax="527" yMax="733">
      <contour>
        <pt x="202" y="732" on="1"/>
        <pt x="205" y="732" on="0"/>
        <pt x="509" y="718" on="0"/>
        <pt x="527" y="716" on="1"/>
        <pt x="527" y="642" on="1"/>
        <pt x="218" y="642" on="1"/>
        <pt x="181" y="642" on="0"/>
        <pt x="172" y="624" on="1"/>
        <pt x="166" y="610" on="0"/>
        <pt x="166" y="586" on="1"/>
        <pt x="166" y="410" on="1"/>
        <pt x="485" y="399" on="1"/>
        <pt x="485" y="325" on="1"/>
        <pt x="166" y="315" on="1"/>
        <pt x="166" y="0" on="1"/>
        <pt x="74" y="0" on="1"/>
        <pt x="74" y="595" on="1"/>
        <pt x="74" y="668" on="0"/>
        <pt x="149" y="732" on="0"/>
      </contour>
    </TTGlyph>
    <TTGlyph name="G" xMin="51" yMin="-6" xMax="563" yMax="741">
      <contour>
        <pt x="473" y="49" on="1"/>
        <pt x="389" y="-5" on="0"/>
        <pt x="283" y="-5" on="1"/>
        <pt x="172" y="-5" on="0"/>
        <pt x="116" y="64" on="1"/>
        <pt x="68" y="124" on="0"/>
        <pt x="56" y="249" on="1"/>
        <pt x="51" y="300" on="0"/>
        <pt x="51" y="436" on="0"/>
        <pt x="62" y="538" on="0"/>
        <pt x="92" y="637" on="0"/>
        <pt x="118" y="669" on="1"/>
        <pt x="174" y="740" on="0"/>
        <pt x="287" y="740" on="1"/>
        <pt x="339" y="740" on="0"/>
        <pt x="489" y="724" on="0"/>
        <pt x="548" y="712" on="1"/>
        <pt x="548" y="639" on="1"/>
        <pt x="547" y="639" on="0"/>
        <pt x="513" y="642" on="0"/>
        <pt x="459" y="646" on="0"/>
        <pt x="428" y="648" on="1"/>
        <pt x="353" y="653" on="0"/>
        <pt x="258" y="653" on="0"/>
        <pt x="205" y="630" on="0"/>
        <pt x="170" y="588" on="0"/>
        <pt x="161" y="552" on="1"/>
        <pt x="143" y="489" on="0"/>
        <pt x="143" y="207" on="0"/>
        <pt x="176" y="146" on="1"/>
        <pt x="210" y="84" on="0"/>
        <pt x="299" y="84" on="1"/>
        <pt x="331" y="84" on="0"/>
        <pt x="417" y="106" on="0"/>
        <pt x="444" y="118" on="1"/>
        <pt x="471" y="130" on="1"/>
        <pt x="471" y="311" on="1"/>
        <pt x="321" y="311" on="1"/>
        <pt x="321" y="372" on="1"/>
        <pt x="399" y="397" on="0"/>
        <pt x="495" y="397" on="1"/>
        <pt x="527" y="397" on="0"/>
        <pt x="563" y="394" on="1"/>
        <pt x="563" y="0" on="1"/>
        <pt x="495" y="0" on="1"/>
      </contour>
    </TTGlyph>
    <TTGlyph name="Gbreve" xMin="51" yMin="-6" xMax="563" yMax="914">
      <contour>
        <pt x="218" y="914" on="1"/>
        <pt x="268" y="914" on="1"/>
        <pt x="268" y="887" on="0"/>
        <pt x="307" y="850" on="0"/>
        <pt x="362" y="850" on="0"/>
        <pt x="398" y="885" on="0"/>
        <pt x="398" y="914" on="1"/>
        <pt x="448" y="914" on="1"/>
        <pt x="448" y="861" on="0"/>
        <pt x="379" y="800" on="0"/>
        <pt x="287" y="800" on="0"/>
        <pt x="218" y="863" on="0"/>
      </contour>
      <contour>
        <pt x="473" y="49" on="1"/>
        <pt x="389" y="-5" on="0"/>
        <pt x="283" y="-5" on="1"/>
        <pt x="172" y="-5" on="0"/>
        <pt x="116" y="64" on="1"/>
        <pt x="68" y="124" on="0"/>
        <pt x="56" y="249" on="1"/>
        <pt x="51" y="300" on="0"/>
        <pt x="51" y="436" on="0"/>
        <pt x="62" y="538" on="0"/>
        <pt x="92" y="637" on="0"/>
        <pt x="118" y="669" on="1"/>
        <pt x="174" y="740" on="0"/>
        <pt x="287" y="740" on="1"/>
        <pt x="339" y="740" on="0"/>
        <pt x="489" y="724" on="0"/>
        <pt x="548" y="712" on="1"/>
        <pt x="548" y="639" on="1"/>
        <pt x="547" y="639" on="0"/>
        <pt x="513" y="642" on="0"/>
        <pt x="459" y="646" on="0"/>
        <pt x="428" y="648" on="1"/>
        <pt x="353" y="652" on="0"/>
        <pt x="264" y="652" on="0"/>
        <pt x="217" y="638" on="0"/>
        <pt x="183" y="606" on="0"/>
        <pt x="161" y="562" on="0"/>
        <pt x="155" y="529" on="1"/>
        <pt x="143" y="469" on="0"/>
        <pt x="143" y="368" on="1"/>
        <pt x="143" y="207" on="0"/>
        <pt x="176" y="146" on="1"/>
        <pt x="210" y="84" on="0"/>
        <pt x="299" y="84" on="1"/>
        <pt x="331" y="84" on="0"/>
        <pt x="417" y="106" on="0"/>
        <pt x="444" y="118" on="1"/>
        <pt x="471" y="130" on="1"/>
        <pt x="471" y="311" on="1"/>
        <pt x="321" y="311" on="1"/>
        <pt x="321" y="372" on="1"/>
        <pt x="399" y="396" on="0"/>
        <pt x="495" y="396" on="1"/>
        <pt x="527" y="396" on="0"/>
        <pt x="563" y="394" on="1"/>
        <pt x="563" y="0" on="1"/>
        <pt x="495" y="0" on="1"/>
      </contour>
    </TTGlyph>
    <TTGlyph name="Gcircumflex" xMin="51" yMin="-6" xMax="563" yMax="932">
      <contour>
        <pt x="187" y="800" on="1"/>
        <pt x="302" y="932" on="1"/>
        <pt x="382" y="932" on="1"/>
        <pt x="484" y="800" on="1"/>
        <pt x="407" y="800" on="1"/>
        <pt x="339" y="868" on="1"/>
        <pt x="265" y="800" on="1"/>
      </contour>
      <contour>
        <pt x="473" y="49" on="1"/>
        <pt x="389" y="-5" on="0"/>
        <pt x="283" y="-5" on="1"/>
        <pt x="172" y="-5" on="0"/>
        <pt x="116" y="64" on="1"/>
        <pt x="68" y="124" on="0"/>
        <pt x="56" y="249" on="1"/>
        <pt x="51" y="300" on="0"/>
        <pt x="51" y="436" on="0"/>
        <pt x="62" y="538" on="0"/>
        <pt x="92" y="637" on="0"/>
        <pt x="118" y="669" on="1"/>
        <pt x="174" y="740" on="0"/>
        <pt x="287" y="740" on="1"/>
        <pt x="339" y="740" on="0"/>
        <pt x="489" y="724" on="0"/>
        <pt x="548" y="712" on="1"/>
        <pt x="548" y="639" on="1"/>
        <pt x="547" y="639" on="0"/>
        <pt x="513" y="642" on="0"/>
        <pt x="459" y="646" on="0"/>
        <pt x="428" y="648" on="1"/>
        <pt x="353" y="652" on="0"/>
        <pt x="264" y="652" on="0"/>
        <pt x="217" y="638" on="0"/>
        <pt x="183" y="606" on="0"/>
        <pt x="161" y="562" on="0"/>
        <pt x="155" y="529" on="1"/>
        <pt x="143" y="469" on="0"/>
        <pt x="143" y="368" on="1"/>
        <pt x="143" y="207" on="0"/>
        <pt x="176" y="146" on="1"/>
        <pt x="210" y="84" on="0"/>
        <pt x="299" y="84" on="1"/>
        <pt x="331" y="84" on="0"/>
        <pt x="417" y="106" on="0"/>
        <pt x="444" y="118" on="1"/>
        <pt x="471" y="130" on="1"/>
        <pt x="471" y="311" on="1"/>
        <pt x="321" y="311" on="1"/>
        <pt x="321" y="372" on="1"/>
        <pt x="399" y="396" on="0"/>
        <pt x="495" y="396" on="1"/>
        <pt x="527" y="396" on="0"/>
        <pt x="563" y="394" on="1"/>
        <pt x="563" y="0" on="1"/>
        <pt x="495" y="0" on="1"/>
      </contour>
    </TTGlyph>
    <TTGlyph name="Gcommaaccent" xMin="51" yMin="-261" xMax="563" yMax="740">
      <contour>
        <pt x="275" y="-225" on="1"/>
        <pt x="303" y="-226" on="0"/>
        <pt x="303" y="-198" on="1"/>
        <pt x="303" y="-179" on="1"/>
        <pt x="293" y="-179" on="1"/>
        <pt x="270" y="-179" on="0"/>
        <pt x="270" y="-156" on="1"/>
        <pt x="270" y="-100" on="1"/>
        <pt x="270" y="-75" on="0"/>
        <pt x="293" y="-75" on="1"/>
        <pt x="347" y="-75" on="1"/>
        <pt x="368" y="-75" on="0"/>
        <pt x="368" y="-100" on="1"/>
        <pt x="368" y="-189" on="1"/>
        <pt x="368" y="-260" on="0"/>
        <pt x="294" y="-260" on="1"/>
        <pt x="289" y="-260" on="0"/>
        <pt x="275" y="-258" on="1"/>
      </contour>
      <contour>
        <pt x="473" y="49" on="1"/>
        <pt x="389" y="-5" on="0"/>
        <pt x="283" y="-5" on="1"/>
        <pt x="172" y="-5" on="0"/>
        <pt x="116" y="64" on="1"/>
        <pt x="68" y="124" on="0"/>
        <pt x="56" y="249" on="1"/>
        <pt x="51" y="300" on="0"/>
        <pt x="51" y="436" on="0"/>
        <pt x="62" y="538" on="0"/>
        <pt x="92" y="637" on="0"/>
        <pt x="118" y="669" on="1"/>
        <pt x="174" y="740" on="0"/>
        <pt x="287" y="740" on="1"/>
        <pt x="339" y="740" on="0"/>
        <pt x="489" y="724" on="0"/>
        <pt x="548" y="712" on="1"/>
        <pt x="548" y="639" on="1"/>
        <pt x="547" y="639" on="0"/>
        <pt x="513" y="642" on="0"/>
        <pt x="459" y="646" on="0"/>
        <pt x="428" y="648" on="1"/>
        <pt x="353" y="652" on="0"/>
        <pt x="264" y="652" on="0"/>
        <pt x="217" y="638" on="0"/>
        <pt x="183" y="606" on="0"/>
        <pt x="161" y="562" on="0"/>
        <pt x="155" y="529" on="1"/>
        <pt x="143" y="469" on="0"/>
        <pt x="143" y="368" on="1"/>
        <pt x="143" y="207" on="0"/>
        <pt x="176" y="146" on="1"/>
        <pt x="210" y="84" on="0"/>
        <pt x="299" y="84" on="1"/>
        <pt x="331" y="84" on="0"/>
        <pt x="417" y="106" on="0"/>
        <pt x="444" y="118" on="1"/>
        <pt x="471" y="130" on="1"/>
        <pt x="471" y="311" on="1"/>
        <pt x="321" y="311" on="1"/>
        <pt x="321" y="372" on="1"/>
        <pt x="399" y="396" on="0"/>
        <pt x="495" y="396" on="1"/>
        <pt x="527" y="396" on="0"/>
        <pt x="563" y="394" on="1"/>
        <pt x="563" y="0" on="1"/>
        <pt x="495" y="0" on="1"/>
      </contour>
    </TTGlyph>
    <TTGlyph name="Gdotaccent" xMin="51" yMin="-6" xMax="563" yMax="908">
      <contour>
        <pt x="276" y="823" on="1"/>
        <pt x="276" y="883" on="1"/>
        <pt x="276" y="908" on="0"/>
        <pt x="300" y="908" on="1"/>
        <pt x="356" y="908" on="1"/>
        <pt x="366" y="908" on="0"/>
        <pt x="379" y="894" on="0"/>
        <pt x="379" y="883" on="1"/>
        <pt x="379" y="823" on="1"/>
        <pt x="379" y="800" on="0"/>
        <pt x="356" y="800" on="1"/>
        <pt x="300" y="800" on="1"/>
        <pt x="289" y="800" on="0"/>
        <pt x="276" y="813" on="0"/>
      </contour>
      <contour>
        <pt x="473" y="49" on="1"/>
        <pt x="389" y="-5" on="0"/>
        <pt x="283" y="-5" on="1"/>
        <pt x="172" y="-5" on="0"/>
        <pt x="116" y="64" on="1"/>
        <pt x="68" y="124" on="0"/>
        <pt x="56" y="249" on="1"/>
        <pt x="51" y="300" on="0"/>
        <pt x="51" y="436" on="0"/>
        <pt x="62" y="538" on="0"/>
        <pt x="92" y="637" on="0"/>
        <pt x="118" y="669" on="1"/>
        <pt x="174" y="740" on="0"/>
        <pt x="287" y="740" on="1"/>
        <pt x="339" y="740" on="0"/>
        <pt x="489" y="724" on="0"/>
        <pt x="548" y="712" on="1"/>
        <pt x="548" y="639" on="1"/>
        <pt x="547" y="639" on="0"/>
        <pt x="513" y="642" on="0"/>
        <pt x="459" y="646" on="0"/>
        <pt x="428" y="648" on="1"/>
        <pt x="353" y="652" on="0"/>
        <pt x="264" y="652" on="0"/>
        <pt x="217" y="638" on="0"/>
        <pt x="183" y="606" on="0"/>
        <pt x="161" y="562" on="0"/>
        <pt x="155" y="529" on="1"/>
        <pt x="143" y="469" on="0"/>
        <pt x="143" y="368" on="1"/>
        <pt x="143" y="207" on="0"/>
        <pt x="176" y="146" on="1"/>
        <pt x="210" y="84" on="0"/>
        <pt x="299" y="84" on="1"/>
        <pt x="331" y="84" on="0"/>
        <pt x="417" y="106" on="0"/>
        <pt x="444" y="118" on="1"/>
        <pt x="471" y="130" on="1"/>
        <pt x="471" y="311" on="1"/>
        <pt x="321" y="311" on="1"/>
        <pt x="321" y="372" on="1"/>
        <pt x="399" y="396" on="0"/>
        <pt x="495" y="396" on="1"/>
        <pt x="527" y="396" on="0"/>
        <pt x="563" y="394" on="1"/>
        <pt x="563" y="0" on="1"/>
        <pt x="495" y="0" on="1"/>
      </contour>
    </TTGlyph>
    <TTGlyph name="H" xMin="74" yMin="0" xMax="582" yMax="732">
      <contour>
        <pt x="75" y="0" on="1"/>
        <pt x="75" y="732" on="1"/>
        <pt x="167" y="732" on="1"/>
        <pt x="167" y="398" on="1"/>
        <pt x="490" y="398" on="1"/>
        <pt x="490" y="732" on="1"/>
        <pt x="582" y="732" on="1"/>
        <pt x="582" y="0" on="1"/>
        <pt x="490" y="0" on="1"/>
        <pt x="490" y="310" on="1"/>
        <pt x="167" y="310" on="1"/>
        <pt x="167" y="0" on="1"/>
      </contour>
    </TTGlyph>
    <TTGlyph name="Hbar" xMin="17" yMin="0" xMax="647" yMax="732">
      <contour>
        <pt x="18" y="516" on="1"/>
        <pt x="18" y="573" on="1"/>
        <pt x="79" y="573" on="1"/>
        <pt x="79" y="732" on="1"/>
        <pt x="171" y="732" on="1"/>
        <pt x="171" y="573" on="1"/>
        <pt x="494" y="573" on="1"/>
        <pt x="494" y="732" on="1"/>
        <pt x="586" y="732" on="1"/>
        <pt x="586" y="573" on="1"/>
        <pt x="646" y="573" on="1"/>
        <pt x="646" y="516" on="1"/>
        <pt x="586" y="516" on="1"/>
        <pt x="586" y="0" on="1"/>
        <pt x="494" y="0" on="1"/>
        <pt x="494" y="310" on="1"/>
        <pt x="171" y="310" on="1"/>
        <pt x="171" y="0" on="1"/>
        <pt x="79" y="0" on="1"/>
        <pt x="79" y="516" on="1"/>
      </contour>
      <contour>
        <pt x="171" y="398" on="1"/>
        <pt x="494" y="398" on="1"/>
        <pt x="494" y="516" on="1"/>
        <pt x="171" y="516" on="1"/>
      </contour>
    </TTGlyph>
    <TTGlyph name="Hcircumflex" xMin="74" yMin="0" xMax="582" yMax="929">
      <contour>
        <pt x="180" y="797" on="1"/>
        <pt x="294" y="928" on="1"/>
        <pt x="374" y="928" on="1"/>
        <pt x="476" y="797" on="1"/>
        <pt x="400" y="797" on="1"/>
        <pt x="332" y="865" on="1"/>
        <pt x="258" y="797" on="1"/>
      </contour>
      <contour>
        <pt x="75" y="0" on="1"/>
        <pt x="75" y="732" on="1"/>
        <pt x="167" y="732" on="1"/>
        <pt x="167" y="398" on="1"/>
        <pt x="490" y="398" on="1"/>
        <pt x="490" y="732" on="1"/>
        <pt x="582" y="732" on="1"/>
        <pt x="582" y="0" on="1"/>
        <pt x="490" y="0" on="1"/>
        <pt x="490" y="310" on="1"/>
        <pt x="167" y="310" on="1"/>
        <pt x="167" y="0" on="1"/>
      </contour>
    </TTGlyph>
    <TTGlyph name="I" xMin="74" yMin="0" xMax="167" yMax="732">
      <contour>
        <pt x="75" y="0" on="1"/>
        <pt x="75" y="732" on="1"/>
        <pt x="167" y="732" on="1"/>
        <pt x="167" y="0" on="1"/>
      </contour>
    </TTGlyph>
    <TTGlyph name="Iacute" xMin="74" yMin="0" xMax="289" yMax="932">
      <contour>
        <pt x="83" y="797" on="1"/>
        <pt x="186" y="932" on="1"/>
        <pt x="288" y="932" on="1"/>
        <pt x="158" y="797" on="1"/>
      </contour>
      <contour>
        <pt x="75" y="0" on="1"/>
        <pt x="75" y="732" on="1"/>
        <pt x="167" y="732" on="1"/>
        <pt x="167" y="0" on="1"/>
      </contour>
    </TTGlyph>
    <TTGlyph name="Icircumflex" xMin="-28" yMin="0" xMax="269" yMax="929">
      <contour>
        <pt x="-28" y="797" on="1"/>
        <pt x="87" y="928" on="1"/>
        <pt x="167" y="928" on="1"/>
        <pt x="269" y="797" on="1"/>
        <pt x="192" y="797" on="1"/>
        <pt x="124" y="865" on="1"/>
        <pt x="50" y="797" on="1"/>
      </contour>
      <contour>
        <pt x="75" y="0" on="1"/>
        <pt x="75" y="732" on="1"/>
        <pt x="167" y="732" on="1"/>
        <pt x="167" y="0" on="1"/>
      </contour>
    </TTGlyph>
    <TTGlyph name="Idieresis" xMin="-60" yMin="0" xMax="301" yMax="903">
      <contour>
        <pt x="-60" y="828" on="0"/>
        <pt x="-60" y="872" on="0"/>
        <pt x="-28" y="902" on="0"/>
        <pt x="16" y="902" on="0"/>
        <pt x="46" y="872" on="0"/>
        <pt x="46" y="828" on="0"/>
        <pt x="16" y="797" on="0"/>
        <pt x="-28" y="797" on="0"/>
      </contour>
      <contour>
        <pt x="196" y="828" on="0"/>
        <pt x="196" y="872" on="0"/>
        <pt x="227" y="902" on="0"/>
        <pt x="271" y="902" on="0"/>
        <pt x="301" y="872" on="0"/>
        <pt x="301" y="828" on="0"/>
        <pt x="271" y="797" on="0"/>
        <pt x="227" y="797" on="0"/>
      </contour>
      <contour>
        <pt x="75" y="0" on="1"/>
        <pt x="75" y="732" on="1"/>
        <pt x="167" y="732" on="1"/>
        <pt x="167" y="0" on="1"/>
      </contour>
    </TTGlyph>
    <TTGlyph name="Idotaccent" xMin="69" yMin="0" xMax="173" yMax="905">
      <contour>
        <pt x="69" y="820" on="1"/>
        <pt x="69" y="880" on="1"/>
        <pt x="69" y="905" on="0"/>
        <pt x="93" y="905" on="1"/>
        <pt x="149" y="905" on="1"/>
        <pt x="160" y="905" on="0"/>
        <pt x="172" y="891" on="0"/>
        <pt x="172" y="880" on="1"/>
        <pt x="172" y="820" on="1"/>
        <pt x="172" y="797" on="0"/>
        <pt x="149" y="797" on="1"/>
        <pt x="93" y="797" on="1"/>
        <pt x="83" y="797" on="0"/>
        <pt x="69" y="810" on="0"/>
      </contour>
      <contour>
        <pt x="75" y="0" on="1"/>
        <pt x="75" y="732" on="1"/>
        <pt x="167" y="732" on="1"/>
        <pt x="167" y="0" on="1"/>
      </contour>
    </TTGlyph>
    <TTGlyph name="Idotaccent.smcp" xMin="52" yMin="0" xMax="156" yMax="746">
      <contour>
        <pt x="55" y="0" on="1"/>
        <pt x="55" y="570" on="1"/>
        <pt x="147" y="570" on="1"/>
        <pt x="147" y="0" on="1"/>
      </contour>
      <contour>
        <pt x="52" y="661" on="1"/>
        <pt x="52" y="721" on="1"/>
        <pt x="52" y="746" on="0"/>
        <pt x="76" y="746" on="1"/>
        <pt x="132" y="746" on="1"/>
        <pt x="143" y="746" on="0"/>
        <pt x="155" y="732" on="0"/>
        <pt x="155" y="721" on="1"/>
        <pt x="155" y="661" on="1"/>
        <pt x="155" y="638" on="0"/>
        <pt x="132" y="638" on="1"/>
        <pt x="76" y="638" on="1"/>
        <pt x="66" y="638" on="0"/>
        <pt x="52" y="650" on="0"/>
      </contour>
    </TTGlyph>
    <TTGlyph name="Igrave" xMin="-47" yMin="0" xMax="167" yMax="932">
      <contour>
        <pt x="-47" y="932" on="1"/>
        <pt x="56" y="932" on="1"/>
        <pt x="158" y="797" on="1"/>
        <pt x="83" y="797" on="1"/>
      </contour>
      <contour>
        <pt x="75" y="0" on="1"/>
        <pt x="75" y="732" on="1"/>
        <pt x="167" y="732" on="1"/>
        <pt x="167" y="0" on="1"/>
      </contour>
    </TTGlyph>
    <TTGlyph name="Imacron" xMin="-26" yMin="0" xMax="267" yMax="865">
      <contour>
        <pt x="-25" y="797" on="1"/>
        <pt x="-25" y="864" on="1"/>
        <pt x="267" y="864" on="1"/>
        <pt x="267" y="797" on="1"/>
      </contour>
      <contour>
        <pt x="75" y="0" on="1"/>
        <pt x="75" y="732" on="1"/>
        <pt x="167" y="732" on="1"/>
        <pt x="167" y="0" on="1"/>
      </contour>
    </TTGlyph>
    <TTGlyph name="Iogonek" xMin="22" yMin="-185" xMax="167" yMax="732">
      <contour>
        <pt x="90" y="-79" on="1"/>
        <pt x="90" y="-117" on="0"/>
        <pt x="151" y="-118" on="1"/>
        <pt x="151" y="-182" on="1"/>
        <pt x="140" y="-184" on="0"/>
        <pt x="108" y="-184" on="0"/>
        <pt x="58" y="-167" on="0"/>
        <pt x="43" y="-145" on="1"/>
        <pt x="23" y="-118" on="0"/>
        <pt x="23" y="-69" on="0"/>
        <pt x="60" y="-19" on="0"/>
        <pt x="103" y="0" on="1"/>
        <pt x="146" y="0" on="1"/>
        <pt x="90" y="-46" on="0"/>
      </contour>
      <contour>
        <pt x="75" y="0" on="1"/>
        <pt x="75" y="732" on="1"/>
        <pt x="167" y="732" on="1"/>
        <pt x="167" y="0" on="1"/>
      </contour>
    </TTGlyph>
    <TTGlyph name="Itilde" xMin="-49" yMin="0" xMax="291" yMax="909">
      <contour>
        <pt x="178" y="872" on="1"/>
        <pt x="205" y="872" on="0"/>
        <pt x="268" y="909" on="1"/>
        <pt x="290" y="862" on="1"/>
        <pt x="288" y="860" on="0"/>
        <pt x="261" y="837" on="0"/>
        <pt x="251" y="829" on="0"/>
        <pt x="226" y="811" on="0"/>
        <pt x="217" y="808" on="1"/>
        <pt x="171" y="787" on="0"/>
        <pt x="116" y="816" on="1"/>
        <pt x="85" y="832" on="0"/>
        <pt x="68" y="832" on="1"/>
        <pt x="37" y="832" on="0"/>
        <pt x="-16" y="802" on="0"/>
        <pt x="-27" y="797" on="1"/>
        <pt x="-49" y="842" on="1"/>
        <pt x="8" y="892" on="0"/>
        <pt x="39" y="902" on="1"/>
        <pt x="78" y="915" on="0"/>
        <pt x="164" y="873" on="0"/>
        <pt x="177" y="872" on="0"/>
      </contour>
      <contour>
        <pt x="75" y="0" on="1"/>
        <pt x="75" y="732" on="1"/>
        <pt x="167" y="732" on="1"/>
        <pt x="167" y="0" on="1"/>
      </contour>
    </TTGlyph>
    <TTGlyph name="J" xMin="32" yMin="-6" xMax="303" yMax="732">
      <contour>
        <pt x="250" y="18" on="1"/>
        <pt x="212" y="-6" on="0"/>
        <pt x="75" y="-6" on="0"/>
        <pt x="33" y="22" on="1"/>
        <pt x="36" y="91" on="1"/>
        <pt x="39" y="90" on="0"/>
        <pt x="62" y="86" on="0"/>
        <pt x="80" y="82" on="0"/>
        <pt x="112" y="78" on="0"/>
        <pt x="131" y="79" on="0"/>
        <pt x="159" y="82" on="0"/>
        <pt x="174" y="91" on="0"/>
        <pt x="193" y="106" on="0"/>
        <pt x="198" y="118" on="1"/>
        <pt x="210" y="145" on="0"/>
        <pt x="210" y="182" on="1"/>
        <pt x="210" y="732" on="1"/>
        <pt x="302" y="732" on="1"/>
        <pt x="302" y="165" on="1"/>
        <pt x="302" y="133" on="0"/>
        <pt x="298" y="90" on="0"/>
        <pt x="273" y="33" on="0"/>
      </contour>
    </TTGlyph>
    <TTGlyph name="Jcircumflex" xMin="32" yMin="-6" xMax="405" yMax="929">
      <contour>
        <pt x="108" y="797" on="1"/>
        <pt x="223" y="928" on="1"/>
        <pt x="303" y="928" on="1"/>
        <pt x="405" y="797" on="1"/>
        <pt x="328" y="797" on="1"/>
        <pt x="260" y="865" on="1"/>
        <pt x="186" y="797" on="1"/>
      </contour>
      <contour>
        <pt x="250" y="18" on="1"/>
        <pt x="212" y="-6" on="0"/>
        <pt x="75" y="-6" on="0"/>
        <pt x="33" y="22" on="1"/>
        <pt x="36" y="91" on="1"/>
        <pt x="39" y="90" on="0"/>
        <pt x="64" y="85" on="0"/>
        <pt x="84" y="82" on="0"/>
        <pt x="121" y="77" on="0"/>
        <pt x="141" y="80" on="0"/>
        <pt x="170" y="85" on="0"/>
        <pt x="186" y="101" on="0"/>
        <pt x="195" y="112" on="1"/>
        <pt x="210" y="133" on="0"/>
        <pt x="210" y="182" on="1"/>
        <pt x="210" y="732" on="1"/>
        <pt x="302" y="732" on="1"/>
        <pt x="302" y="165" on="1"/>
        <pt x="302" y="133" on="0"/>
        <pt x="298" y="90" on="0"/>
        <pt x="273" y="33" on="0"/>
      </contour>
    </TTGlyph>
    <TTGlyph name="K" xMin="74" yMin="0" xMax="569" yMax="732">
      <contour>
        <pt x="75" y="0" on="1"/>
        <pt x="75" y="732" on="1"/>
        <pt x="165" y="732" on="1"/>
        <pt x="165" y="410" on="1"/>
        <pt x="241" y="410" on="1"/>
        <pt x="459" y="732" on="1"/>
        <pt x="569" y="732" on="1"/>
        <pt x="324" y="367" on="1"/>
        <pt x="569" y="0" on="1"/>
        <pt x="459" y="0" on="1"/>
        <pt x="241" y="322" on="1"/>
        <pt x="166" y="322" on="1"/>
        <pt x="166" y="0" on="1"/>
      </contour>
    </TTGlyph>
    <TTGlyph name="Kcommaaccent" xMin="74" yMin="-255" xMax="569" yMax="732">
      <contour>
        <pt x="282" y="-255" on="1"/>
        <pt x="274" y="-255" on="0"/>
        <pt x="264" y="-253" on="1"/>
        <pt x="264" y="-220" on="1"/>
        <pt x="276" y="-220" on="0"/>
        <pt x="283" y="-215" on="1"/>
        <pt x="291" y="-209" on="0"/>
        <pt x="291" y="-194" on="1"/>
        <pt x="291" y="-174" on="1"/>
        <pt x="282" y="-174" on="1"/>
        <pt x="259" y="-174" on="0"/>
        <pt x="259" y="-151" on="1"/>
        <pt x="259" y="-94" on="1"/>
        <pt x="259" y="-70" on="0"/>
        <pt x="282" y="-70" on="1"/>
        <pt x="336" y="-70" on="1"/>
        <pt x="357" y="-70" on="0"/>
        <pt x="357" y="-94" on="1"/>
        <pt x="357" y="-184" on="1"/>
        <pt x="357" y="-255" on="0"/>
      </contour>
      <contour>
        <pt x="75" y="0" on="1"/>
        <pt x="75" y="732" on="1"/>
        <pt x="165" y="732" on="1"/>
        <pt x="165" y="410" on="1"/>
        <pt x="241" y="410" on="1"/>
        <pt x="459" y="732" on="1"/>
        <pt x="569" y="732" on="1"/>
        <pt x="324" y="367" on="1"/>
        <pt x="569" y="0" on="1"/>
        <pt x="459" y="0" on="1"/>
        <pt x="241" y="322" on="1"/>
        <pt x="166" y="322" on="1"/>
        <pt x="166" y="0" on="1"/>
      </contour>
    </TTGlyph>
    <TTGlyph name="L" xMin="74" yMin="0" xMax="520" yMax="732">
      <contour>
        <pt x="75" y="130" on="1"/>
        <pt x="75" y="732" on="1"/>
        <pt x="167" y="732" on="1"/>
        <pt x="167" y="141" on="1"/>
        <pt x="167" y="103" on="0"/>
        <pt x="188" y="95" on="1"/>
        <pt x="203" y="89" on="0"/>
        <pt x="229" y="89" on="1"/>
        <pt x="520" y="89" on="1"/>
        <pt x="520" y="0" on="1"/>
        <pt x="215" y="0" on="1"/>
        <pt x="113" y="0" on="0"/>
        <pt x="86" y="63" on="1"/>
        <pt x="75" y="90" on="0"/>
      </contour>
    </TTGlyph>
    <TTGlyph name="Lacute" xMin="74" yMin="0" xMax="520" yMax="932">
      <contour>
        <pt x="83" y="797" on="1"/>
        <pt x="186" y="932" on="1"/>
        <pt x="288" y="932" on="1"/>
        <pt x="158" y="797" on="1"/>
      </contour>
      <contour>
        <pt x="75" y="130" on="1"/>
        <pt x="75" y="732" on="1"/>
        <pt x="167" y="732" on="1"/>
        <pt x="167" y="141" on="1"/>
        <pt x="167" y="103" on="0"/>
        <pt x="188" y="95" on="1"/>
        <pt x="203" y="89" on="0"/>
        <pt x="229" y="89" on="1"/>
        <pt x="520" y="89" on="1"/>
        <pt x="520" y="0" on="1"/>
        <pt x="215" y="0" on="1"/>
        <pt x="113" y="0" on="0"/>
        <pt x="86" y="63" on="1"/>
        <pt x="75" y="90" on="0"/>
      </contour>
    </TTGlyph>
    <TTGlyph name="Lcaron" xMin="74" yMin="0" xMax="520" yMax="772">
      <contour>
        <pt x="75" y="130" on="1"/>
        <pt x="75" y="732" on="1"/>
        <pt x="167" y="732" on="1"/>
        <pt x="167" y="141" on="1"/>
        <pt x="167" y="103" on="0"/>
        <pt x="188" y="95" on="1"/>
        <pt x="203" y="89" on="0"/>
        <pt x="229" y="89" on="1"/>
        <pt x="520" y="89" on="1"/>
        <pt x="520" y="0" on="1"/>
        <pt x="215" y="0" on="1"/>
        <pt x="113" y="0" on="0"/>
        <pt x="86" y="63" on="1"/>
        <pt x="75" y="90" on="0"/>
      </contour>
      <contour>
        <pt x="240" y="772" on="1"/>
        <pt x="320" y="772" on="1"/>
        <pt x="320" y="705" on="1"/>
        <pt x="310" y="571" on="1"/>
        <pt x="251" y="571" on="1"/>
        <pt x="240" y="705" on="1"/>
      </contour>
    </TTGlyph>
    <TTGlyph name="Lcommaaccent" xMin="74" yMin="-255" xMax="520" yMax="732">
      <contour>
        <pt x="280" y="-254" on="1"/>
        <pt x="275" y="-254" on="0"/>
        <pt x="261" y="-252" on="1"/>
        <pt x="261" y="-219" on="1"/>
        <pt x="286" y="-220" on="0"/>
        <pt x="288" y="-199" on="1"/>
        <pt x="289" y="-197" on="0"/>
        <pt x="289" y="-193" on="1"/>
        <pt x="289" y="-173" on="1"/>
        <pt x="279" y="-173" on="1"/>
        <pt x="256" y="-173" on="0"/>
        <pt x="256" y="-150" on="1"/>
        <pt x="256" y="-94" on="1"/>
        <pt x="256" y="-69" on="0"/>
        <pt x="279" y="-69" on="1"/>
        <pt x="333" y="-69" on="1"/>
        <pt x="354" y="-69" on="0"/>
        <pt x="354" y="-94" on="1"/>
        <pt x="354" y="-183" on="1"/>
        <pt x="354" y="-254" on="0"/>
      </contour>
      <contour>
        <pt x="75" y="130" on="1"/>
        <pt x="75" y="732" on="1"/>
        <pt x="167" y="732" on="1"/>
        <pt x="167" y="141" on="1"/>
        <pt x="167" y="103" on="0"/>
        <pt x="188" y="95" on="1"/>
        <pt x="203" y="89" on="0"/>
        <pt x="229" y="89" on="1"/>
        <pt x="520" y="89" on="1"/>
        <pt x="520" y="0" on="1"/>
        <pt x="215" y="0" on="1"/>
        <pt x="113" y="0" on="0"/>
        <pt x="86" y="63" on="1"/>
        <pt x="75" y="90" on="0"/>
      </contour>
    </TTGlyph>
    <TTGlyph name="Lslash" xMin="1" yMin="0" xMax="529" yMax="732">
      <contour>
        <pt x="83" y="732" on="1"/>
        <pt x="175" y="732" on="1"/>
        <pt x="175" y="455" on="1"/>
        <pt x="308" y="512" on="1"/>
        <pt x="307" y="448" on="1"/>
        <pt x="175" y="391" on="1"/>
        <pt x="175" y="141" on="1"/>
        <pt x="175" y="103" on="0"/>
        <pt x="196" y="95" on="1"/>
        <pt x="212" y="89" on="0"/>
        <pt x="237" y="89" on="1"/>
        <pt x="528" y="89" on="1"/>
        <pt x="528" y="0" on="1"/>
        <pt x="224" y="0" on="1"/>
        <pt x="121" y="0" on="0"/>
        <pt x="95" y="63" on="1"/>
        <pt x="83" y="90" on="0"/>
        <pt x="83" y="130" on="1"/>
        <pt x="83" y="351" on="1"/>
        <pt x="2" y="316" on="1"/>
        <pt x="2" y="380" on="1"/>
        <pt x="83" y="415" on="1"/>
      </contour>
    </TTGlyph>
    <TTGlyph name="M" xMin="51" yMin="0" xMax="763" yMax="732">
      <contour>
        <pt x="51" y="0" on="1"/>
        <pt x="104" y="732" on="1"/>
        <pt x="231" y="732" on="1"/>
        <pt x="406" y="153" on="1"/>
        <pt x="577" y="732" on="1"/>
        <pt x="703" y="732" on="1"/>
        <pt x="763" y="0" on="1"/>
        <pt x="671" y="0" on="1"/>
        <pt x="625" y="568" on="1"/>
        <pt x="456" y="0" on="1"/>
        <pt x="358" y="0" on="1"/>
        <pt x="184" y="568" on="1"/>
        <pt x="143" y="0" on="1"/>
      </contour>
    </TTGlyph>
    <TTGlyph name="M.salt" xMin="51" yMin="0" xMax="766" yMax="738">
      <contour>
        <pt x="90" y="677" on="0"/>
        <pt x="127" y="724" on="0"/>
        <pt x="175" y="737" on="0"/>
        <pt x="189" y="737" on="1"/>
        <pt x="234" y="737" on="0"/>
        <pt x="283" y="695" on="0"/>
        <pt x="290" y="665" on="1"/>
        <pt x="395" y="280" on="1"/>
        <pt x="399" y="267" on="0"/>
        <pt x="418" y="269" on="0"/>
        <pt x="420" y="280" on="1"/>
        <pt x="516" y="666" on="1"/>
        <pt x="522" y="697" on="0"/>
        <pt x="545" y="716" on="1"/>
        <pt x="572" y="738" on="0"/>
        <pt x="632" y="738" on="0"/>
        <pt x="680" y="725" on="0"/>
        <pt x="718" y="678" on="0"/>
        <pt x="719" y="646" on="1"/>
        <pt x="766" y="0" on="1"/>
        <pt x="673" y="0" on="1"/>
        <pt x="627" y="624" on="1"/>
        <pt x="627" y="637" on="0"/>
        <pt x="603" y="641" on="0"/>
        <pt x="600" y="629" on="1"/>
        <pt x="505" y="247" on="1"/>
        <pt x="498" y="215" on="0"/>
        <pt x="470" y="198" on="1"/>
        <pt x="442" y="180" on="0"/>
        <pt x="378" y="180" on="0"/>
        <pt x="321" y="215" on="0"/>
        <pt x="313" y="248" on="1"/>
        <pt x="206" y="630" on="1"/>
        <pt x="204" y="637" on="0"/>
        <pt x="192" y="640" on="0"/>
        <pt x="181" y="631" on="0"/>
        <pt x="180" y="623" on="1"/>
        <pt x="142" y="0" on="1"/>
        <pt x="51" y="0" on="1"/>
        <pt x="90" y="644" on="1"/>
      </contour>
    </TTGlyph>
    <TTGlyph name="N" xMin="74" yMin="0" xMax="624" yMax="732">
      <contour>
        <pt x="75" y="0" on="1"/>
        <pt x="75" y="732" on="1"/>
        <pt x="169" y="732" on="1"/>
        <pt x="532" y="171" on="1"/>
        <pt x="532" y="732" on="1"/>
        <pt x="624" y="732" on="1"/>
        <pt x="624" y="0" on="1"/>
        <pt x="532" y="0" on="1"/>
        <pt x="168" y="560" on="1"/>
        <pt x="168" y="0" on="1"/>
      </contour>
    </TTGlyph>
    <TTGlyph name="N.salt" xMin="74" yMin="-6" xMax="634" yMax="738">
      <contour>
        <pt x="75" y="0" on="1"/>
        <pt x="75" y="640" on="1"/>
        <pt x="75" y="674" on="0"/>
        <pt x="92" y="699" on="1"/>
        <pt x="120" y="737" on="0"/>
        <pt x="178" y="737" on="1"/>
        <pt x="215" y="737" on="0"/>
        <pt x="269" y="697" on="0"/>
        <pt x="279" y="667" on="1"/>
        <pt x="518" y="98" on="1"/>
        <pt x="523" y="85" on="0"/>
        <pt x="542" y="89" on="0"/>
        <pt x="542" y="101" on="1"/>
        <pt x="542" y="732" on="1"/>
        <pt x="634" y="732" on="1"/>
        <pt x="634" y="92" on="1"/>
        <pt x="634" y="66" on="0"/>
        <pt x="621" y="45" on="1"/>
        <pt x="592" y="-6" on="0"/>
        <pt x="528" y="-6" on="1"/>
        <pt x="489" y="-6" on="0"/>
        <pt x="443" y="37" on="0"/>
        <pt x="434" y="65" on="1"/>
        <pt x="193" y="640" on="1"/>
        <pt x="188" y="651" on="0"/>
        <pt x="168" y="645" on="0"/>
        <pt x="168" y="633" on="1"/>
        <pt x="168" y="0" on="1"/>
      </contour>
    </TTGlyph>
    <TTGlyph name="Nacute" xMin="74" yMin="0" xMax="624" yMax="932">
      <contour>
        <pt x="320" y="797" on="1"/>
        <pt x="423" y="932" on="1"/>
        <pt x="525" y="932" on="1"/>
        <pt x="395" y="797" on="1"/>
      </contour>
      <contour>
        <pt x="75" y="0" on="1"/>
        <pt x="75" y="732" on="1"/>
        <pt x="169" y="732" on="1"/>
        <pt x="532" y="171" on="1"/>
        <pt x="532" y="732" on="1"/>
        <pt x="624" y="732" on="1"/>
        <pt x="624" y="0" on="1"/>
        <pt x="532" y="0" on="1"/>
        <pt x="168" y="560" on="1"/>
        <pt x="168" y="0" on="1"/>
      </contour>
    </TTGlyph>
    <TTGlyph name="Nacute.salt" xMin="74" yMin="-6" xMax="634" yMax="933">
      <contour>
        <pt x="332" y="798" on="1"/>
        <pt x="435" y="932" on="1"/>
        <pt x="537" y="932" on="1"/>
        <pt x="407" y="798" on="1"/>
      </contour>
      <contour>
        <pt x="75" y="0" on="1"/>
        <pt x="75" y="640" on="1"/>
        <pt x="75" y="674" on="0"/>
        <pt x="92" y="699" on="1"/>
        <pt x="120" y="737" on="0"/>
        <pt x="178" y="737" on="1"/>
        <pt x="215" y="737" on="0"/>
        <pt x="269" y="697" on="0"/>
        <pt x="279" y="667" on="1"/>
        <pt x="518" y="98" on="1"/>
        <pt x="523" y="85" on="0"/>
        <pt x="542" y="89" on="0"/>
        <pt x="542" y="101" on="1"/>
        <pt x="542" y="732" on="1"/>
        <pt x="634" y="732" on="1"/>
        <pt x="634" y="92" on="1"/>
        <pt x="634" y="61" on="0"/>
        <pt x="617" y="37" on="1"/>
        <pt x="586" y="-6" on="0"/>
        <pt x="524" y="-6" on="1"/>
        <pt x="494" y="-6" on="0"/>
        <pt x="445" y="32" on="0"/>
        <pt x="434" y="65" on="1"/>
        <pt x="193" y="640" on="1"/>
        <pt x="188" y="651" on="0"/>
        <pt x="168" y="645" on="0"/>
        <pt x="168" y="633" on="1"/>
        <pt x="168" y="0" on="1"/>
      </contour>
    </TTGlyph>
    <TTGlyph name="Ncaron" xMin="74" yMin="0" xMax="624" yMax="929">
      <contour>
        <pt x="209" y="928" on="1"/>
        <pt x="287" y="928" on="1"/>
        <pt x="363" y="860" on="1"/>
        <pt x="429" y="928" on="1"/>
        <pt x="506" y="928" on="1"/>
        <pt x="403" y="797" on="1"/>
        <pt x="323" y="797" on="1"/>
      </contour>
      <contour>
        <pt x="75" y="0" on="1"/>
        <pt x="75" y="732" on="1"/>
        <pt x="169" y="732" on="1"/>
        <pt x="532" y="171" on="1"/>
        <pt x="532" y="732" on="1"/>
        <pt x="624" y="732" on="1"/>
        <pt x="624" y="0" on="1"/>
        <pt x="532" y="0" on="1"/>
        <pt x="168" y="560" on="1"/>
        <pt x="168" y="0" on="1"/>
      </contour>
    </TTGlyph>
    <TTGlyph name="Ncaron.salt" xMin="74" yMin="-6" xMax="634" yMax="930">
      <contour>
        <pt x="217" y="929" on="1"/>
        <pt x="295" y="929" on="1"/>
        <pt x="371" y="861" on="1"/>
        <pt x="437" y="929" on="1"/>
        <pt x="514" y="929" on="1"/>
        <pt x="410" y="798" on="1"/>
        <pt x="330" y="798" on="1"/>
      </contour>
      <contour>
        <pt x="75" y="0" on="1"/>
        <pt x="75" y="640" on="1"/>
        <pt x="75" y="674" on="0"/>
        <pt x="92" y="699" on="1"/>
        <pt x="120" y="737" on="0"/>
        <pt x="178" y="737" on="1"/>
        <pt x="215" y="737" on="0"/>
        <pt x="269" y="697" on="0"/>
        <pt x="279" y="667" on="1"/>
        <pt x="518" y="98" on="1"/>
        <pt x="523" y="85" on="0"/>
        <pt x="542" y="89" on="0"/>
        <pt x="542" y="101" on="1"/>
        <pt x="542" y="732" on="1"/>
        <pt x="634" y="732" on="1"/>
        <pt x="634" y="92" on="1"/>
        <pt x="634" y="61" on="0"/>
        <pt x="617" y="37" on="1"/>
        <pt x="586" y="-6" on="0"/>
        <pt x="524" y="-6" on="1"/>
        <pt x="494" y="-6" on="0"/>
        <pt x="445" y="32" on="0"/>
        <pt x="434" y="65" on="1"/>
        <pt x="193" y="640" on="1"/>
        <pt x="188" y="651" on="0"/>
        <pt x="168" y="645" on="0"/>
        <pt x="168" y="633" on="1"/>
        <pt x="168" y="0" on="1"/>
      </contour>
    </TTGlyph>
    <TTGlyph name="Ncommaaccent" xMin="74" yMin="-255" xMax="624" yMax="732">
      <contour>
        <pt x="322" y="-255" on="1"/>
        <pt x="314" y="-255" on="0"/>
        <pt x="303" y="-253" on="1"/>
        <pt x="303" y="-220" on="1"/>
        <pt x="316" y="-220" on="0"/>
        <pt x="322" y="-215" on="1"/>
        <pt x="331" y="-209" on="0"/>
        <pt x="331" y="-194" on="1"/>
        <pt x="331" y="-174" on="1"/>
        <pt x="321" y="-174" on="1"/>
        <pt x="299" y="-174" on="0"/>
        <pt x="299" y="-151" on="1"/>
        <pt x="299" y="-94" on="1"/>
        <pt x="299" y="-70" on="0"/>
        <pt x="321" y="-70" on="1"/>
        <pt x="375" y="-70" on="1"/>
        <pt x="397" y="-70" on="0"/>
        <pt x="397" y="-94" on="1"/>
        <pt x="397" y="-184" on="1"/>
        <pt x="397" y="-255" on="0"/>
      </contour>
      <contour>
        <pt x="75" y="0" on="1"/>
        <pt x="75" y="732" on="1"/>
        <pt x="169" y="732" on="1"/>
        <pt x="532" y="171" on="1"/>
        <pt x="532" y="732" on="1"/>
        <pt x="624" y="732" on="1"/>
        <pt x="624" y="0" on="1"/>
        <pt x="532" y="0" on="1"/>
        <pt x="168" y="560" on="1"/>
        <pt x="168" y="0" on="1"/>
      </contour>
    </TTGlyph>
    <TTGlyph name="Ncommaaccent.salt" xMin="74" yMin="-262" xMax="634" yMax="738">
      <contour>
        <pt x="296" y="-227" on="1"/>
        <pt x="324" y="-228" on="0"/>
        <pt x="324" y="-200" on="1"/>
        <pt x="324" y="-180" on="1"/>
        <pt x="314" y="-180" on="1"/>
        <pt x="292" y="-180" on="0"/>
        <pt x="292" y="-158" on="1"/>
        <pt x="292" y="-101" on="1"/>
        <pt x="292" y="-77" on="0"/>
        <pt x="314" y="-77" on="1"/>
        <pt x="368" y="-77" on="1"/>
        <pt x="390" y="-77" on="0"/>
        <pt x="390" y="-101" on="1"/>
        <pt x="390" y="-190" on="1"/>
        <pt x="390" y="-262" on="0"/>
        <pt x="316" y="-262" on="1"/>
        <pt x="310" y="-262" on="0"/>
        <pt x="296" y="-260" on="1"/>
      </contour>
      <contour>
        <pt x="75" y="0" on="1"/>
        <pt x="75" y="640" on="1"/>
        <pt x="75" y="674" on="0"/>
        <pt x="92" y="699" on="1"/>
        <pt x="120" y="737" on="0"/>
        <pt x="178" y="737" on="1"/>
        <pt x="215" y="737" on="0"/>
        <pt x="269" y="697" on="0"/>
        <pt x="279" y="667" on="1"/>
        <pt x="518" y="98" on="1"/>
        <pt x="523" y="85" on="0"/>
        <pt x="542" y="89" on="0"/>
        <pt x="542" y="101" on="1"/>
        <pt x="542" y="732" on="1"/>
        <pt x="634" y="732" on="1"/>
        <pt x="634" y="92" on="1"/>
        <pt x="634" y="61" on="0"/>
        <pt x="617" y="37" on="1"/>
        <pt x="586" y="-6" on="0"/>
        <pt x="524" y="-6" on="1"/>
        <pt x="494" y="-6" on="0"/>
        <pt x="445" y="32" on="0"/>
        <pt x="434" y="65" on="1"/>
        <pt x="193" y="640" on="1"/>
        <pt x="188" y="651" on="0"/>
        <pt x="168" y="645" on="0"/>
        <pt x="168" y="633" on="1"/>
        <pt x="168" y="0" on="1"/>
      </contour>
    </TTGlyph>
    <TTGlyph name="Ntilde" xMin="74" yMin="0" xMax="624" yMax="909">
      <contour>
        <pt x="407" y="872" on="1"/>
        <pt x="434" y="872" on="0"/>
        <pt x="496" y="909" on="1"/>
        <pt x="519" y="862" on="1"/>
        <pt x="515" y="859" on="0"/>
        <pt x="499" y="845" on="0"/>
        <pt x="489" y="836" on="0"/>
        <pt x="472" y="824" on="0"/>
        <pt x="460" y="815" on="0"/>
        <pt x="443" y="806" on="0"/>
        <pt x="436" y="803" on="1"/>
        <pt x="396" y="789" on="0"/>
        <pt x="344" y="816" on="1"/>
        <pt x="314" y="832" on="0"/>
        <pt x="297" y="832" on="1"/>
        <pt x="269" y="832" on="0"/>
        <pt x="238" y="816" on="0"/>
        <pt x="212" y="801" on="0"/>
        <pt x="201" y="797" on="1"/>
        <pt x="179" y="842" on="1"/>
        <pt x="236" y="892" on="0"/>
        <pt x="267" y="902" on="1"/>
        <pt x="306" y="915" on="0"/>
        <pt x="392" y="873" on="0"/>
        <pt x="406" y="872" on="0"/>
      </contour>
      <contour>
        <pt x="75" y="0" on="1"/>
        <pt x="75" y="732" on="1"/>
        <pt x="169" y="732" on="1"/>
        <pt x="532" y="171" on="1"/>
        <pt x="532" y="732" on="1"/>
        <pt x="624" y="732" on="1"/>
        <pt x="624" y="0" on="1"/>
        <pt x="532" y="0" on="1"/>
        <pt x="168" y="560" on="1"/>
        <pt x="168" y="0" on="1"/>
      </contour>
    </TTGlyph>
    <TTGlyph name="Ntilde.salt" xMin="74" yMin="-6" xMax="634" yMax="910">
      <contour>
        <pt x="422" y="873" on="1"/>
        <pt x="450" y="873" on="0"/>
        <pt x="512" y="910" on="1"/>
        <pt x="535" y="863" on="1"/>
        <pt x="532" y="861" on="0"/>
        <pt x="505" y="838" on="0"/>
        <pt x="495" y="829" on="0"/>
        <pt x="470" y="812" on="0"/>
        <pt x="462" y="808" on="1"/>
        <pt x="415" y="787" on="0"/>
        <pt x="360" y="816" on="1"/>
        <pt x="329" y="833" on="0"/>
        <pt x="313" y="833" on="1"/>
        <pt x="284" y="833" on="0"/>
        <pt x="254" y="816" on="0"/>
        <pt x="227" y="802" on="0"/>
        <pt x="217" y="798" on="1"/>
        <pt x="195" y="842" on="1"/>
        <pt x="252" y="893" on="0"/>
        <pt x="283" y="903" on="1"/>
        <pt x="322" y="916" on="0"/>
        <pt x="408" y="873" on="0"/>
        <pt x="422" y="873" on="0"/>
      </contour>
      <contour>
        <pt x="75" y="0" on="1"/>
        <pt x="75" y="640" on="1"/>
        <pt x="75" y="674" on="0"/>
        <pt x="92" y="699" on="1"/>
        <pt x="120" y="737" on="0"/>
        <pt x="178" y="737" on="1"/>
        <pt x="215" y="737" on="0"/>
        <pt x="269" y="697" on="0"/>
        <pt x="279" y="667" on="1"/>
        <pt x="518" y="98" on="1"/>
        <pt x="523" y="85" on="0"/>
        <pt x="542" y="89" on="0"/>
        <pt x="542" y="101" on="1"/>
        <pt x="542" y="732" on="1"/>
        <pt x="634" y="732" on="1"/>
        <pt x="634" y="92" on="1"/>
        <pt x="634" y="61" on="0"/>
        <pt x="617" y="37" on="1"/>
        <pt x="586" y="-6" on="0"/>
        <pt x="524" y="-6" on="1"/>
        <pt x="494" y="-6" on="0"/>
        <pt x="445" y="32" on="0"/>
        <pt x="434" y="65" on="1"/>
        <pt x="193" y="640" on="1"/>
        <pt x="188" y="651" on="0"/>
        <pt x="168" y="645" on="0"/>
        <pt x="168" y="633" on="1"/>
        <pt x="168" y="0" on="1"/>
      </contour>
    </TTGlyph>
    <TTGlyph name="O" xMin="60" yMin="-4" xMax="633" yMax="737">
      <contour>
        <pt x="61" y="376" on="1"/>
        <pt x="61" y="461" on="0"/>
        <pt x="90" y="602" on="0"/>
        <pt x="135" y="681" on="0"/>
        <pt x="215" y="725" on="0"/>
        <pt x="290" y="737" on="0"/>
        <pt x="389" y="737" on="0"/>
        <pt x="448" y="731" on="0"/>
        <pt x="511" y="713" on="0"/>
        <pt x="554" y="681" on="0"/>
        <pt x="595" y="625" on="0"/>
        <pt x="607" y="586" on="1"/>
        <pt x="633" y="499" on="0"/>
        <pt x="633" y="361" on="1"/>
        <pt x="633" y="199" on="0"/>
        <pt x="598" y="123" on="1"/>
        <pt x="581" y="83" on="0"/>
        <pt x="536" y="32" on="0"/>
        <pt x="501" y="19" on="1"/>
        <pt x="442" y="-4" on="0"/>
        <pt x="348" y="-4" on="1"/>
        <pt x="211" y="-4" on="0"/>
        <pt x="159" y="35" on="1"/>
        <pt x="106" y="74" on="0"/>
        <pt x="86" y="143" on="1"/>
        <pt x="61" y="227" on="0"/>
      </contour>
      <contour>
        <pt x="156" y="472" on="0"/>
        <pt x="153" y="403" on="0"/>
        <pt x="153" y="308" on="0"/>
        <pt x="159" y="231" on="0"/>
        <pt x="171" y="171" on="0"/>
        <pt x="194" y="131" on="0"/>
        <pt x="222" y="104" on="0"/>
        <pt x="244" y="97" on="1"/>
        <pt x="283" y="85" on="0"/>
        <pt x="386" y="85" on="0"/>
        <pt x="439" y="93" on="0"/>
        <pt x="485" y="116" on="0"/>
        <pt x="513" y="154" on="0"/>
        <pt x="523" y="185" on="1"/>
        <pt x="541" y="241" on="0"/>
        <pt x="541" y="361" on="1"/>
        <pt x="541" y="450" on="0"/>
        <pt x="528" y="525" on="0"/>
        <pt x="519" y="567" on="0"/>
        <pt x="501" y="598" on="0"/>
        <pt x="485" y="620" on="0"/>
        <pt x="457" y="635" on="0"/>
        <pt x="436" y="643" on="0"/>
        <pt x="417" y="645" on="1"/>
        <pt x="389" y="648" on="0"/>
        <pt x="325" y="648" on="0"/>
        <pt x="298" y="647" on="0"/>
        <pt x="260" y="643" on="0"/>
        <pt x="239" y="635" on="0"/>
        <pt x="211" y="621" on="0"/>
        <pt x="195" y="599" on="0"/>
        <pt x="176" y="568" on="0"/>
        <pt x="166" y="526" on="0"/>
      </contour>
    </TTGlyph>
    <TTGlyph name="OE" xMin="60" yMin="-4" xMax="992" yMax="737">
      <contour>
        <pt x="156" y="472" on="0"/>
        <pt x="153" y="403" on="0"/>
        <pt x="153" y="300" on="0"/>
        <pt x="160" y="214" on="0"/>
        <pt x="180" y="151" on="0"/>
        <pt x="207" y="114" on="0"/>
        <pt x="231" y="103" on="1"/>
        <pt x="269" y="85" on="0"/>
        <pt x="393" y="85" on="0"/>
        <pt x="453" y="98" on="0"/>
        <pt x="502" y="131" on="0"/>
        <pt x="515" y="163" on="1"/>
        <pt x="541" y="226" on="0"/>
        <pt x="541" y="361" on="1"/>
        <pt x="541" y="450" on="0"/>
        <pt x="528" y="525" on="0"/>
        <pt x="519" y="567" on="0"/>
        <pt x="500" y="598" on="0"/>
        <pt x="485" y="620" on="0"/>
        <pt x="457" y="635" on="0"/>
        <pt x="435" y="643" on="0"/>
        <pt x="416" y="645" on="1"/>
        <pt x="389" y="648" on="0"/>
        <pt x="324" y="648" on="0"/>
        <pt x="297" y="647" on="0"/>
        <pt x="260" y="643" on="0"/>
        <pt x="238" y="635" on="0"/>
        <pt x="210" y="621" on="0"/>
        <pt x="194" y="599" on="0"/>
        <pt x="175" y="568" on="0"/>
        <pt x="166" y="526" on="0"/>
      </contour>
      <contour>
        <pt x="559" y="670" on="1"/>
        <pt x="587" y="732" on="0"/>
        <pt x="666" y="732" on="1"/>
        <pt x="671" y="732" on="0"/>
        <pt x="974" y="718" on="0"/>
        <pt x="991" y="716" on="1"/>
        <pt x="991" y="642" on="1"/>
        <pt x="685" y="642" on="1"/>
        <pt x="647" y="642" on="0"/>
        <pt x="639" y="624" on="1"/>
        <pt x="633" y="610" on="0"/>
        <pt x="633" y="586" on="1"/>
        <pt x="633" y="410" on="1"/>
        <pt x="950" y="399" on="1"/>
        <pt x="950" y="325" on="1"/>
        <pt x="633" y="315" on="1"/>
        <pt x="633" y="139" on="1"/>
        <pt x="633" y="97" on="0"/>
        <pt x="661" y="90" on="1"/>
        <pt x="673" y="87" on="0"/>
        <pt x="695" y="87" on="1"/>
        <pt x="991" y="87" on="1"/>
        <pt x="991" y="14" on="1"/>
        <pt x="686" y="-3" on="1"/>
        <pt x="678" y="-3" on="0"/>
        <pt x="671" y="-3" on="1"/>
        <pt x="582" y="-3" on="0"/>
        <pt x="556" y="60" on="1"/>
        <pt x="513" y="11" on="0"/>
        <pt x="432" y="1" on="1"/>
        <pt x="396" y="-4" on="0"/>
        <pt x="304" y="-4" on="0"/>
        <pt x="244" y="1" on="0"/>
        <pt x="180" y="19" on="0"/>
        <pt x="137" y="51" on="0"/>
        <pt x="97" y="104" on="0"/>
        <pt x="86" y="143" on="1"/>
        <pt x="61" y="227" on="0"/>
        <pt x="61" y="361" on="1"/>
        <pt x="61" y="491" on="0"/>
        <pt x="82" y="565" on="1"/>
        <pt x="106" y="646" on="0"/>
        <pt x="141" y="678" on="1"/>
        <pt x="184" y="716" on="0"/>
        <pt x="222" y="724" on="1"/>
        <pt x="280" y="737" on="0"/>
        <pt x="397" y="737" on="0"/>
        <pt x="432" y="733" on="1"/>
        <pt x="515" y="722" on="0"/>
      </contour>
    </TTGlyph>
    <TTGlyph name="Oacute" xMin="60" yMin="-4" xMax="633" yMax="932">
      <contour>
        <pt x="310" y="797" on="1"/>
        <pt x="413" y="932" on="1"/>
        <pt x="515" y="932" on="1"/>
        <pt x="385" y="797" on="1"/>
      </contour>
      <contour>
        <pt x="61" y="362" on="1"/>
        <pt x="61" y="433" on="0"/>
        <pt x="76" y="546" on="0"/>
        <pt x="100" y="625" on="0"/>
        <pt x="142" y="681" on="0"/>
        <pt x="186" y="713" on="0"/>
        <pt x="218" y="722" on="1"/>
        <pt x="269" y="737" on="0"/>
        <pt x="389" y="737" on="0"/>
        <pt x="448" y="731" on="0"/>
        <pt x="511" y="713" on="0"/>
        <pt x="554" y="681" on="0"/>
        <pt x="595" y="625" on="0"/>
        <pt x="607" y="586" on="1"/>
        <pt x="633" y="499" on="0"/>
        <pt x="633" y="361" on="1"/>
        <pt x="633" y="199" on="0"/>
        <pt x="598" y="123" on="1"/>
        <pt x="581" y="83" on="0"/>
        <pt x="536" y="32" on="0"/>
        <pt x="501" y="19" on="1"/>
        <pt x="442" y="-4" on="0"/>
        <pt x="348" y="-4" on="1"/>
        <pt x="211" y="-4" on="0"/>
        <pt x="159" y="35" on="1"/>
        <pt x="106" y="74" on="0"/>
        <pt x="86" y="143" on="1"/>
        <pt x="61" y="227" on="0"/>
      </contour>
      <contour>
        <pt x="171" y="554" on="0"/>
        <pt x="153" y="444" on="0"/>
        <pt x="153" y="320" on="0"/>
        <pt x="157" y="256" on="0"/>
        <pt x="164" y="202" on="0"/>
        <pt x="177" y="162" on="0"/>
        <pt x="193" y="131" on="0"/>
        <pt x="217" y="110" on="0"/>
        <pt x="244" y="96" on="0"/>
        <pt x="263" y="92" on="1"/>
        <pt x="297" y="85" on="0"/>
        <pt x="394" y="85" on="0"/>
        <pt x="454" y="98" on="0"/>
        <pt x="502" y="131" on="0"/>
        <pt x="515" y="163" on="1"/>
        <pt x="541" y="226" on="0"/>
        <pt x="541" y="361" on="1"/>
        <pt x="541" y="450" on="0"/>
        <pt x="528" y="525" on="0"/>
        <pt x="519" y="567" on="0"/>
        <pt x="501" y="598" on="0"/>
        <pt x="485" y="620" on="0"/>
        <pt x="457" y="635" on="0"/>
        <pt x="436" y="643" on="0"/>
        <pt x="417" y="645" on="1"/>
        <pt x="389" y="648" on="0"/>
        <pt x="301" y="648" on="0"/>
        <pt x="254" y="642" on="0"/>
        <pt x="197" y="613" on="0"/>
      </contour>
    </TTGlyph>
    <TTGlyph name="Ocircumflex" xMin="60" yMin="-4" xMax="633" yMax="929">
      <contour>
        <pt x="199" y="797" on="1"/>
        <pt x="314" y="928" on="1"/>
        <pt x="394" y="928" on="1"/>
        <pt x="496" y="797" on="1"/>
        <pt x="419" y="797" on="1"/>
        <pt x="351" y="865" on="1"/>
        <pt x="277" y="797" on="1"/>
      </contour>
      <contour>
        <pt x="61" y="362" on="1"/>
        <pt x="61" y="433" on="0"/>
        <pt x="76" y="546" on="0"/>
        <pt x="100" y="625" on="0"/>
        <pt x="142" y="681" on="0"/>
        <pt x="186" y="713" on="0"/>
        <pt x="218" y="722" on="1"/>
        <pt x="269" y="737" on="0"/>
        <pt x="389" y="737" on="0"/>
        <pt x="448" y="731" on="0"/>
        <pt x="511" y="713" on="0"/>
        <pt x="554" y="681" on="0"/>
        <pt x="595" y="625" on="0"/>
        <pt x="607" y="586" on="1"/>
        <pt x="633" y="499" on="0"/>
        <pt x="633" y="361" on="1"/>
        <pt x="633" y="199" on="0"/>
        <pt x="598" y="123" on="1"/>
        <pt x="581" y="83" on="0"/>
        <pt x="536" y="32" on="0"/>
        <pt x="501" y="19" on="1"/>
        <pt x="442" y="-4" on="0"/>
        <pt x="348" y="-4" on="1"/>
        <pt x="211" y="-4" on="0"/>
        <pt x="159" y="35" on="1"/>
        <pt x="106" y="74" on="0"/>
        <pt x="86" y="143" on="1"/>
        <pt x="61" y="227" on="0"/>
      </contour>
      <contour>
        <pt x="171" y="554" on="0"/>
        <pt x="153" y="444" on="0"/>
        <pt x="153" y="320" on="0"/>
        <pt x="157" y="256" on="0"/>
        <pt x="164" y="202" on="0"/>
        <pt x="177" y="162" on="0"/>
        <pt x="193" y="131" on="0"/>
        <pt x="217" y="110" on="0"/>
        <pt x="244" y="96" on="0"/>
        <pt x="263" y="92" on="1"/>
        <pt x="297" y="85" on="0"/>
        <pt x="394" y="85" on="0"/>
        <pt x="454" y="98" on="0"/>
        <pt x="502" y="131" on="0"/>
        <pt x="515" y="163" on="1"/>
        <pt x="541" y="226" on="0"/>
        <pt x="541" y="361" on="1"/>
        <pt x="541" y="450" on="0"/>
        <pt x="528" y="525" on="0"/>
        <pt x="519" y="567" on="0"/>
        <pt x="501" y="598" on="0"/>
        <pt x="485" y="620" on="0"/>
        <pt x="457" y="635" on="0"/>
        <pt x="436" y="643" on="0"/>
        <pt x="417" y="645" on="1"/>
        <pt x="389" y="648" on="0"/>
        <pt x="301" y="648" on="0"/>
        <pt x="254" y="642" on="0"/>
        <pt x="197" y="613" on="0"/>
      </contour>
    </TTGlyph>
    <TTGlyph name="Odieresis" xMin="60" yMin="-4" xMax="633" yMax="903">
      <contour>
        <pt x="167" y="828" on="0"/>
        <pt x="167" y="872" on="0"/>
        <pt x="199" y="902" on="0"/>
        <pt x="243" y="902" on="0"/>
        <pt x="273" y="872" on="0"/>
        <pt x="273" y="828" on="0"/>
        <pt x="242" y="797" on="0"/>
        <pt x="199" y="797" on="0"/>
      </contour>
      <contour>
        <pt x="422" y="828" on="0"/>
        <pt x="422" y="872" on="0"/>
        <pt x="454" y="902" on="0"/>
        <pt x="498" y="902" on="0"/>
        <pt x="528" y="872" on="0"/>
        <pt x="528" y="828" on="0"/>
        <pt x="497" y="797" on="0"/>
        <pt x="454" y="797" on="0"/>
      </contour>
      <contour>
        <pt x="61" y="362" on="1"/>
        <pt x="61" y="433" on="0"/>
        <pt x="76" y="546" on="0"/>
        <pt x="100" y="625" on="0"/>
        <pt x="142" y="681" on="0"/>
        <pt x="186" y="713" on="0"/>
        <pt x="218" y="722" on="1"/>
        <pt x="269" y="737" on="0"/>
        <pt x="389" y="737" on="0"/>
        <pt x="448" y="731" on="0"/>
        <pt x="511" y="713" on="0"/>
        <pt x="554" y="681" on="0"/>
        <pt x="595" y="625" on="0"/>
        <pt x="607" y="586" on="1"/>
        <pt x="633" y="499" on="0"/>
        <pt x="633" y="361" on="1"/>
        <pt x="633" y="199" on="0"/>
        <pt x="598" y="123" on="1"/>
        <pt x="581" y="83" on="0"/>
        <pt x="536" y="32" on="0"/>
        <pt x="501" y="19" on="1"/>
        <pt x="442" y="-4" on="0"/>
        <pt x="348" y="-4" on="1"/>
        <pt x="211" y="-4" on="0"/>
        <pt x="159" y="35" on="1"/>
        <pt x="106" y="74" on="0"/>
        <pt x="86" y="143" on="1"/>
        <pt x="61" y="227" on="0"/>
      </contour>
      <contour>
        <pt x="171" y="554" on="0"/>
        <pt x="153" y="444" on="0"/>
        <pt x="153" y="320" on="0"/>
        <pt x="157" y="256" on="0"/>
        <pt x="164" y="202" on="0"/>
        <pt x="177" y="162" on="0"/>
        <pt x="193" y="131" on="0"/>
        <pt x="217" y="110" on="0"/>
        <pt x="244" y="96" on="0"/>
        <pt x="263" y="92" on="1"/>
        <pt x="297" y="85" on="0"/>
        <pt x="394" y="85" on="0"/>
        <pt x="454" y="98" on="0"/>
        <pt x="502" y="131" on="0"/>
        <pt x="515" y="163" on="1"/>
        <pt x="541" y="226" on="0"/>
        <pt x="541" y="361" on="1"/>
        <pt x="541" y="450" on="0"/>
        <pt x="528" y="525" on="0"/>
        <pt x="519" y="567" on="0"/>
        <pt x="501" y="598" on="0"/>
        <pt x="485" y="620" on="0"/>
        <pt x="457" y="635" on="0"/>
        <pt x="436" y="643" on="0"/>
        <pt x="417" y="645" on="1"/>
        <pt x="389" y="648" on="0"/>
        <pt x="301" y="648" on="0"/>
        <pt x="254" y="642" on="0"/>
        <pt x="197" y="613" on="0"/>
      </contour>
    </TTGlyph>
    <TTGlyph name="Ograve" xMin="60" yMin="-4" xMax="633" yMax="932">
      <contour>
        <pt x="180" y="932" on="1"/>
        <pt x="283" y="932" on="1"/>
        <pt x="385" y="797" on="1"/>
        <pt x="310" y="797" on="1"/>
      </contour>
      <contour>
        <pt x="61" y="362" on="1"/>
        <pt x="61" y="433" on="0"/>
        <pt x="76" y="546" on="0"/>
        <pt x="100" y="625" on="0"/>
        <pt x="142" y="681" on="0"/>
        <pt x="186" y="713" on="0"/>
        <pt x="218" y="722" on="1"/>
        <pt x="269" y="737" on="0"/>
        <pt x="389" y="737" on="0"/>
        <pt x="448" y="731" on="0"/>
        <pt x="511" y="713" on="0"/>
        <pt x="554" y="681" on="0"/>
        <pt x="595" y="625" on="0"/>
        <pt x="607" y="586" on="1"/>
        <pt x="633" y="499" on="0"/>
        <pt x="633" y="361" on="1"/>
        <pt x="633" y="199" on="0"/>
        <pt x="598" y="123" on="1"/>
        <pt x="581" y="83" on="0"/>
        <pt x="536" y="32" on="0"/>
        <pt x="501" y="19" on="1"/>
        <pt x="442" y="-4" on="0"/>
        <pt x="348" y="-4" on="1"/>
        <pt x="211" y="-4" on="0"/>
        <pt x="159" y="35" on="1"/>
        <pt x="106" y="74" on="0"/>
        <pt x="86" y="143" on="1"/>
        <pt x="61" y="227" on="0"/>
      </contour>
      <contour>
        <pt x="171" y="554" on="0"/>
        <pt x="153" y="444" on="0"/>
        <pt x="153" y="320" on="0"/>
        <pt x="157" y="256" on="0"/>
        <pt x="164" y="202" on="0"/>
        <pt x="177" y="162" on="0"/>
        <pt x="193" y="131" on="0"/>
        <pt x="217" y="110" on="0"/>
        <pt x="244" y="96" on="0"/>
        <pt x="263" y="92" on="1"/>
        <pt x="297" y="85" on="0"/>
        <pt x="394" y="85" on="0"/>
        <pt x="454" y="98" on="0"/>
        <pt x="502" y="131" on="0"/>
        <pt x="515" y="163" on="1"/>
        <pt x="541" y="226" on="0"/>
        <pt x="541" y="361" on="1"/>
        <pt x="541" y="450" on="0"/>
        <pt x="528" y="525" on="0"/>
        <pt x="519" y="567" on="0"/>
        <pt x="501" y="598" on="0"/>
        <pt x="485" y="620" on="0"/>
        <pt x="457" y="635" on="0"/>
        <pt x="436" y="643" on="0"/>
        <pt x="417" y="645" on="1"/>
        <pt x="389" y="648" on="0"/>
        <pt x="301" y="648" on="0"/>
        <pt x="254" y="642" on="0"/>
        <pt x="197" y="613" on="0"/>
      </contour>
    </TTGlyph>
    <TTGlyph name="Ohungarumlaut" xMin="60" yMin="-4" xMax="633" yMax="932">
      <contour>
        <pt x="240" y="797" on="1"/>
        <pt x="342" y="932" on="1"/>
        <pt x="445" y="932" on="1"/>
        <pt x="315" y="797" on="1"/>
      </contour>
      <contour>
        <pt x="380" y="797" on="1"/>
        <pt x="483" y="932" on="1"/>
        <pt x="586" y="932" on="1"/>
        <pt x="456" y="797" on="1"/>
      </contour>
      <contour>
        <pt x="61" y="362" on="1"/>
        <pt x="61" y="433" on="0"/>
        <pt x="76" y="546" on="0"/>
        <pt x="100" y="625" on="0"/>
        <pt x="142" y="681" on="0"/>
        <pt x="186" y="713" on="0"/>
        <pt x="218" y="722" on="1"/>
        <pt x="269" y="737" on="0"/>
        <pt x="389" y="737" on="0"/>
        <pt x="448" y="731" on="0"/>
        <pt x="511" y="713" on="0"/>
        <pt x="554" y="681" on="0"/>
        <pt x="595" y="625" on="0"/>
        <pt x="607" y="586" on="1"/>
        <pt x="633" y="499" on="0"/>
        <pt x="633" y="361" on="1"/>
        <pt x="633" y="199" on="0"/>
        <pt x="598" y="123" on="1"/>
        <pt x="581" y="83" on="0"/>
        <pt x="536" y="32" on="0"/>
        <pt x="501" y="19" on="1"/>
        <pt x="442" y="-4" on="0"/>
        <pt x="348" y="-4" on="1"/>
        <pt x="211" y="-4" on="0"/>
        <pt x="159" y="35" on="1"/>
        <pt x="106" y="74" on="0"/>
        <pt x="86" y="143" on="1"/>
        <pt x="61" y="227" on="0"/>
      </contour>
      <contour>
        <pt x="171" y="554" on="0"/>
        <pt x="153" y="444" on="0"/>
        <pt x="153" y="320" on="0"/>
        <pt x="157" y="256" on="0"/>
        <pt x="164" y="202" on="0"/>
        <pt x="177" y="162" on="0"/>
        <pt x="193" y="131" on="0"/>
        <pt x="217" y="110" on="0"/>
        <pt x="244" y="96" on="0"/>
        <pt x="263" y="92" on="1"/>
        <pt x="297" y="85" on="0"/>
        <pt x="394" y="85" on="0"/>
        <pt x="454" y="98" on="0"/>
        <pt x="502" y="131" on="0"/>
        <pt x="515" y="163" on="1"/>
        <pt x="541" y="226" on="0"/>
        <pt x="541" y="361" on="1"/>
        <pt x="541" y="450" on="0"/>
        <pt x="528" y="525" on="0"/>
        <pt x="519" y="567" on="0"/>
        <pt x="501" y="598" on="0"/>
        <pt x="485" y="620" on="0"/>
        <pt x="457" y="635" on="0"/>
        <pt x="436" y="643" on="0"/>
        <pt x="417" y="645" on="1"/>
        <pt x="389" y="648" on="0"/>
        <pt x="301" y="648" on="0"/>
        <pt x="254" y="642" on="0"/>
        <pt x="197" y="613" on="0"/>
      </contour>
    </TTGlyph>
    <TTGlyph name="Omacron" xMin="60" yMin="-4" xMax="633" yMax="865">
      <contour>
        <pt x="202" y="797" on="1"/>
        <pt x="202" y="864" on="1"/>
        <pt x="494" y="864" on="1"/>
        <pt x="494" y="797" on="1"/>
      </contour>
      <contour>
        <pt x="61" y="362" on="1"/>
        <pt x="61" y="433" on="0"/>
        <pt x="76" y="546" on="0"/>
        <pt x="100" y="625" on="0"/>
        <pt x="142" y="681" on="0"/>
        <pt x="186" y="713" on="0"/>
        <pt x="218" y="722" on="1"/>
        <pt x="269" y="737" on="0"/>
        <pt x="389" y="737" on="0"/>
        <pt x="448" y="731" on="0"/>
        <pt x="511" y="713" on="0"/>
        <pt x="554" y="681" on="0"/>
        <pt x="595" y="625" on="0"/>
        <pt x="607" y="586" on="1"/>
        <pt x="633" y="499" on="0"/>
        <pt x="633" y="361" on="1"/>
        <pt x="633" y="199" on="0"/>
        <pt x="598" y="123" on="1"/>
        <pt x="581" y="83" on="0"/>
        <pt x="536" y="32" on="0"/>
        <pt x="501" y="19" on="1"/>
        <pt x="442" y="-4" on="0"/>
        <pt x="348" y="-4" on="1"/>
        <pt x="211" y="-4" on="0"/>
        <pt x="159" y="35" on="1"/>
        <pt x="106" y="74" on="0"/>
        <pt x="86" y="143" on="1"/>
        <pt x="61" y="227" on="0"/>
      </contour>
      <contour>
        <pt x="171" y="554" on="0"/>
        <pt x="153" y="444" on="0"/>
        <pt x="153" y="320" on="0"/>
        <pt x="157" y="256" on="0"/>
        <pt x="164" y="202" on="0"/>
        <pt x="177" y="162" on="0"/>
        <pt x="193" y="131" on="0"/>
        <pt x="217" y="110" on="0"/>
        <pt x="244" y="96" on="0"/>
        <pt x="263" y="92" on="1"/>
        <pt x="297" y="85" on="0"/>
        <pt x="394" y="85" on="0"/>
        <pt x="454" y="98" on="0"/>
        <pt x="502" y="131" on="0"/>
        <pt x="515" y="163" on="1"/>
        <pt x="541" y="226" on="0"/>
        <pt x="541" y="361" on="1"/>
        <pt x="541" y="450" on="0"/>
        <pt x="528" y="525" on="0"/>
        <pt x="519" y="567" on="0"/>
        <pt x="501" y="598" on="0"/>
        <pt x="485" y="620" on="0"/>
        <pt x="457" y="635" on="0"/>
        <pt x="436" y="643" on="0"/>
        <pt x="417" y="645" on="1"/>
        <pt x="389" y="648" on="0"/>
        <pt x="301" y="648" on="0"/>
        <pt x="254" y="642" on="0"/>
        <pt x="197" y="613" on="0"/>
      </contour>
    </TTGlyph>
    <TTGlyph name="Omega" xMin="60" yMin="0" xMax="715" yMax="739">
      <contour>
        <pt x="61" y="325" on="0"/>
        <pt x="61" y="358" on="0"/>
        <pt x="61" y="430" on="0"/>
        <pt x="73" y="508" on="0"/>
        <pt x="101" y="589" on="0"/>
        <pt x="152" y="656" on="0"/>
        <pt x="186" y="682" on="1"/>
        <pt x="260" y="739" on="0"/>
        <pt x="388" y="739" on="1"/>
        <pt x="592" y="739" on="0"/>
        <pt x="667" y="588" on="1"/>
        <pt x="709" y="504" on="0"/>
        <pt x="709" y="384" on="1"/>
        <pt x="709" y="256" on="0"/>
        <pt x="680" y="194" on="1"/>
        <pt x="651" y="134" on="0"/>
        <pt x="592" y="90" on="1"/>
        <pt x="714" y="80" on="1"/>
        <pt x="714" y="0" on="1"/>
        <pt x="480" y="0" on="1"/>
        <pt x="480" y="92" on="1"/>
        <pt x="586" y="164" on="0"/>
        <pt x="606" y="253" on="1"/>
        <pt x="617" y="303" on="0"/>
        <pt x="617" y="385" on="1"/>
        <pt x="617" y="650" on="0"/>
        <pt x="388" y="650" on="1"/>
        <pt x="153" y="650" on="0"/>
        <pt x="153" y="380" on="1"/>
        <pt x="153" y="301" on="0"/>
        <pt x="170" y="226" on="0"/>
        <pt x="185" y="203" on="1"/>
        <pt x="220" y="149" on="0"/>
        <pt x="293" y="92" on="1"/>
        <pt x="293" y="0" on="1"/>
        <pt x="67" y="0" on="1"/>
        <pt x="67" y="82" on="1"/>
        <pt x="194" y="92" on="1"/>
        <pt x="111" y="145" on="0"/>
        <pt x="86" y="210" on="1"/>
        <pt x="67" y="256" on="0"/>
      </contour>
    </TTGlyph>
    <TTGlyph name="Oslash" xMin="62" yMin="-5" xMax="635" yMax="738">
      <contour>
        <pt x="121" y="653" on="1"/>
        <pt x="142" y="681" on="0"/>
        <pt x="185" y="713" on="0"/>
        <pt x="217" y="722" on="1"/>
        <pt x="268" y="737" on="0"/>
        <pt x="410" y="737" on="0"/>
        <pt x="496" y="722" on="0"/>
        <pt x="529" y="700" on="1"/>
        <pt x="550" y="732" on="1"/>
        <pt x="615" y="732" on="1"/>
        <pt x="569" y="662" on="1"/>
        <pt x="634" y="578" on="0"/>
        <pt x="634" y="361" on="1"/>
        <pt x="634" y="130" on="0"/>
        <pt x="558" y="57" on="1"/>
        <pt x="518" y="19" on="0"/>
        <pt x="419" y="-4" on="0"/>
        <pt x="283" y="-4" on="0"/>
        <pt x="193" y="12" on="0"/>
        <pt x="160" y="35" on="1"/>
        <pt x="137" y="0" on="1"/>
        <pt x="72" y="0" on="1"/>
        <pt x="120" y="74" on="1"/>
        <pt x="62" y="155" on="0"/>
        <pt x="62" y="573" on="0"/>
      </contour>
      <contour>
        <pt x="181" y="165" on="1"/>
        <pt x="478" y="624" on="1"/>
        <pt x="451" y="644" on="0"/>
        <pt x="401" y="647" on="1"/>
        <pt x="382" y="648" on="0"/>
        <pt x="325" y="648" on="0"/>
        <pt x="298" y="647" on="0"/>
        <pt x="261" y="643" on="0"/>
        <pt x="240" y="635" on="0"/>
        <pt x="211" y="621" on="0"/>
        <pt x="196" y="599" on="0"/>
        <pt x="177" y="568" on="0"/>
        <pt x="167" y="526" on="0"/>
        <pt x="162" y="499" on="1"/>
        <pt x="154" y="451" on="0"/>
        <pt x="154" y="220" on="0"/>
      </contour>
      <contour>
        <pt x="479" y="114" on="1"/>
        <pt x="542" y="158" on="0"/>
        <pt x="542" y="361" on="1"/>
        <pt x="542" y="516" on="0"/>
        <pt x="512" y="577" on="1"/>
        <pt x="213" y="115" on="1"/>
        <pt x="251" y="85" on="0"/>
        <pt x="436" y="85" on="0"/>
      </contour>
    </TTGlyph>
    <TTGlyph name="Otilde" xMin="60" yMin="-4" xMax="633" yMax="909">
      <contour>
        <pt x="405" y="872" on="1"/>
        <pt x="432" y="872" on="0"/>
        <pt x="495" y="909" on="1"/>
        <pt x="517" y="862" on="1"/>
        <pt x="515" y="860" on="0"/>
        <pt x="488" y="837" on="0"/>
        <pt x="478" y="829" on="0"/>
        <pt x="453" y="811" on="0"/>
        <pt x="444" y="808" on="1"/>
        <pt x="398" y="787" on="0"/>
        <pt x="343" y="816" on="1"/>
        <pt x="312" y="832" on="0"/>
        <pt x="295" y="832" on="1"/>
        <pt x="266" y="832" on="0"/>
        <pt x="237" y="816" on="1"/>
        <pt x="210" y="801" on="0"/>
        <pt x="200" y="797" on="1"/>
        <pt x="178" y="842" on="1"/>
        <pt x="235" y="892" on="0"/>
        <pt x="266" y="902" on="1"/>
        <pt x="305" y="915" on="0"/>
        <pt x="391" y="873" on="0"/>
        <pt x="404" y="872" on="0"/>
      </contour>
      <contour>
        <pt x="61" y="362" on="1"/>
        <pt x="61" y="433" on="0"/>
        <pt x="76" y="546" on="0"/>
        <pt x="100" y="625" on="0"/>
        <pt x="142" y="681" on="0"/>
        <pt x="186" y="713" on="0"/>
        <pt x="218" y="722" on="1"/>
        <pt x="269" y="737" on="0"/>
        <pt x="389" y="737" on="0"/>
        <pt x="448" y="731" on="0"/>
        <pt x="511" y="713" on="0"/>
        <pt x="554" y="681" on="0"/>
        <pt x="595" y="625" on="0"/>
        <pt x="607" y="586" on="1"/>
        <pt x="633" y="499" on="0"/>
        <pt x="633" y="361" on="1"/>
        <pt x="633" y="199" on="0"/>
        <pt x="598" y="123" on="1"/>
        <pt x="581" y="83" on="0"/>
        <pt x="536" y="32" on="0"/>
        <pt x="501" y="19" on="1"/>
        <pt x="442" y="-4" on="0"/>
        <pt x="348" y="-4" on="1"/>
        <pt x="211" y="-4" on="0"/>
        <pt x="159" y="35" on="1"/>
        <pt x="106" y="74" on="0"/>
        <pt x="86" y="143" on="1"/>
        <pt x="61" y="227" on="0"/>
      </contour>
      <contour>
        <pt x="171" y="554" on="0"/>
        <pt x="153" y="444" on="0"/>
        <pt x="153" y="320" on="0"/>
        <pt x="157" y="256" on="0"/>
        <pt x="164" y="202" on="0"/>
        <pt x="177" y="162" on="0"/>
        <pt x="193" y="131" on="0"/>
        <pt x="217" y="110" on="0"/>
        <pt x="244" y="96" on="0"/>
        <pt x="263" y="92" on="1"/>
        <pt x="297" y="85" on="0"/>
        <pt x="394" y="85" on="0"/>
        <pt x="454" y="98" on="0"/>
        <pt x="502" y="131" on="0"/>
        <pt x="515" y="163" on="1"/>
        <pt x="541" y="226" on="0"/>
        <pt x="541" y="361" on="1"/>
        <pt x="541" y="450" on="0"/>
        <pt x="528" y="525" on="0"/>
        <pt x="519" y="567" on="0"/>
        <pt x="501" y="598" on="0"/>
        <pt x="485" y="620" on="0"/>
        <pt x="457" y="635" on="0"/>
        <pt x="436" y="643" on="0"/>
        <pt x="417" y="645" on="1"/>
        <pt x="389" y="648" on="0"/>
        <pt x="301" y="648" on="0"/>
        <pt x="254" y="642" on="0"/>
        <pt x="197" y="613" on="0"/>
      </contour>
    </TTGlyph>
    <TTGlyph name="P" xMin="57" yMin="0" xMax="545" yMax="733">
      <contour>
        <pt x="58" y="0" on="1"/>
        <pt x="58" y="732" on="1"/>
        <pt x="362" y="732" on="1"/>
        <pt x="545" y="732" on="0"/>
        <pt x="545" y="516" on="1"/>
        <pt x="545" y="327" on="0"/>
        <pt x="432" y="298" on="1"/>
        <pt x="404" y="290" on="0"/>
        <pt x="366" y="290" on="0"/>
        <pt x="334" y="291" on="0"/>
        <pt x="154" y="308" on="0"/>
        <pt x="150" y="310" on="1"/>
        <pt x="150" y="0" on="1"/>
      </contour>
      <contour>
        <pt x="359" y="644" on="1"/>
        <pt x="150" y="644" on="1"/>
        <pt x="150" y="378" on="1"/>
        <pt x="359" y="378" on="1"/>
        <pt x="400" y="378" on="0"/>
        <pt x="424" y="401" on="1"/>
        <pt x="452" y="429" on="0"/>
        <pt x="452" y="516" on="1"/>
        <pt x="451" y="600" on="0"/>
        <pt x="418" y="625" on="1"/>
        <pt x="392" y="644" on="0"/>
      </contour>
    </TTGlyph>
    <TTGlyph name="Q" xMin="60" yMin="-154" xMax="633" yMax="737">
      <contour>
        <pt x="61" y="299" on="0"/>
        <pt x="61" y="433" on="0"/>
        <pt x="75" y="546" on="0"/>
        <pt x="99" y="625" on="0"/>
        <pt x="140" y="681" on="0"/>
        <pt x="183" y="713" on="0"/>
        <pt x="215" y="722" on="1"/>
        <pt x="266" y="737" on="0"/>
        <pt x="387" y="737" on="0"/>
        <pt x="446" y="731" on="0"/>
        <pt x="510" y="713" on="0"/>
        <pt x="553" y="681" on="0"/>
        <pt x="595" y="625" on="0"/>
        <pt x="607" y="586" on="1"/>
        <pt x="633" y="499" on="0"/>
        <pt x="633" y="361" on="1"/>
        <pt x="633" y="199" on="0"/>
        <pt x="598" y="123" on="1"/>
        <pt x="580" y="83" on="0"/>
        <pt x="535" y="32" on="0"/>
        <pt x="500" y="19" on="1"/>
        <pt x="440" y="-4" on="0"/>
        <pt x="346" y="-4" on="1"/>
        <pt x="225" y="-4" on="0"/>
        <pt x="176" y="24" on="1"/>
        <pt x="125" y="53" on="0"/>
        <pt x="103" y="99" on="1"/>
        <pt x="74" y="163" on="0"/>
      </contour>
      <contour>
        <pt x="156" y="472" on="0"/>
        <pt x="153" y="403" on="0"/>
        <pt x="153" y="308" on="0"/>
        <pt x="159" y="231" on="0"/>
        <pt x="171" y="171" on="0"/>
        <pt x="193" y="131" on="0"/>
        <pt x="221" y="104" on="0"/>
        <pt x="243" y="97" on="1"/>
        <pt x="281" y="85" on="0"/>
        <pt x="392" y="85" on="0"/>
        <pt x="453" y="98" on="0"/>
        <pt x="502" y="131" on="0"/>
        <pt x="514" y="163" on="1"/>
        <pt x="541" y="227" on="0"/>
        <pt x="541" y="444" on="0"/>
        <pt x="523" y="553" on="0"/>
        <pt x="498" y="613" on="0"/>
        <pt x="441" y="642" on="0"/>
        <pt x="393" y="648" on="0"/>
        <pt x="323" y="648" on="0"/>
        <pt x="296" y="647" on="0"/>
        <pt x="259" y="643" on="0"/>
        <pt x="238" y="635" on="0"/>
        <pt x="210" y="621" on="0"/>
        <pt x="194" y="599" on="0"/>
        <pt x="175" y="568" on="0"/>
        <pt x="166" y="526" on="0"/>
      </contour>
      <contour>
        <pt x="372" y="-33" on="1"/>
        <pt x="414" y="-70" on="0"/>
        <pt x="467" y="-70" on="1"/>
        <pt x="496" y="-70" on="0"/>
        <pt x="538" y="-55" on="1"/>
        <pt x="538" y="-144" on="1"/>
        <pt x="515" y="-153" on="0"/>
        <pt x="479" y="-153" on="0"/>
        <pt x="434" y="-150" on="0"/>
        <pt x="367" y="-127" on="0"/>
        <pt x="317" y="-71" on="0"/>
        <pt x="312" y="-33" on="1"/>
      </contour>
    </TTGlyph>
    <TTGlyph name="R" xMin="57" yMin="0" xMax="575" yMax="732">
      <contour>
        <pt x="372" y="732" on="1"/>
        <pt x="549" y="732" on="0"/>
        <pt x="549" y="510" on="1"/>
        <pt x="549" y="439" on="0"/>
        <pt x="526" y="378" on="0"/>
        <pt x="510" y="346" on="0"/>
        <pt x="487" y="325" on="0"/>
        <pt x="470" y="312" on="0"/>
        <pt x="457" y="307" on="1"/>
        <pt x="440" y="301" on="0"/>
        <pt x="425" y="298" on="1"/>
        <pt x="575" y="0" on="1"/>
        <pt x="474" y="0" on="1"/>
        <pt x="329" y="293" on="1"/>
        <pt x="150" y="307" on="1"/>
        <pt x="150" y="0" on="1"/>
        <pt x="58" y="0" on="1"/>
        <pt x="58" y="732" on="1"/>
      </contour>
      <contour>
        <pt x="150" y="385" on="1"/>
        <pt x="368" y="385" on="1"/>
        <pt x="423" y="385" on="0"/>
        <pt x="439" y="414" on="1"/>
        <pt x="456" y="445" on="0"/>
        <pt x="456" y="552" on="0"/>
        <pt x="442" y="608" on="0"/>
        <pt x="428" y="621" on="1"/>
        <pt x="405" y="644" on="0"/>
        <pt x="368" y="644" on="1"/>
        <pt x="150" y="644" on="1"/>
      </contour>
    </TTGlyph>
    <TTGlyph name="Racute" xMin="57" yMin="0" xMax="575" yMax="928">
      <contour>
        <pt x="257" y="793" on="1"/>
        <pt x="359" y="927" on="1"/>
        <pt x="462" y="927" on="1"/>
        <pt x="332" y="793" on="1"/>
      </contour>
      <contour>
        <pt x="58" y="0" on="1"/>
        <pt x="58" y="732" on="1"/>
        <pt x="372" y="732" on="1"/>
        <pt x="549" y="732" on="0"/>
        <pt x="549" y="510" on="1"/>
        <pt x="549" y="457" on="0"/>
        <pt x="528" y="376" on="0"/>
        <pt x="502" y="336" on="0"/>
        <pt x="461" y="308" on="0"/>
        <pt x="440" y="301" on="0"/>
        <pt x="425" y="298" on="1"/>
        <pt x="575" y="0" on="1"/>
        <pt x="474" y="0" on="1"/>
        <pt x="329" y="293" on="1"/>
        <pt x="150" y="307" on="1"/>
        <pt x="150" y="0" on="1"/>
      </contour>
      <contour>
        <pt x="150" y="385" on="1"/>
        <pt x="368" y="385" on="1"/>
        <pt x="423" y="385" on="0"/>
        <pt x="439" y="414" on="1"/>
        <pt x="456" y="445" on="0"/>
        <pt x="456" y="552" on="0"/>
        <pt x="442" y="608" on="0"/>
        <pt x="428" y="621" on="1"/>
        <pt x="405" y="644" on="0"/>
        <pt x="368" y="644" on="1"/>
        <pt x="150" y="644" on="1"/>
      </contour>
    </TTGlyph>
    <TTGlyph name="Rcaron" xMin="57" yMin="0" xMax="575" yMax="929">
      <contour>
        <pt x="144" y="928" on="1"/>
        <pt x="222" y="928" on="1"/>
        <pt x="297" y="860" on="1"/>
        <pt x="363" y="928" on="1"/>
        <pt x="440" y="928" on="1"/>
        <pt x="337" y="797" on="1"/>
        <pt x="257" y="797" on="1"/>
      </contour>
      <contour>
        <pt x="58" y="0" on="1"/>
        <pt x="58" y="732" on="1"/>
        <pt x="372" y="732" on="1"/>
        <pt x="549" y="732" on="0"/>
        <pt x="549" y="510" on="1"/>
        <pt x="549" y="457" on="0"/>
        <pt x="528" y="376" on="0"/>
        <pt x="502" y="336" on="0"/>
        <pt x="461" y="308" on="0"/>
        <pt x="440" y="301" on="0"/>
        <pt x="425" y="298" on="1"/>
        <pt x="575" y="0" on="1"/>
        <pt x="474" y="0" on="1"/>
        <pt x="329" y="293" on="1"/>
        <pt x="150" y="307" on="1"/>
        <pt x="150" y="0" on="1"/>
      </contour>
      <contour>
        <pt x="150" y="385" on="1"/>
        <pt x="368" y="385" on="1"/>
        <pt x="423" y="385" on="0"/>
        <pt x="439" y="414" on="1"/>
        <pt x="456" y="445" on="0"/>
        <pt x="456" y="552" on="0"/>
        <pt x="442" y="608" on="0"/>
        <pt x="428" y="621" on="1"/>
        <pt x="405" y="644" on="0"/>
        <pt x="368" y="644" on="1"/>
        <pt x="150" y="644" on="1"/>
      </contour>
    </TTGlyph>
    <TTGlyph name="Rcommaaccent" xMin="57" yMin="-254" xMax="575" yMax="732">
      <contour>
        <pt x="274" y="-254" on="1"/>
        <pt x="265" y="-254" on="0"/>
        <pt x="255" y="-252" on="1"/>
        <pt x="255" y="-219" on="1"/>
        <pt x="267" y="-219" on="0"/>
        <pt x="274" y="-214" on="1"/>
        <pt x="283" y="-207" on="0"/>
        <pt x="283" y="-192" on="1"/>
        <pt x="283" y="-173" on="1"/>
        <pt x="273" y="-173" on="1"/>
        <pt x="250" y="-173" on="0"/>
        <pt x="250" y="-150" on="1"/>
        <pt x="250" y="-93" on="1"/>
        <pt x="250" y="-69" on="0"/>
        <pt x="273" y="-69" on="1"/>
        <pt x="327" y="-69" on="1"/>
        <pt x="348" y="-69" on="0"/>
        <pt x="348" y="-93" on="1"/>
        <pt x="348" y="-183" on="1"/>
        <pt x="348" y="-254" on="0"/>
      </contour>
      <contour>
        <pt x="58" y="0" on="1"/>
        <pt x="58" y="732" on="1"/>
        <pt x="372" y="732" on="1"/>
        <pt x="549" y="732" on="0"/>
        <pt x="549" y="510" on="1"/>
        <pt x="549" y="457" on="0"/>
        <pt x="528" y="376" on="0"/>
        <pt x="502" y="336" on="0"/>
        <pt x="461" y="308" on="0"/>
        <pt x="440" y="301" on="0"/>
        <pt x="425" y="298" on="1"/>
        <pt x="575" y="0" on="1"/>
        <pt x="474" y="0" on="1"/>
        <pt x="329" y="293" on="1"/>
        <pt x="150" y="307" on="1"/>
        <pt x="150" y="0" on="1"/>
      </contour>
      <contour>
        <pt x="150" y="385" on="1"/>
        <pt x="368" y="385" on="1"/>
        <pt x="423" y="385" on="0"/>
        <pt x="439" y="414" on="1"/>
        <pt x="456" y="445" on="0"/>
        <pt x="456" y="552" on="0"/>
        <pt x="442" y="608" on="0"/>
        <pt x="428" y="621" on="1"/>
        <pt x="405" y="644" on="0"/>
        <pt x="368" y="644" on="1"/>
        <pt x="150" y="644" on="1"/>
      </contour>
    </TTGlyph>
    <TTGlyph name="S" xMin="60" yMin="-9" xMax="544" yMax="739">
      <contour>
        <pt x="146" y="721" on="0"/>
        <pt x="214" y="738" on="0"/>
        <pt x="261" y="738" on="0"/>
        <pt x="309" y="738" on="0"/>
        <pt x="479" y="720" on="0"/>
        <pt x="518" y="713" on="1"/>
        <pt x="518" y="639" on="1"/>
        <pt x="476" y="642" on="0"/>
        <pt x="380" y="645" on="1"/>
        <pt x="273" y="649" on="0"/>
        <pt x="234" y="649" on="0"/>
        <pt x="204" y="646" on="0"/>
        <pt x="186" y="637" on="1"/>
        <pt x="153" y="620" on="0"/>
        <pt x="153" y="554" on="1"/>
        <pt x="153" y="496" on="1"/>
        <pt x="153" y="439" on="0"/>
        <pt x="198" y="406" on="0"/>
        <pt x="249" y="406" on="1"/>
        <pt x="383" y="406" on="1"/>
        <pt x="544" y="406" on="0"/>
        <pt x="544" y="228" on="1"/>
        <pt x="544" y="165" on="1"/>
        <pt x="544" y="46" on="0"/>
        <pt x="455" y="10" on="1"/>
        <pt x="410" y="-8" on="0"/>
        <pt x="291" y="-8" on="0"/>
        <pt x="125" y="9" on="0"/>
        <pt x="83" y="18" on="1"/>
        <pt x="83" y="92" on="1"/>
        <pt x="193" y="81" on="0"/>
        <pt x="351" y="81" on="0"/>
        <pt x="375" y="83" on="0"/>
        <pt x="411" y="92" on="0"/>
        <pt x="423" y="100" on="1"/>
        <pt x="452" y="121" on="0"/>
        <pt x="452" y="164" on="1"/>
        <pt x="452" y="224" on="1"/>
        <pt x="452" y="267" on="0"/>
        <pt x="418" y="314" on="0"/>
        <pt x="374" y="314" on="1"/>
        <pt x="242" y="314" on="1"/>
        <pt x="112" y="314" on="0"/>
        <pt x="77" y="396" on="1"/>
        <pt x="61" y="435" on="0"/>
        <pt x="61" y="492" on="1"/>
        <pt x="61" y="557" on="1"/>
        <pt x="61" y="662" on="0"/>
        <pt x="118" y="702" on="1"/>
      </contour>
    </TTGlyph>
    <TTGlyph name="Sacute" xMin="60" yMin="-9" xMax="544" yMax="933">
      <contour>
        <pt x="269" y="798" on="1"/>
        <pt x="372" y="933" on="1"/>
        <pt x="474" y="933" on="1"/>
        <pt x="344" y="798" on="1"/>
      </contour>
      <contour>
        <pt x="61" y="492" on="1"/>
        <pt x="61" y="557" on="1"/>
        <pt x="61" y="662" on="0"/>
        <pt x="118" y="702" on="1"/>
        <pt x="170" y="738" on="0"/>
        <pt x="263" y="738" on="1"/>
        <pt x="309" y="738" on="0"/>
        <pt x="479" y="720" on="0"/>
        <pt x="518" y="713" on="1"/>
        <pt x="518" y="639" on="1"/>
        <pt x="476" y="642" on="0"/>
        <pt x="380" y="645" on="1"/>
        <pt x="273" y="649" on="0"/>
        <pt x="234" y="649" on="0"/>
        <pt x="204" y="646" on="0"/>
        <pt x="186" y="637" on="1"/>
        <pt x="153" y="620" on="0"/>
        <pt x="153" y="554" on="1"/>
        <pt x="153" y="496" on="1"/>
        <pt x="153" y="439" on="0"/>
        <pt x="198" y="406" on="0"/>
        <pt x="248" y="406" on="1"/>
        <pt x="383" y="406" on="1"/>
        <pt x="544" y="406" on="0"/>
        <pt x="544" y="228" on="1"/>
        <pt x="544" y="165" on="1"/>
        <pt x="544" y="46" on="0"/>
        <pt x="455" y="10" on="1"/>
        <pt x="410" y="-8" on="0"/>
        <pt x="291" y="-8" on="0"/>
        <pt x="125" y="9" on="0"/>
        <pt x="83" y="18" on="1"/>
        <pt x="83" y="92" on="1"/>
        <pt x="193" y="81" on="0"/>
        <pt x="351" y="81" on="0"/>
        <pt x="375" y="83" on="0"/>
        <pt x="411" y="92" on="0"/>
        <pt x="423" y="100" on="1"/>
        <pt x="452" y="121" on="0"/>
        <pt x="452" y="164" on="1"/>
        <pt x="452" y="224" on="1"/>
        <pt x="452" y="267" on="0"/>
        <pt x="418" y="314" on="0"/>
        <pt x="374" y="314" on="1"/>
        <pt x="242" y="314" on="1"/>
        <pt x="112" y="314" on="0"/>
        <pt x="77" y="396" on="1"/>
        <pt x="61" y="435" on="0"/>
      </contour>
    </TTGlyph>
    <TTGlyph name="Scaron" xMin="60" yMin="-9" xMax="544" yMax="930">
      <contour>
        <pt x="158" y="930" on="1"/>
        <pt x="236" y="930" on="1"/>
        <pt x="311" y="862" on="1"/>
        <pt x="377" y="930" on="1"/>
        <pt x="455" y="930" on="1"/>
        <pt x="351" y="798" on="1"/>
        <pt x="271" y="798" on="1"/>
      </contour>
      <contour>
        <pt x="61" y="492" on="1"/>
        <pt x="61" y="557" on="1"/>
        <pt x="61" y="662" on="0"/>
        <pt x="118" y="702" on="1"/>
        <pt x="170" y="738" on="0"/>
        <pt x="263" y="738" on="1"/>
        <pt x="309" y="738" on="0"/>
        <pt x="479" y="720" on="0"/>
        <pt x="518" y="713" on="1"/>
        <pt x="518" y="639" on="1"/>
        <pt x="476" y="642" on="0"/>
        <pt x="380" y="645" on="1"/>
        <pt x="273" y="649" on="0"/>
        <pt x="234" y="649" on="0"/>
        <pt x="204" y="646" on="0"/>
        <pt x="186" y="637" on="1"/>
        <pt x="153" y="620" on="0"/>
        <pt x="153" y="554" on="1"/>
        <pt x="153" y="496" on="1"/>
        <pt x="153" y="439" on="0"/>
        <pt x="198" y="406" on="0"/>
        <pt x="248" y="406" on="1"/>
        <pt x="383" y="406" on="1"/>
        <pt x="544" y="406" on="0"/>
        <pt x="544" y="228" on="1"/>
        <pt x="544" y="165" on="1"/>
        <pt x="544" y="46" on="0"/>
        <pt x="455" y="10" on="1"/>
        <pt x="410" y="-8" on="0"/>
        <pt x="291" y="-8" on="0"/>
        <pt x="125" y="9" on="0"/>
        <pt x="83" y="18" on="1"/>
        <pt x="83" y="92" on="1"/>
        <pt x="193" y="81" on="0"/>
        <pt x="351" y="81" on="0"/>
        <pt x="375" y="83" on="0"/>
        <pt x="411" y="92" on="0"/>
        <pt x="423" y="100" on="1"/>
        <pt x="452" y="121" on="0"/>
        <pt x="452" y="164" on="1"/>
        <pt x="452" y="224" on="1"/>
        <pt x="452" y="267" on="0"/>
        <pt x="418" y="314" on="0"/>
        <pt x="374" y="314" on="1"/>
        <pt x="242" y="314" on="1"/>
        <pt x="112" y="314" on="0"/>
        <pt x="77" y="396" on="1"/>
        <pt x="61" y="435" on="0"/>
      </contour>
    </TTGlyph>
    <TTGlyph name="Scedilla" xMin="60" yMin="-183" xMax="544" yMax="739">
      <contour>
        <pt x="278" y="-45" on="1"/>
        <pt x="352" y="-45" on="1"/>
        <pt x="352" y="-122" on="0"/>
        <pt x="309" y="-182" on="0"/>
        <pt x="248" y="-182" on="1"/>
        <pt x="196" y="-182" on="1"/>
        <pt x="196" y="-139" on="1"/>
        <pt x="247" y="-124" on="1"/>
        <pt x="266" y="-116" on="0"/>
        <pt x="278" y="-78" on="0"/>
      </contour>
      <contour>
        <pt x="61" y="492" on="1"/>
        <pt x="61" y="557" on="1"/>
        <pt x="61" y="662" on="0"/>
        <pt x="118" y="702" on="1"/>
        <pt x="170" y="738" on="0"/>
        <pt x="263" y="738" on="1"/>
        <pt x="309" y="738" on="0"/>
        <pt x="479" y="720" on="0"/>
        <pt x="518" y="713" on="1"/>
        <pt x="518" y="639" on="1"/>
        <pt x="476" y="642" on="0"/>
        <pt x="380" y="645" on="1"/>
        <pt x="273" y="649" on="0"/>
        <pt x="234" y="649" on="0"/>
        <pt x="204" y="646" on="0"/>
        <pt x="186" y="637" on="1"/>
        <pt x="153" y="620" on="0"/>
        <pt x="153" y="554" on="1"/>
        <pt x="153" y="496" on="1"/>
        <pt x="153" y="439" on="0"/>
        <pt x="198" y="406" on="0"/>
        <pt x="248" y="406" on="1"/>
        <pt x="383" y="406" on="1"/>
        <pt x="544" y="406" on="0"/>
        <pt x="544" y="228" on="1"/>
        <pt x="544" y="165" on="1"/>
        <pt x="544" y="46" on="0"/>
        <pt x="455" y="10" on="1"/>
        <pt x="410" y="-8" on="0"/>
        <pt x="291" y="-8" on="0"/>
        <pt x="125" y="9" on="0"/>
        <pt x="83" y="18" on="1"/>
        <pt x="83" y="92" on="1"/>
        <pt x="193" y="81" on="0"/>
        <pt x="351" y="81" on="0"/>
        <pt x="375" y="83" on="0"/>
        <pt x="411" y="92" on="0"/>
        <pt x="423" y="100" on="1"/>
        <pt x="452" y="121" on="0"/>
        <pt x="452" y="164" on="1"/>
        <pt x="452" y="224" on="1"/>
        <pt x="452" y="267" on="0"/>
        <pt x="418" y="314" on="0"/>
        <pt x="374" y="314" on="1"/>
        <pt x="242" y="314" on="1"/>
        <pt x="112" y="314" on="0"/>
        <pt x="77" y="396" on="1"/>
        <pt x="61" y="435" on="0"/>
      </contour>
    </TTGlyph>
    <TTGlyph name="Scircumflex" xMin="60" yMin="-9" xMax="544" yMax="930">
      <contour>
        <pt x="164" y="798" on="1"/>
        <pt x="278" y="930" on="1"/>
        <pt x="358" y="930" on="1"/>
        <pt x="460" y="798" on="1"/>
        <pt x="383" y="798" on="1"/>
        <pt x="316" y="866" on="1"/>
        <pt x="242" y="798" on="1"/>
      </contour>
      <contour>
        <pt x="61" y="492" on="1"/>
        <pt x="61" y="557" on="1"/>
        <pt x="61" y="662" on="0"/>
        <pt x="118" y="702" on="1"/>
        <pt x="170" y="738" on="0"/>
        <pt x="263" y="738" on="1"/>
        <pt x="309" y="738" on="0"/>
        <pt x="479" y="720" on="0"/>
        <pt x="518" y="713" on="1"/>
        <pt x="518" y="639" on="1"/>
        <pt x="476" y="642" on="0"/>
        <pt x="380" y="645" on="1"/>
        <pt x="273" y="649" on="0"/>
        <pt x="234" y="649" on="0"/>
        <pt x="204" y="646" on="0"/>
        <pt x="186" y="637" on="1"/>
        <pt x="153" y="620" on="0"/>
        <pt x="153" y="554" on="1"/>
        <pt x="153" y="496" on="1"/>
        <pt x="153" y="439" on="0"/>
        <pt x="198" y="406" on="0"/>
        <pt x="248" y="406" on="1"/>
        <pt x="383" y="406" on="1"/>
        <pt x="544" y="406" on="0"/>
        <pt x="544" y="228" on="1"/>
        <pt x="544" y="165" on="1"/>
        <pt x="544" y="46" on="0"/>
        <pt x="455" y="10" on="1"/>
        <pt x="410" y="-8" on="0"/>
        <pt x="291" y="-8" on="0"/>
        <pt x="125" y="9" on="0"/>
        <pt x="83" y="18" on="1"/>
        <pt x="83" y="92" on="1"/>
        <pt x="193" y="81" on="0"/>
        <pt x="351" y="81" on="0"/>
        <pt x="375" y="83" on="0"/>
        <pt x="411" y="92" on="0"/>
        <pt x="423" y="100" on="1"/>
        <pt x="452" y="121" on="0"/>
        <pt x="452" y="164" on="1"/>
        <pt x="452" y="224" on="1"/>
        <pt x="452" y="267" on="0"/>
        <pt x="418" y="314" on="0"/>
        <pt x="374" y="314" on="1"/>
        <pt x="242" y="314" on="1"/>
        <pt x="112" y="314" on="0"/>
        <pt x="77" y="396" on="1"/>
        <pt x="61" y="435" on="0"/>
      </contour>
    </TTGlyph>
    <TTGlyph name="T" xMin="41" yMin="0" xMax="559" yMax="732">
      <contour>
        <pt x="41" y="643" on="1"/>
        <pt x="41" y="732" on="1"/>
        <pt x="558" y="732" on="1"/>
        <pt x="558" y="643" on="1"/>
        <pt x="343" y="643" on="1"/>
        <pt x="343" y="0" on="1"/>
        <pt x="251" y="0" on="1"/>
        <pt x="251" y="643" on="1"/>
      </contour>
    </TTGlyph>
    <TTGlyph name="Tbar" xMin="31" yMin="0" xMax="549" yMax="732">
      <contour>
        <pt x="31" y="643" on="1"/>
        <pt x="31" y="732" on="1"/>
        <pt x="548" y="732" on="1"/>
        <pt x="548" y="643" on="1"/>
        <pt x="333" y="643" on="1"/>
        <pt x="333" y="441" on="1"/>
        <pt x="447" y="441" on="1"/>
        <pt x="447" y="384" on="1"/>
        <pt x="333" y="384" on="1"/>
        <pt x="333" y="0" on="1"/>
        <pt x="241" y="0" on="1"/>
        <pt x="241" y="384" on="1"/>
        <pt x="127" y="384" on="1"/>
        <pt x="127" y="441" on="1"/>
        <pt x="241" y="441" on="1"/>
        <pt x="241" y="643" on="1"/>
      </contour>
    </TTGlyph>
    <TTGlyph name="Tcaron" xMin="41" yMin="0" xMax="559" yMax="929">
      <contour>
        <pt x="143" y="928" on="1"/>
        <pt x="221" y="928" on="1"/>
        <pt x="296" y="860" on="1"/>
        <pt x="362" y="928" on="1"/>
        <pt x="440" y="928" on="1"/>
        <pt x="336" y="797" on="1"/>
        <pt x="256" y="797" on="1"/>
      </contour>
      <contour>
        <pt x="41" y="643" on="1"/>
        <pt x="41" y="732" on="1"/>
        <pt x="558" y="732" on="1"/>
        <pt x="558" y="643" on="1"/>
        <pt x="343" y="643" on="1"/>
        <pt x="343" y="0" on="1"/>
        <pt x="251" y="0" on="1"/>
        <pt x="251" y="643" on="1"/>
      </contour>
    </TTGlyph>
    <TTGlyph name="Tcommaaccent" xMin="41" yMin="-185" xMax="559" yMax="732">
      <contour>
        <pt x="236" y="-47" on="1"/>
        <pt x="310" y="-47" on="1"/>
        <pt x="310" y="-125" on="0"/>
        <pt x="267" y="-185" on="0"/>
        <pt x="206" y="-185" on="1"/>
        <pt x="154" y="-185" on="1"/>
        <pt x="154" y="-141" on="1"/>
        <pt x="204" y="-126" on="1"/>
        <pt x="224" y="-118" on="0"/>
        <pt x="236" y="-80" on="0"/>
      </contour>
      <contour>
        <pt x="41" y="643" on="1"/>
        <pt x="41" y="732" on="1"/>
        <pt x="558" y="732" on="1"/>
        <pt x="558" y="643" on="1"/>
        <pt x="343" y="643" on="1"/>
        <pt x="343" y="0" on="1"/>
        <pt x="251" y="0" on="1"/>
        <pt x="251" y="643" on="1"/>
      </contour>
    </TTGlyph>
    <TTGlyph name="Thorn" xMin="56" yMin="0" xMax="508" yMax="729">
      <contour>
        <pt x="56" y="0" on="1"/>
        <pt x="56" y="729" on="1"/>
        <pt x="148" y="729" on="1"/>
        <pt x="148" y="588" on="1"/>
        <pt x="332" y="588" on="1"/>
        <pt x="508" y="586" on="0"/>
        <pt x="508" y="375" on="1"/>
        <pt x="508" y="215" on="0"/>
        <pt x="425" y="170" on="1"/>
        <pt x="386" y="149" on="0"/>
        <pt x="332" y="149" on="1"/>
        <pt x="326" y="149" on="0"/>
        <pt x="291" y="148" on="0"/>
        <pt x="280" y="149" on="0"/>
        <pt x="248" y="150" on="0"/>
        <pt x="235" y="153" on="1"/>
        <pt x="192" y="159" on="0"/>
        <pt x="148" y="168" on="1"/>
        <pt x="148" y="0" on="1"/>
      </contour>
      <contour>
        <pt x="148" y="236" on="1"/>
        <pt x="320" y="236" on="1"/>
        <pt x="321" y="236" on="0"/>
        <pt x="342" y="236" on="0"/>
        <pt x="372" y="246" on="0"/>
        <pt x="386" y="260" on="1"/>
        <pt x="415" y="289" on="0"/>
        <pt x="415" y="376" on="1"/>
        <pt x="413" y="469" on="0"/>
        <pt x="368" y="490" on="1"/>
        <pt x="348" y="500" on="0"/>
        <pt x="320" y="500" on="1"/>
        <pt x="148" y="500" on="1"/>
      </contour>
    </TTGlyph>
    <TTGlyph name="U" xMin="74" yMin="-6" xMax="618" yMax="732">
      <contour>
        <pt x="349" y="-5" on="1"/>
        <pt x="335" y="-5" on="1"/>
        <pt x="217" y="-5" on="0"/>
        <pt x="179" y="20" on="1"/>
        <pt x="161" y="32" on="0"/>
        <pt x="115" y="79" on="0"/>
        <pt x="103" y="113" on="1"/>
        <pt x="75" y="197" on="0"/>
        <pt x="75" y="320" on="1"/>
        <pt x="75" y="732" on="1"/>
        <pt x="167" y="732" on="1"/>
        <pt x="167" y="320" on="1"/>
        <pt x="167" y="246" on="0"/>
        <pt x="180" y="184" on="0"/>
        <pt x="189" y="149" on="0"/>
        <pt x="207" y="124" on="0"/>
        <pt x="222" y="106" on="0"/>
        <pt x="249" y="94" on="0"/>
        <pt x="269" y="88" on="0"/>
        <pt x="286" y="86" on="1"/>
        <pt x="312" y="84" on="0"/>
        <pt x="373" y="84" on="0"/>
        <pt x="406" y="86" on="0"/>
        <pt x="446" y="97" on="0"/>
        <pt x="472" y="115" on="0"/>
        <pt x="500" y="150" on="0"/>
        <pt x="507" y="175" on="1"/>
        <pt x="525" y="231" on="0"/>
        <pt x="525" y="320" on="1"/>
        <pt x="525" y="732" on="1"/>
        <pt x="618" y="732" on="1"/>
        <pt x="618" y="320" on="1"/>
        <pt x="618" y="124" on="0"/>
        <pt x="549" y="57" on="1"/>
        <pt x="525" y="33" on="0"/>
        <pt x="487" y="9" on="0"/>
        <pt x="454" y="3" on="1"/>
        <pt x="412" y="-5" on="0"/>
      </contour>
    </TTGlyph>
    <TTGlyph name="Uacute" xMin="74" yMin="-6" xMax="618" yMax="932">
      <contour>
        <pt x="309" y="797" on="1"/>
        <pt x="411" y="932" on="1"/>
        <pt x="514" y="932" on="1"/>
        <pt x="384" y="797" on="1"/>
      </contour>
      <contour>
        <pt x="349" y="-5" on="1"/>
        <pt x="335" y="-5" on="1"/>
        <pt x="217" y="-5" on="0"/>
        <pt x="179" y="20" on="1"/>
        <pt x="161" y="32" on="0"/>
        <pt x="115" y="79" on="0"/>
        <pt x="103" y="113" on="1"/>
        <pt x="75" y="197" on="0"/>
        <pt x="75" y="320" on="1"/>
        <pt x="75" y="732" on="1"/>
        <pt x="167" y="732" on="1"/>
        <pt x="167" y="320" on="1"/>
        <pt x="167" y="246" on="0"/>
        <pt x="180" y="184" on="0"/>
        <pt x="189" y="149" on="0"/>
        <pt x="207" y="124" on="0"/>
        <pt x="222" y="106" on="0"/>
        <pt x="249" y="94" on="0"/>
        <pt x="269" y="88" on="0"/>
        <pt x="286" y="86" on="1"/>
        <pt x="312" y="84" on="0"/>
        <pt x="373" y="84" on="0"/>
        <pt x="406" y="86" on="0"/>
        <pt x="446" y="97" on="0"/>
        <pt x="472" y="115" on="0"/>
        <pt x="500" y="150" on="0"/>
        <pt x="507" y="175" on="1"/>
        <pt x="525" y="231" on="0"/>
        <pt x="525" y="320" on="1"/>
        <pt x="525" y="732" on="1"/>
        <pt x="618" y="732" on="1"/>
        <pt x="618" y="320" on="1"/>
        <pt x="618" y="124" on="0"/>
        <pt x="549" y="57" on="1"/>
        <pt x="525" y="33" on="0"/>
        <pt x="487" y="9" on="0"/>
        <pt x="454" y="3" on="1"/>
        <pt x="412" y="-5" on="0"/>
      </contour>
    </TTGlyph>
    <TTGlyph name="Ubreve" xMin="74" yMin="-6" xMax="618" yMax="911">
      <contour>
        <pt x="231" y="911" on="1"/>
        <pt x="281" y="911" on="1"/>
        <pt x="281" y="884" on="0"/>
        <pt x="320" y="847" on="0"/>
        <pt x="374" y="847" on="0"/>
        <pt x="411" y="882" on="0"/>
        <pt x="411" y="911" on="1"/>
        <pt x="461" y="911" on="1"/>
        <pt x="461" y="858" on="0"/>
        <pt x="392" y="797" on="0"/>
        <pt x="300" y="797" on="0"/>
        <pt x="231" y="860" on="0"/>
      </contour>
      <contour>
        <pt x="349" y="-5" on="1"/>
        <pt x="335" y="-5" on="1"/>
        <pt x="217" y="-5" on="0"/>
        <pt x="179" y="20" on="1"/>
        <pt x="161" y="32" on="0"/>
        <pt x="115" y="79" on="0"/>
        <pt x="103" y="113" on="1"/>
        <pt x="75" y="197" on="0"/>
        <pt x="75" y="320" on="1"/>
        <pt x="75" y="732" on="1"/>
        <pt x="167" y="732" on="1"/>
        <pt x="167" y="320" on="1"/>
        <pt x="167" y="246" on="0"/>
        <pt x="180" y="184" on="0"/>
        <pt x="189" y="149" on="0"/>
        <pt x="207" y="124" on="0"/>
        <pt x="222" y="106" on="0"/>
        <pt x="249" y="94" on="0"/>
        <pt x="269" y="88" on="0"/>
        <pt x="286" y="86" on="1"/>
        <pt x="312" y="84" on="0"/>
        <pt x="373" y="84" on="0"/>
        <pt x="406" y="86" on="0"/>
        <pt x="446" y="97" on="0"/>
        <pt x="472" y="115" on="0"/>
        <pt x="500" y="150" on="0"/>
        <pt x="507" y="175" on="1"/>
        <pt x="525" y="231" on="0"/>
        <pt x="525" y="320" on="1"/>
        <pt x="525" y="732" on="1"/>
        <pt x="618" y="732" on="1"/>
        <pt x="618" y="320" on="1"/>
        <pt x="618" y="124" on="0"/>
        <pt x="549" y="57" on="1"/>
        <pt x="525" y="33" on="0"/>
        <pt x="487" y="9" on="0"/>
        <pt x="454" y="3" on="1"/>
        <pt x="412" y="-5" on="0"/>
      </contour>
    </TTGlyph>
    <TTGlyph name="Ucircumflex" xMin="74" yMin="-6" xMax="618" yMax="929">
      <contour>
        <pt x="198" y="797" on="1"/>
        <pt x="312" y="928" on="1"/>
        <pt x="392" y="928" on="1"/>
        <pt x="494" y="797" on="1"/>
        <pt x="418" y="797" on="1"/>
        <pt x="350" y="865" on="1"/>
        <pt x="276" y="797" on="1"/>
      </contour>
      <contour>
        <pt x="349" y="-5" on="1"/>
        <pt x="335" y="-5" on="1"/>
        <pt x="217" y="-5" on="0"/>
        <pt x="179" y="20" on="1"/>
        <pt x="161" y="32" on="0"/>
        <pt x="115" y="79" on="0"/>
        <pt x="103" y="113" on="1"/>
        <pt x="75" y="197" on="0"/>
        <pt x="75" y="320" on="1"/>
        <pt x="75" y="732" on="1"/>
        <pt x="167" y="732" on="1"/>
        <pt x="167" y="320" on="1"/>
        <pt x="167" y="246" on="0"/>
        <pt x="180" y="184" on="0"/>
        <pt x="189" y="149" on="0"/>
        <pt x="207" y="124" on="0"/>
        <pt x="222" y="106" on="0"/>
        <pt x="249" y="94" on="0"/>
        <pt x="269" y="88" on="0"/>
        <pt x="286" y="86" on="1"/>
        <pt x="312" y="84" on="0"/>
        <pt x="373" y="84" on="0"/>
        <pt x="406" y="86" on="0"/>
        <pt x="446" y="97" on="0"/>
        <pt x="472" y="115" on="0"/>
        <pt x="500" y="150" on="0"/>
        <pt x="507" y="175" on="1"/>
        <pt x="525" y="231" on="0"/>
        <pt x="525" y="320" on="1"/>
        <pt x="525" y="732" on="1"/>
        <pt x="618" y="732" on="1"/>
        <pt x="618" y="320" on="1"/>
        <pt x="618" y="124" on="0"/>
        <pt x="549" y="57" on="1"/>
        <pt x="525" y="33" on="0"/>
        <pt x="487" y="9" on="0"/>
        <pt x="454" y="3" on="1"/>
        <pt x="412" y="-5" on="0"/>
      </contour>
    </TTGlyph>
    <TTGlyph name="Udieresis" xMin="74" yMin="-6" xMax="618" yMax="903">
      <contour>
        <pt x="166" y="828" on="0"/>
        <pt x="166" y="872" on="0"/>
        <pt x="197" y="902" on="0"/>
        <pt x="241" y="902" on="0"/>
        <pt x="272" y="872" on="0"/>
        <pt x="272" y="828" on="0"/>
        <pt x="241" y="797" on="0"/>
        <pt x="197" y="797" on="0"/>
      </contour>
      <contour>
        <pt x="421" y="828" on="0"/>
        <pt x="421" y="872" on="0"/>
        <pt x="452" y="902" on="0"/>
        <pt x="496" y="902" on="0"/>
        <pt x="526" y="872" on="0"/>
        <pt x="526" y="828" on="0"/>
        <pt x="496" y="797" on="0"/>
        <pt x="452" y="797" on="0"/>
      </contour>
      <contour>
        <pt x="349" y="-5" on="1"/>
        <pt x="335" y="-5" on="1"/>
        <pt x="217" y="-5" on="0"/>
        <pt x="179" y="20" on="1"/>
        <pt x="161" y="32" on="0"/>
        <pt x="115" y="79" on="0"/>
        <pt x="103" y="113" on="1"/>
        <pt x="75" y="197" on="0"/>
        <pt x="75" y="320" on="1"/>
        <pt x="75" y="732" on="1"/>
        <pt x="167" y="732" on="1"/>
        <pt x="167" y="320" on="1"/>
        <pt x="167" y="246" on="0"/>
        <pt x="180" y="184" on="0"/>
        <pt x="189" y="149" on="0"/>
        <pt x="207" y="124" on="0"/>
        <pt x="222" y="106" on="0"/>
        <pt x="249" y="94" on="0"/>
        <pt x="269" y="88" on="0"/>
        <pt x="286" y="86" on="1"/>
        <pt x="312" y="84" on="0"/>
        <pt x="373" y="84" on="0"/>
        <pt x="406" y="86" on="0"/>
        <pt x="446" y="97" on="0"/>
        <pt x="472" y="115" on="0"/>
        <pt x="500" y="150" on="0"/>
        <pt x="507" y="175" on="1"/>
        <pt x="525" y="231" on="0"/>
        <pt x="525" y="320" on="1"/>
        <pt x="525" y="732" on="1"/>
        <pt x="618" y="732" on="1"/>
        <pt x="618" y="320" on="1"/>
        <pt x="618" y="124" on="0"/>
        <pt x="549" y="57" on="1"/>
        <pt x="525" y="33" on="0"/>
        <pt x="487" y="9" on="0"/>
        <pt x="454" y="3" on="1"/>
        <pt x="412" y="-5" on="0"/>
      </contour>
    </TTGlyph>
    <TTGlyph name="Ugrave" xMin="74" yMin="-6" xMax="618" yMax="932">
      <contour>
        <pt x="179" y="932" on="1"/>
        <pt x="281" y="932" on="1"/>
        <pt x="384" y="797" on="1"/>
        <pt x="309" y="797" on="1"/>
      </contour>
      <contour>
        <pt x="349" y="-5" on="1"/>
        <pt x="335" y="-5" on="1"/>
        <pt x="217" y="-5" on="0"/>
        <pt x="179" y="20" on="1"/>
        <pt x="161" y="32" on="0"/>
        <pt x="115" y="79" on="0"/>
        <pt x="103" y="113" on="1"/>
        <pt x="75" y="197" on="0"/>
        <pt x="75" y="320" on="1"/>
        <pt x="75" y="732" on="1"/>
        <pt x="167" y="732" on="1"/>
        <pt x="167" y="320" on="1"/>
        <pt x="167" y="246" on="0"/>
        <pt x="180" y="184" on="0"/>
        <pt x="189" y="149" on="0"/>
        <pt x="207" y="124" on="0"/>
        <pt x="222" y="106" on="0"/>
        <pt x="249" y="94" on="0"/>
        <pt x="269" y="88" on="0"/>
        <pt x="286" y="86" on="1"/>
        <pt x="312" y="84" on="0"/>
        <pt x="373" y="84" on="0"/>
        <pt x="406" y="86" on="0"/>
        <pt x="446" y="97" on="0"/>
        <pt x="472" y="115" on="0"/>
        <pt x="500" y="150" on="0"/>
        <pt x="507" y="175" on="1"/>
        <pt x="525" y="231" on="0"/>
        <pt x="525" y="320" on="1"/>
        <pt x="525" y="732" on="1"/>
        <pt x="618" y="732" on="1"/>
        <pt x="618" y="320" on="1"/>
        <pt x="618" y="124" on="0"/>
        <pt x="549" y="57" on="1"/>
        <pt x="525" y="33" on="0"/>
        <pt x="487" y="9" on="0"/>
        <pt x="454" y="3" on="1"/>
        <pt x="412" y="-5" on="0"/>
      </contour>
    </TTGlyph>
    <TTGlyph name="Uhungarumlaut" xMin="74" yMin="-6" xMax="618" yMax="932">
      <contour>
        <pt x="238" y="797" on="1"/>
        <pt x="341" y="932" on="1"/>
        <pt x="443" y="932" on="1"/>
        <pt x="313" y="797" on="1"/>
      </contour>
      <contour>
        <pt x="379" y="797" on="1"/>
        <pt x="482" y="932" on="1"/>
        <pt x="584" y="932" on="1"/>
        <pt x="454" y="797" on="1"/>
      </contour>
      <contour>
        <pt x="349" y="-5" on="1"/>
        <pt x="335" y="-5" on="1"/>
        <pt x="217" y="-5" on="0"/>
        <pt x="179" y="20" on="1"/>
        <pt x="161" y="32" on="0"/>
        <pt x="115" y="79" on="0"/>
        <pt x="103" y="113" on="1"/>
        <pt x="75" y="197" on="0"/>
        <pt x="75" y="320" on="1"/>
        <pt x="75" y="732" on="1"/>
        <pt x="167" y="732" on="1"/>
        <pt x="167" y="320" on="1"/>
        <pt x="167" y="246" on="0"/>
        <pt x="180" y="184" on="0"/>
        <pt x="189" y="149" on="0"/>
        <pt x="207" y="124" on="0"/>
        <pt x="222" y="106" on="0"/>
        <pt x="249" y="94" on="0"/>
        <pt x="269" y="88" on="0"/>
        <pt x="286" y="86" on="1"/>
        <pt x="312" y="84" on="0"/>
        <pt x="373" y="84" on="0"/>
        <pt x="406" y="86" on="0"/>
        <pt x="446" y="97" on="0"/>
        <pt x="472" y="115" on="0"/>
        <pt x="500" y="150" on="0"/>
        <pt x="507" y="175" on="1"/>
        <pt x="525" y="231" on="0"/>
        <pt x="525" y="320" on="1"/>
        <pt x="525" y="732" on="1"/>
        <pt x="618" y="732" on="1"/>
        <pt x="618" y="320" on="1"/>
        <pt x="618" y="124" on="0"/>
        <pt x="549" y="57" on="1"/>
        <pt x="525" y="33" on="0"/>
        <pt x="487" y="9" on="0"/>
        <pt x="454" y="3" on="1"/>
        <pt x="412" y="-5" on="0"/>
      </contour>
    </TTGlyph>
    <TTGlyph name="Umacron" xMin="74" yMin="-6" xMax="618" yMax="865">
      <contour>
        <pt x="200" y="797" on="1"/>
        <pt x="200" y="864" on="1"/>
        <pt x="492" y="864" on="1"/>
        <pt x="492" y="797" on="1"/>
      </contour>
      <contour>
        <pt x="349" y="-5" on="1"/>
        <pt x="335" y="-5" on="1"/>
        <pt x="217" y="-5" on="0"/>
        <pt x="179" y="20" on="1"/>
        <pt x="161" y="32" on="0"/>
        <pt x="115" y="79" on="0"/>
        <pt x="103" y="113" on="1"/>
        <pt x="75" y="197" on="0"/>
        <pt x="75" y="320" on="1"/>
        <pt x="75" y="732" on="1"/>
        <pt x="167" y="732" on="1"/>
        <pt x="167" y="320" on="1"/>
        <pt x="167" y="246" on="0"/>
        <pt x="180" y="184" on="0"/>
        <pt x="189" y="149" on="0"/>
        <pt x="207" y="124" on="0"/>
        <pt x="222" y="106" on="0"/>
        <pt x="249" y="94" on="0"/>
        <pt x="269" y="88" on="0"/>
        <pt x="286" y="86" on="1"/>
        <pt x="312" y="84" on="0"/>
        <pt x="373" y="84" on="0"/>
        <pt x="406" y="86" on="0"/>
        <pt x="446" y="97" on="0"/>
        <pt x="472" y="115" on="0"/>
        <pt x="500" y="150" on="0"/>
        <pt x="507" y="175" on="1"/>
        <pt x="525" y="231" on="0"/>
        <pt x="525" y="320" on="1"/>
        <pt x="525" y="732" on="1"/>
        <pt x="618" y="732" on="1"/>
        <pt x="618" y="320" on="1"/>
        <pt x="618" y="124" on="0"/>
        <pt x="549" y="57" on="1"/>
        <pt x="525" y="33" on="0"/>
        <pt x="487" y="9" on="0"/>
        <pt x="454" y="3" on="1"/>
        <pt x="412" y="-5" on="0"/>
      </contour>
    </TTGlyph>
    <TTGlyph name="Uogonek" xMin="74" yMin="-188" xMax="618" yMax="732">
      <contour>
        <pt x="310" y="-83" on="1"/>
        <pt x="310" y="-121" on="0"/>
        <pt x="371" y="-121" on="1"/>
        <pt x="371" y="-186" on="1"/>
        <pt x="360" y="-188" on="0"/>
        <pt x="328" y="-188" on="0"/>
        <pt x="278" y="-170" on="0"/>
        <pt x="263" y="-149" on="1"/>
        <pt x="243" y="-122" on="0"/>
        <pt x="243" y="-72" on="0"/>
        <pt x="281" y="-22" on="0"/>
        <pt x="323" y="-3" on="1"/>
        <pt x="366" y="-3" on="1"/>
        <pt x="310" y="-50" on="0"/>
      </contour>
      <contour>
        <pt x="349" y="-5" on="1"/>
        <pt x="335" y="-5" on="1"/>
        <pt x="217" y="-5" on="0"/>
        <pt x="179" y="20" on="1"/>
        <pt x="161" y="32" on="0"/>
        <pt x="115" y="79" on="0"/>
        <pt x="103" y="113" on="1"/>
        <pt x="75" y="197" on="0"/>
        <pt x="75" y="320" on="1"/>
        <pt x="75" y="732" on="1"/>
        <pt x="167" y="732" on="1"/>
        <pt x="167" y="320" on="1"/>
        <pt x="167" y="246" on="0"/>
        <pt x="180" y="184" on="0"/>
        <pt x="189" y="149" on="0"/>
        <pt x="207" y="124" on="0"/>
        <pt x="222" y="106" on="0"/>
        <pt x="249" y="94" on="0"/>
        <pt x="269" y="88" on="0"/>
        <pt x="286" y="86" on="1"/>
        <pt x="312" y="84" on="0"/>
        <pt x="373" y="84" on="0"/>
        <pt x="406" y="86" on="0"/>
        <pt x="446" y="97" on="0"/>
        <pt x="472" y="115" on="0"/>
        <pt x="500" y="150" on="0"/>
        <pt x="507" y="175" on="1"/>
        <pt x="525" y="231" on="0"/>
        <pt x="525" y="320" on="1"/>
        <pt x="525" y="732" on="1"/>
        <pt x="618" y="732" on="1"/>
        <pt x="618" y="320" on="1"/>
        <pt x="618" y="124" on="0"/>
        <pt x="549" y="57" on="1"/>
        <pt x="525" y="33" on="0"/>
        <pt x="487" y="9" on="0"/>
        <pt x="454" y="3" on="1"/>
        <pt x="412" y="-5" on="0"/>
      </contour>
    </TTGlyph>
    <TTGlyph name="Uring" xMin="74" yMin="-6" xMax="618" yMax="1002">
      <contour>
        <pt x="245" y="871" on="0"/>
        <pt x="245" y="927" on="0"/>
        <pt x="272" y="974" on="0"/>
        <pt x="319" y="1002" on="0"/>
        <pt x="389" y="1002" on="0"/>
        <pt x="448" y="942" on="0"/>
        <pt x="448" y="871" on="0"/>
        <pt x="421" y="824" on="0"/>
        <pt x="374" y="797" on="0"/>
        <pt x="319" y="797" on="0"/>
        <pt x="272" y="824" on="0"/>
      </contour>
      <contour>
        <pt x="295" y="920" on="0"/>
        <pt x="295" y="878" on="0"/>
        <pt x="325" y="848" on="0"/>
        <pt x="368" y="848" on="0"/>
        <pt x="398" y="878" on="0"/>
        <pt x="398" y="913" on="0"/>
        <pt x="391" y="925" on="1"/>
        <pt x="376" y="951" on="0"/>
        <pt x="325" y="951" on="0"/>
      </contour>
      <contour>
        <pt x="349" y="-5" on="1"/>
        <pt x="335" y="-5" on="1"/>
        <pt x="217" y="-5" on="0"/>
        <pt x="179" y="20" on="1"/>
        <pt x="161" y="32" on="0"/>
        <pt x="115" y="79" on="0"/>
        <pt x="103" y="113" on="1"/>
        <pt x="75" y="197" on="0"/>
        <pt x="75" y="320" on="1"/>
        <pt x="75" y="732" on="1"/>
        <pt x="167" y="732" on="1"/>
        <pt x="167" y="320" on="1"/>
        <pt x="167" y="246" on="0"/>
        <pt x="180" y="184" on="0"/>
        <pt x="189" y="149" on="0"/>
        <pt x="207" y="124" on="0"/>
        <pt x="222" y="106" on="0"/>
        <pt x="249" y="94" on="0"/>
        <pt x="269" y="88" on="0"/>
        <pt x="286" y="86" on="1"/>
        <pt x="312" y="84" on="0"/>
        <pt x="373" y="84" on="0"/>
        <pt x="406" y="86" on="0"/>
        <pt x="446" y="97" on="0"/>
        <pt x="472" y="115" on="0"/>
        <pt x="500" y="150" on="0"/>
        <pt x="507" y="175" on="1"/>
        <pt x="525" y="231" on="0"/>
        <pt x="525" y="320" on="1"/>
        <pt x="525" y="732" on="1"/>
        <pt x="618" y="732" on="1"/>
        <pt x="618" y="320" on="1"/>
        <pt x="618" y="124" on="0"/>
        <pt x="549" y="57" on="1"/>
        <pt x="525" y="33" on="0"/>
        <pt x="487" y="9" on="0"/>
        <pt x="454" y="3" on="1"/>
        <pt x="412" y="-5" on="0"/>
      </contour>
    </TTGlyph>
    <TTGlyph name="Utilde" xMin="74" yMin="-6" xMax="618" yMax="905">
      <contour>
        <pt x="403" y="868" on="1"/>
        <pt x="431" y="868" on="0"/>
        <pt x="493" y="905" on="1"/>
        <pt x="516" y="858" on="1"/>
        <pt x="513" y="856" on="0"/>
        <pt x="486" y="833" on="0"/>
        <pt x="476" y="825" on="0"/>
        <pt x="451" y="807" on="0"/>
        <pt x="443" y="803" on="1"/>
        <pt x="396" y="783" on="0"/>
        <pt x="341" y="812" on="1"/>
        <pt x="310" y="828" on="0"/>
        <pt x="293" y="828" on="1"/>
        <pt x="262" y="828" on="0"/>
        <pt x="209" y="797" on="0"/>
        <pt x="198" y="793" on="1"/>
        <pt x="176" y="838" on="1"/>
        <pt x="233" y="888" on="0"/>
        <pt x="264" y="898" on="1"/>
        <pt x="303" y="911" on="0"/>
        <pt x="389" y="869" on="0"/>
        <pt x="402" y="868" on="0"/>
      </contour>
      <contour>
        <pt x="349" y="-5" on="1"/>
        <pt x="335" y="-5" on="1"/>
        <pt x="217" y="-5" on="0"/>
        <pt x="179" y="20" on="1"/>
        <pt x="161" y="32" on="0"/>
        <pt x="115" y="79" on="0"/>
        <pt x="103" y="113" on="1"/>
        <pt x="75" y="197" on="0"/>
        <pt x="75" y="320" on="1"/>
        <pt x="75" y="732" on="1"/>
        <pt x="167" y="732" on="1"/>
        <pt x="167" y="320" on="1"/>
        <pt x="167" y="246" on="0"/>
        <pt x="180" y="184" on="0"/>
        <pt x="189" y="149" on="0"/>
        <pt x="207" y="124" on="0"/>
        <pt x="222" y="106" on="0"/>
        <pt x="249" y="94" on="0"/>
        <pt x="269" y="88" on="0"/>
        <pt x="286" y="86" on="1"/>
        <pt x="312" y="84" on="0"/>
        <pt x="373" y="84" on="0"/>
        <pt x="406" y="86" on="0"/>
        <pt x="446" y="97" on="0"/>
        <pt x="472" y="115" on="0"/>
        <pt x="500" y="150" on="0"/>
        <pt x="507" y="175" on="1"/>
        <pt x="525" y="231" on="0"/>
        <pt x="525" y="320" on="1"/>
        <pt x="525" y="732" on="1"/>
        <pt x="618" y="732" on="1"/>
        <pt x="618" y="320" on="1"/>
        <pt x="618" y="124" on="0"/>
        <pt x="549" y="57" on="1"/>
        <pt x="525" y="33" on="0"/>
        <pt x="487" y="9" on="0"/>
        <pt x="454" y="3" on="1"/>
        <pt x="412" y="-5" on="0"/>
      </contour>
    </TTGlyph>
    <TTGlyph name="V" xMin="42" yMin="0" xMax="651" yMax="732">
      <contour>
        <pt x="42" y="732" on="1"/>
        <pt x="141" y="732" on="1"/>
        <pt x="342" y="136" on="1"/>
        <pt x="552" y="732" on="1"/>
        <pt x="651" y="732" on="1"/>
        <pt x="390" y="0" on="1"/>
        <pt x="292" y="0" on="1"/>
      </contour>
    </TTGlyph>
    <TTGlyph name="W" xMin="42" yMin="0" xMax="948" yMax="732">
      <contour>
        <pt x="42" y="732" on="1"/>
        <pt x="141" y="732" on="1"/>
        <pt x="341" y="145" on="1"/>
        <pt x="508" y="732" on="1"/>
        <pt x="610" y="732" on="1"/>
        <pt x="547" y="510" on="1"/>
        <pt x="675" y="140" on="1"/>
        <pt x="848" y="732" on="1"/>
        <pt x="947" y="732" on="1"/>
        <pt x="726" y="0" on="1"/>
        <pt x="628" y="0" on="1"/>
        <pt x="501" y="354" on="1"/>
        <pt x="390" y="0" on="1"/>
        <pt x="292" y="0" on="1"/>
      </contour>
    </TTGlyph>
    <TTGlyph name="Wacute" xMin="42" yMin="0" xMax="948" yMax="928">
      <contour>
        <pt x="466" y="793" on="1"/>
        <pt x="569" y="927" on="1"/>
        <pt x="671" y="927" on="1"/>
        <pt x="541" y="793" on="1"/>
      </contour>
      <contour>
        <pt x="42" y="732" on="1"/>
        <pt x="141" y="732" on="1"/>
        <pt x="341" y="145" on="1"/>
        <pt x="508" y="732" on="1"/>
        <pt x="610" y="732" on="1"/>
        <pt x="547" y="510" on="1"/>
        <pt x="675" y="140" on="1"/>
        <pt x="848" y="732" on="1"/>
        <pt x="947" y="732" on="1"/>
        <pt x="726" y="0" on="1"/>
        <pt x="628" y="0" on="1"/>
        <pt x="501" y="354" on="1"/>
        <pt x="390" y="0" on="1"/>
        <pt x="292" y="0" on="1"/>
      </contour>
    </TTGlyph>
    <TTGlyph name="Wcircumflex" xMin="42" yMin="0" xMax="948" yMax="925">
      <contour>
        <pt x="356" y="793" on="1"/>
        <pt x="470" y="924" on="1"/>
        <pt x="550" y="924" on="1"/>
        <pt x="653" y="793" on="1"/>
        <pt x="576" y="793" on="1"/>
        <pt x="508" y="861" on="1"/>
        <pt x="434" y="793" on="1"/>
      </contour>
      <contour>
        <pt x="42" y="732" on="1"/>
        <pt x="141" y="732" on="1"/>
        <pt x="341" y="145" on="1"/>
        <pt x="508" y="732" on="1"/>
        <pt x="610" y="732" on="1"/>
        <pt x="547" y="510" on="1"/>
        <pt x="675" y="140" on="1"/>
        <pt x="848" y="732" on="1"/>
        <pt x="947" y="732" on="1"/>
        <pt x="726" y="0" on="1"/>
        <pt x="628" y="0" on="1"/>
        <pt x="501" y="354" on="1"/>
        <pt x="390" y="0" on="1"/>
        <pt x="292" y="0" on="1"/>
      </contour>
    </TTGlyph>
    <TTGlyph name="Wdieresis" xMin="42" yMin="0" xMax="948" yMax="899">
      <contour>
        <pt x="322" y="824" on="0"/>
        <pt x="322" y="868" on="0"/>
        <pt x="353" y="898" on="0"/>
        <pt x="397" y="898" on="0"/>
        <pt x="427" y="868" on="0"/>
        <pt x="427" y="824" on="0"/>
        <pt x="397" y="793" on="0"/>
        <pt x="353" y="793" on="0"/>
      </contour>
      <contour>
        <pt x="577" y="824" on="0"/>
        <pt x="577" y="868" on="0"/>
        <pt x="608" y="898" on="0"/>
        <pt x="652" y="898" on="0"/>
        <pt x="682" y="868" on="0"/>
        <pt x="682" y="824" on="0"/>
        <pt x="652" y="793" on="0"/>
        <pt x="608" y="793" on="0"/>
      </contour>
      <contour>
        <pt x="42" y="732" on="1"/>
        <pt x="141" y="732" on="1"/>
        <pt x="341" y="145" on="1"/>
        <pt x="508" y="732" on="1"/>
        <pt x="610" y="732" on="1"/>
        <pt x="547" y="510" on="1"/>
        <pt x="675" y="140" on="1"/>
        <pt x="848" y="732" on="1"/>
        <pt x="947" y="732" on="1"/>
        <pt x="726" y="0" on="1"/>
        <pt x="628" y="0" on="1"/>
        <pt x="501" y="354" on="1"/>
        <pt x="390" y="0" on="1"/>
        <pt x="292" y="0" on="1"/>
      </contour>
    </TTGlyph>
    <TTGlyph name="Wgrave" xMin="42" yMin="0" xMax="948" yMax="928">
      <contour>
        <pt x="335" y="927" on="1"/>
        <pt x="438" y="927" on="1"/>
        <pt x="540" y="793" on="1"/>
        <pt x="465" y="793" on="1"/>
      </contour>
      <contour>
        <pt x="42" y="732" on="1"/>
        <pt x="141" y="732" on="1"/>
        <pt x="341" y="145" on="1"/>
        <pt x="508" y="732" on="1"/>
        <pt x="610" y="732" on="1"/>
        <pt x="547" y="510" on="1"/>
        <pt x="675" y="140" on="1"/>
        <pt x="848" y="732" on="1"/>
        <pt x="947" y="732" on="1"/>
        <pt x="726" y="0" on="1"/>
        <pt x="628" y="0" on="1"/>
        <pt x="501" y="354" on="1"/>
        <pt x="390" y="0" on="1"/>
        <pt x="292" y="0" on="1"/>
      </contour>
    </TTGlyph>
    <TTGlyph name="X" xMin="42" yMin="0" xMax="586" yMax="732">
      <contour>
        <pt x="42" y="732" on="1"/>
        <pt x="143" y="732" on="1"/>
        <pt x="312" y="441" on="1"/>
        <pt x="484" y="732" on="1"/>
        <pt x="585" y="732" on="1"/>
        <pt x="368" y="370" on="1"/>
        <pt x="580" y="0" on="1"/>
        <pt x="479" y="0" on="1"/>
        <pt x="312" y="291" on="1"/>
        <pt x="146" y="0" on="1"/>
        <pt x="45" y="0" on="1"/>
        <pt x="256" y="370" on="1"/>
      </contour>
    </TTGlyph>
    <TTGlyph name="X.salt" xMin="18" yMin="0" xMax="606" yMax="732">
      <contour>
        <pt x="189" y="305" on="1"/>
        <pt x="211" y="344" on="0"/>
        <pt x="211" y="375" on="0"/>
        <pt x="209" y="387" on="1"/>
        <pt x="206" y="410" on="0"/>
        <pt x="179" y="457" on="1"/>
        <pt x="19" y="732" on="1"/>
        <pt x="120" y="732" on="1"/>
        <pt x="266" y="487" on="1"/>
        <pt x="301" y="429" on="0"/>
        <pt x="301" y="360" on="1"/>
        <pt x="301" y="316" on="0"/>
        <pt x="283" y="281" on="1"/>
        <pt x="122" y="0" on="1"/>
        <pt x="19" y="0" on="1"/>
      </contour>
      <contour>
        <pt x="323" y="360" on="1"/>
        <pt x="323" y="429" on="0"/>
        <pt x="358" y="487" on="1"/>
        <pt x="504" y="732" on="1"/>
        <pt x="606" y="732" on="1"/>
        <pt x="445" y="457" on="1"/>
        <pt x="414" y="403" on="0"/>
        <pt x="414" y="373" on="1"/>
        <pt x="414" y="342" on="0"/>
        <pt x="435" y="305" on="1"/>
        <pt x="606" y="0" on="1"/>
        <pt x="503" y="0" on="1"/>
        <pt x="341" y="281" on="1"/>
        <pt x="323" y="316" on="0"/>
      </contour>
    </TTGlyph>
    <TTGlyph name="Y" xMin="42" yMin="0" xMax="614" yMax="732">
      <contour>
        <pt x="364" y="0" on="1"/>
        <pt x="272" y="0" on="1"/>
        <pt x="272" y="251" on="1"/>
        <pt x="42" y="732" on="1"/>
        <pt x="142" y="732" on="1"/>
        <pt x="319" y="357" on="1"/>
        <pt x="514" y="732" on="1"/>
        <pt x="614" y="732" on="1"/>
        <pt x="364" y="251" on="1"/>
      </contour>
    </TTGlyph>
    <TTGlyph name="Yacute" xMin="42" yMin="0" xMax="614" yMax="932">
      <contour>
        <pt x="290" y="797" on="1"/>
        <pt x="393" y="932" on="1"/>
        <pt x="496" y="932" on="1"/>
        <pt x="366" y="797" on="1"/>
      </contour>
      <contour>
        <pt x="364" y="0" on="1"/>
        <pt x="272" y="0" on="1"/>
        <pt x="272" y="251" on="1"/>
        <pt x="42" y="732" on="1"/>
        <pt x="142" y="732" on="1"/>
        <pt x="319" y="357" on="1"/>
        <pt x="514" y="732" on="1"/>
        <pt x="614" y="732" on="1"/>
        <pt x="364" y="251" on="1"/>
      </contour>
    </TTGlyph>
    <TTGlyph name="Ycircumflex" xMin="42" yMin="0" xMax="614" yMax="925">
      <contour>
        <pt x="171" y="793" on="1"/>
        <pt x="286" y="924" on="1"/>
        <pt x="366" y="924" on="1"/>
        <pt x="468" y="793" on="1"/>
        <pt x="391" y="793" on="1"/>
        <pt x="323" y="861" on="1"/>
        <pt x="249" y="793" on="1"/>
      </contour>
      <contour>
        <pt x="364" y="0" on="1"/>
        <pt x="272" y="0" on="1"/>
        <pt x="272" y="251" on="1"/>
        <pt x="42" y="732" on="1"/>
        <pt x="142" y="732" on="1"/>
        <pt x="319" y="357" on="1"/>
        <pt x="514" y="732" on="1"/>
        <pt x="614" y="732" on="1"/>
        <pt x="364" y="251" on="1"/>
      </contour>
    </TTGlyph>
    <TTGlyph name="Ydieresis" xMin="42" yMin="0" xMax="614" yMax="903">
      <contour>
        <pt x="148" y="828" on="0"/>
        <pt x="148" y="872" on="0"/>
        <pt x="179" y="902" on="0"/>
        <pt x="223" y="902" on="0"/>
        <pt x="253" y="872" on="0"/>
        <pt x="253" y="828" on="0"/>
        <pt x="223" y="797" on="0"/>
        <pt x="179" y="797" on="0"/>
      </contour>
      <contour>
        <pt x="403" y="828" on="0"/>
        <pt x="403" y="872" on="0"/>
        <pt x="434" y="902" on="0"/>
        <pt x="478" y="902" on="0"/>
        <pt x="508" y="872" on="0"/>
        <pt x="508" y="828" on="0"/>
        <pt x="478" y="797" on="0"/>
        <pt x="434" y="797" on="0"/>
      </contour>
      <contour>
        <pt x="364" y="0" on="1"/>
        <pt x="272" y="0" on="1"/>
        <pt x="272" y="251" on="1"/>
        <pt x="42" y="732" on="1"/>
        <pt x="142" y="732" on="1"/>
        <pt x="319" y="357" on="1"/>
        <pt x="514" y="732" on="1"/>
        <pt x="614" y="732" on="1"/>
        <pt x="364" y="251" on="1"/>
      </contour>
    </TTGlyph>
    <TTGlyph name="Ygrave" xMin="42" yMin="0" xMax="614" yMax="932">
      <contour>
        <pt x="160" y="932" on="1"/>
        <pt x="263" y="932" on="1"/>
        <pt x="366" y="797" on="1"/>
        <pt x="290" y="797" on="1"/>
      </contour>
      <contour>
        <pt x="364" y="0" on="1"/>
        <pt x="272" y="0" on="1"/>
        <pt x="272" y="251" on="1"/>
        <pt x="42" y="732" on="1"/>
        <pt x="142" y="732" on="1"/>
        <pt x="319" y="357" on="1"/>
        <pt x="514" y="732" on="1"/>
        <pt x="614" y="732" on="1"/>
        <pt x="364" y="251" on="1"/>
      </contour>
    </TTGlyph>
    <TTGlyph name="Z" xMin="32" yMin="0" xMax="529" yMax="732">
      <contour>
        <pt x="33" y="0" on="1"/>
        <pt x="33" y="89" on="1"/>
        <pt x="412" y="643" on="1"/>
        <pt x="33" y="643" on="1"/>
        <pt x="33" y="732" on="1"/>
        <pt x="529" y="732" on="1"/>
        <pt x="529" y="643" on="1"/>
        <pt x="154" y="89" on="1"/>
        <pt x="529" y="89" on="1"/>
        <pt x="529" y="0" on="1"/>
      </contour>
    </TTGlyph>
    <TTGlyph name="Zacute" xMin="32" yMin="0" xMax="529" yMax="932">
      <contour>
        <pt x="243" y="797" on="1"/>
        <pt x="346" y="932" on="1"/>
        <pt x="448" y="932" on="1"/>
        <pt x="318" y="797" on="1"/>
      </contour>
      <contour>
        <pt x="33" y="0" on="1"/>
        <pt x="33" y="89" on="1"/>
        <pt x="412" y="643" on="1"/>
        <pt x="33" y="643" on="1"/>
        <pt x="33" y="732" on="1"/>
        <pt x="529" y="732" on="1"/>
        <pt x="529" y="643" on="1"/>
        <pt x="154" y="89" on="1"/>
        <pt x="529" y="89" on="1"/>
        <pt x="529" y="0" on="1"/>
      </contour>
    </TTGlyph>
    <TTGlyph name="Zcaron" xMin="32" yMin="0" xMax="529" yMax="929">
      <contour>
        <pt x="132" y="928" on="1"/>
        <pt x="210" y="928" on="1"/>
        <pt x="286" y="860" on="1"/>
        <pt x="352" y="928" on="1"/>
        <pt x="429" y="928" on="1"/>
        <pt x="326" y="797" on="1"/>
        <pt x="246" y="797" on="1"/>
      </contour>
      <contour>
        <pt x="33" y="0" on="1"/>
        <pt x="33" y="89" on="1"/>
        <pt x="412" y="643" on="1"/>
        <pt x="33" y="643" on="1"/>
        <pt x="33" y="732" on="1"/>
        <pt x="529" y="732" on="1"/>
        <pt x="529" y="643" on="1"/>
        <pt x="154" y="89" on="1"/>
        <pt x="529" y="89" on="1"/>
        <pt x="529" y="0" on="1"/>
      </contour>
    </TTGlyph>
    <TTGlyph name="Zdotaccent" xMin="32" yMin="0" xMax="529" yMax="905">
      <contour>
        <pt x="229" y="820" on="1"/>
        <pt x="229" y="880" on="1"/>
        <pt x="229" y="905" on="0"/>
        <pt x="253" y="905" on="1"/>
        <pt x="309" y="905" on="1"/>
        <pt x="320" y="905" on="0"/>
        <pt x="332" y="891" on="0"/>
        <pt x="332" y="880" on="1"/>
        <pt x="332" y="820" on="1"/>
        <pt x="332" y="797" on="0"/>
        <pt x="309" y="797" on="1"/>
        <pt x="253" y="797" on="1"/>
        <pt x="243" y="797" on="0"/>
        <pt x="229" y="810" on="0"/>
      </contour>
      <contour>
        <pt x="33" y="0" on="1"/>
        <pt x="33" y="89" on="1"/>
        <pt x="412" y="643" on="1"/>
        <pt x="33" y="643" on="1"/>
        <pt x="33" y="732" on="1"/>
        <pt x="529" y="732" on="1"/>
        <pt x="529" y="643" on="1"/>
        <pt x="154" y="89" on="1"/>
        <pt x="529" y="89" on="1"/>
        <pt x="529" y="0" on="1"/>
      </contour>
    </TTGlyph>
    <TTGlyph name="a" xMin="37" yMin="-7" xMax="473" yMax="542">
      <contour>
        <pt x="54" y="509" on="1"/>
        <pt x="156" y="541" on="0"/>
        <pt x="312" y="541" on="1"/>
        <pt x="410" y="541" on="0"/>
        <pt x="450" y="475" on="1"/>
        <pt x="472" y="438" on="0"/>
        <pt x="472" y="382" on="1"/>
        <pt x="472" y="0" on="1"/>
        <pt x="402" y="0" on="1"/>
        <pt x="380" y="62" on="1"/>
        <pt x="377" y="59" on="0"/>
        <pt x="317" y="28" on="0"/>
        <pt x="215" y="-6" on="0"/>
        <pt x="176" y="-6" on="1"/>
        <pt x="114" y="-6" on="0"/>
        <pt x="37" y="68" on="0"/>
        <pt x="37" y="129" on="1"/>
        <pt x="37" y="187" on="1"/>
        <pt x="37" y="248" on="0"/>
        <pt x="110" y="323" on="0"/>
        <pt x="176" y="323" on="1"/>
        <pt x="278" y="323" on="0"/>
        <pt x="380" y="323" on="0"/>
        <pt x="380" y="323" on="1"/>
        <pt x="381" y="352" on="0"/>
        <pt x="381" y="381" on="0"/>
        <pt x="380" y="399" on="0"/>
        <pt x="373" y="425" on="0"/>
        <pt x="360" y="443" on="0"/>
        <pt x="350" y="448" on="1"/>
        <pt x="332" y="459" on="0"/>
        <pt x="301" y="458" on="1"/>
        <pt x="219" y="458" on="0"/>
        <pt x="54" y="447" on="1"/>
      </contour>
      <contour>
        <pt x="129" y="138" on="1"/>
        <pt x="129" y="78" on="0"/>
        <pt x="186" y="78" on="1"/>
        <pt x="219" y="78" on="0"/>
        <pt x="316" y="103" on="0"/>
        <pt x="348" y="115" on="1"/>
        <pt x="380" y="127" on="1"/>
        <pt x="380" y="257" on="1"/>
        <pt x="184" y="243" on="1"/>
        <pt x="129" y="238" on="0"/>
        <pt x="129" y="181" on="1"/>
      </contour>
    </TTGlyph>
    <TTGlyph name="a.salt" xMin="46" yMin="0" xMax="489" yMax="538">
      <contour>
        <pt x="47" y="134" on="1"/>
        <pt x="47" y="192" on="1"/>
        <pt x="47" y="232" on="0"/>
        <pt x="60" y="259" on="1"/>
        <pt x="88" y="318" on="0"/>
        <pt x="190" y="318" on="1"/>
        <pt x="397" y="318" on="1"/>
        <pt x="397" y="425" on="0"/>
        <pt x="355" y="444" on="1"/>
        <pt x="335" y="453" on="0"/>
        <pt x="314" y="453" on="1"/>
        <pt x="251" y="453" on="0"/>
        <pt x="58" y="441" on="1"/>
        <pt x="58" y="506" on="1"/>
        <pt x="65" y="507" on="0"/>
        <pt x="102" y="515" on="0"/>
        <pt x="118" y="518" on="0"/>
        <pt x="152" y="524" on="0"/>
        <pt x="172" y="527" on="0"/>
        <pt x="204" y="532" on="0"/>
        <pt x="217" y="533" on="1"/>
        <pt x="266" y="537" on="0"/>
        <pt x="286" y="537" on="1"/>
        <pt x="364" y="537" on="0"/>
        <pt x="433" y="508" on="0"/>
        <pt x="474" y="440" on="0"/>
        <pt x="489" y="341" on="0"/>
        <pt x="489" y="262" on="1"/>
        <pt x="489" y="159" on="1"/>
        <pt x="489" y="78" on="0"/>
        <pt x="413" y="0" on="0"/>
        <pt x="334" y="0" on="1"/>
        <pt x="190" y="0" on="1"/>
        <pt x="47" y="0" on="0"/>
      </contour>
      <contour>
        <pt x="139" y="137" on="1"/>
        <pt x="139" y="95" on="0"/>
        <pt x="166" y="87" on="1"/>
        <pt x="178" y="83" on="0"/>
        <pt x="197" y="83" on="1"/>
        <pt x="323" y="83" on="1"/>
        <pt x="369" y="83" on="0"/>
        <pt x="397" y="119" on="0"/>
        <pt x="397" y="158" on="1"/>
        <pt x="397" y="254" on="1"/>
        <pt x="197" y="239" on="1"/>
        <pt x="166" y="237" on="0"/>
        <pt x="139" y="216" on="0"/>
        <pt x="139" y="192" on="1"/>
      </contour>
    </TTGlyph>
    <TTGlyph name="a.smcp" xMin="32" yMin="0" xMax="563" yMax="570">
      <contour>
        <pt x="33" y="0" on="1"/>
        <pt x="257" y="570" on="1"/>
        <pt x="356" y="570" on="1"/>
        <pt x="563" y="0" on="1"/>
        <pt x="464" y="0" on="1"/>
        <pt x="409" y="142" on="1"/>
        <pt x="190" y="142" on="1"/>
        <pt x="132" y="0" on="1"/>
      </contour>
      <contour>
        <pt x="221" y="227" on="1"/>
        <pt x="383" y="227" on="1"/>
        <pt x="306" y="446" on="1"/>
      </contour>
    </TTGlyph>
    <TTGlyph name="a.superior" xMin="28" yMin="373" xMax="336" yMax="739">
      <contour>
        <pt x="29" y="464" on="1"/>
        <pt x="29" y="507" on="1"/>
        <pt x="29" y="548" on="0"/>
        <pt x="83" y="598" on="0"/>
        <pt x="132" y="598" on="1"/>
        <pt x="149" y="598" on="0"/>
        <pt x="261" y="598" on="0"/>
        <pt x="261" y="599" on="1"/>
        <pt x="262" y="625" on="0"/>
        <pt x="261" y="626" on="1"/>
        <pt x="261" y="652" on="0"/>
        <pt x="232" y="674" on="0"/>
        <pt x="150" y="674" on="0"/>
        <pt x="41" y="666" on="1"/>
        <pt x="41" y="715" on="1"/>
        <pt x="108" y="735" on="0"/>
        <pt x="213" y="739" on="1"/>
        <pt x="214" y="739" on="0"/>
        <pt x="216" y="739" on="1"/>
        <pt x="269" y="739" on="0"/>
        <pt x="336" y="688" on="0"/>
        <pt x="336" y="633" on="1"/>
        <pt x="336" y="378" on="1"/>
        <pt x="284" y="378" on="1"/>
        <pt x="262" y="426" on="1"/>
        <pt x="243" y="408" on="0"/>
        <pt x="157" y="374" on="0"/>
        <pt x="131" y="374" on="1"/>
        <pt x="87" y="374" on="0"/>
        <pt x="29" y="424" on="0"/>
      </contour>
      <contour>
        <pt x="102" y="478" on="1"/>
        <pt x="102" y="441" on="0"/>
        <pt x="143" y="441" on="1"/>
        <pt x="192" y="441" on="0"/>
        <pt x="244" y="466" on="1"/>
        <pt x="261" y="474" on="1"/>
        <pt x="261" y="552" on="1"/>
        <pt x="142" y="541" on="1"/>
        <pt x="102" y="537" on="0"/>
        <pt x="102" y="502" on="1"/>
      </contour>
    </TTGlyph>
    <TTGlyph name="aacute" xMin="37" yMin="-7" xMax="473" yMax="736">
      <contour>
        <pt x="225" y="601" on="1"/>
        <pt x="327" y="736" on="1"/>
        <pt x="430" y="736" on="1"/>
        <pt x="300" y="601" on="1"/>
      </contour>
      <contour>
        <pt x="54" y="510" on="1"/>
        <pt x="156" y="541" on="0"/>
        <pt x="312" y="541" on="1"/>
        <pt x="410" y="541" on="0"/>
        <pt x="450" y="475" on="1"/>
        <pt x="472" y="438" on="0"/>
        <pt x="472" y="382" on="1"/>
        <pt x="472" y="0" on="1"/>
        <pt x="402" y="0" on="1"/>
        <pt x="380" y="62" on="1"/>
        <pt x="377" y="59" on="0"/>
        <pt x="317" y="28" on="0"/>
        <pt x="215" y="-6" on="0"/>
        <pt x="176" y="-6" on="1"/>
        <pt x="114" y="-6" on="0"/>
        <pt x="37" y="68" on="0"/>
        <pt x="37" y="129" on="1"/>
        <pt x="37" y="187" on="1"/>
        <pt x="37" y="248" on="0"/>
        <pt x="110" y="323" on="0"/>
        <pt x="176" y="323" on="1"/>
        <pt x="278" y="323" on="0"/>
        <pt x="380" y="323" on="0"/>
        <pt x="380" y="323" on="1"/>
        <pt x="381" y="352" on="0"/>
        <pt x="381" y="381" on="0"/>
        <pt x="380" y="399" on="0"/>
        <pt x="373" y="425" on="0"/>
        <pt x="360" y="443" on="0"/>
        <pt x="350" y="448" on="1"/>
        <pt x="332" y="459" on="0"/>
        <pt x="301" y="458" on="1"/>
        <pt x="219" y="458" on="0"/>
        <pt x="54" y="447" on="1"/>
      </contour>
      <contour>
        <pt x="129" y="138" on="1"/>
        <pt x="129" y="78" on="0"/>
        <pt x="186" y="78" on="1"/>
        <pt x="219" y="78" on="0"/>
        <pt x="316" y="103" on="0"/>
        <pt x="348" y="115" on="1"/>
        <pt x="380" y="127" on="1"/>
        <pt x="380" y="257" on="1"/>
        <pt x="184" y="243" on="1"/>
        <pt x="129" y="238" on="0"/>
        <pt x="129" y="181" on="1"/>
      </contour>
    </TTGlyph>
    <TTGlyph name="aacute.salt" xMin="46" yMin="0" xMax="489" yMax="732">
      <contour>
        <pt x="230" y="597" on="1"/>
        <pt x="333" y="732" on="1"/>
        <pt x="435" y="732" on="1"/>
        <pt x="305" y="597" on="1"/>
      </contour>
      <contour>
        <pt x="47" y="134" on="1"/>
        <pt x="47" y="192" on="1"/>
        <pt x="47" y="232" on="0"/>
        <pt x="60" y="259" on="1"/>
        <pt x="88" y="318" on="0"/>
        <pt x="190" y="318" on="1"/>
        <pt x="397" y="318" on="1"/>
        <pt x="397" y="425" on="0"/>
        <pt x="355" y="444" on="1"/>
        <pt x="335" y="453" on="0"/>
        <pt x="314" y="453" on="1"/>
        <pt x="251" y="453" on="0"/>
        <pt x="58" y="441" on="1"/>
        <pt x="58" y="506" on="1"/>
        <pt x="63" y="507" on="0"/>
        <pt x="110" y="516" on="0"/>
        <pt x="124" y="519" on="0"/>
        <pt x="166" y="526" on="0"/>
        <pt x="186" y="529" on="0"/>
        <pt x="205" y="531" on="1"/>
        <pt x="249" y="537" on="0"/>
        <pt x="306" y="537" on="0"/>
        <pt x="310" y="537" on="1"/>
        <pt x="364" y="537" on="0"/>
        <pt x="433" y="508" on="0"/>
        <pt x="474" y="440" on="0"/>
        <pt x="489" y="341" on="0"/>
        <pt x="489" y="262" on="1"/>
        <pt x="489" y="159" on="1"/>
        <pt x="489" y="78" on="0"/>
        <pt x="413" y="0" on="0"/>
        <pt x="334" y="0" on="1"/>
        <pt x="190" y="0" on="1"/>
        <pt x="47" y="0" on="0"/>
      </contour>
      <contour>
        <pt x="139" y="137" on="1"/>
        <pt x="139" y="110" on="0"/>
        <pt x="161" y="83" on="0"/>
        <pt x="197" y="83" on="1"/>
        <pt x="323" y="83" on="1"/>
        <pt x="369" y="83" on="0"/>
        <pt x="397" y="119" on="0"/>
        <pt x="397" y="158" on="1"/>
        <pt x="397" y="254" on="1"/>
        <pt x="197" y="240" on="1"/>
        <pt x="151" y="236" on="0"/>
        <pt x="142" y="212" on="1"/>
        <pt x="139" y="204" on="0"/>
        <pt x="139" y="192" on="1"/>
      </contour>
    </TTGlyph>
    <TTGlyph name="aacute.smcp" xMin="32" yMin="0" xMax="563" yMax="765">
      <contour>
        <pt x="269" y="630" on="1"/>
        <pt x="372" y="764" on="1"/>
        <pt x="474" y="764" on="1"/>
        <pt x="344" y="630" on="1"/>
      </contour>
      <contour>
        <pt x="33" y="0" on="1"/>
        <pt x="257" y="570" on="1"/>
        <pt x="356" y="570" on="1"/>
        <pt x="563" y="0" on="1"/>
        <pt x="464" y="0" on="1"/>
        <pt x="409" y="142" on="1"/>
        <pt x="190" y="142" on="1"/>
        <pt x="132" y="0" on="1"/>
      </contour>
      <contour>
        <pt x="221" y="227" on="1"/>
        <pt x="383" y="227" on="1"/>
        <pt x="306" y="446" on="1"/>
      </contour>
    </TTGlyph>
    <TTGlyph name="abreve" xMin="37" yMin="-7" xMax="473" yMax="715">
      <contour>
        <pt x="157" y="715" on="1"/>
        <pt x="207" y="715" on="1"/>
        <pt x="207" y="688" on="0"/>
        <pt x="246" y="651" on="0"/>
        <pt x="300" y="651" on="0"/>
        <pt x="337" y="686" on="0"/>
        <pt x="337" y="715" on="1"/>
        <pt x="387" y="715" on="1"/>
        <pt x="387" y="662" on="0"/>
        <pt x="318" y="601" on="0"/>
        <pt x="226" y="601" on="0"/>
        <pt x="157" y="664" on="0"/>
      </contour>
      <contour>
        <pt x="54" y="510" on="1"/>
        <pt x="156" y="541" on="0"/>
        <pt x="312" y="541" on="1"/>
        <pt x="410" y="541" on="0"/>
        <pt x="450" y="475" on="1"/>
        <pt x="472" y="438" on="0"/>
        <pt x="472" y="382" on="1"/>
        <pt x="472" y="0" on="1"/>
        <pt x="402" y="0" on="1"/>
        <pt x="380" y="62" on="1"/>
        <pt x="377" y="59" on="0"/>
        <pt x="317" y="28" on="0"/>
        <pt x="215" y="-6" on="0"/>
        <pt x="176" y="-6" on="1"/>
        <pt x="114" y="-6" on="0"/>
        <pt x="37" y="68" on="0"/>
        <pt x="37" y="129" on="1"/>
        <pt x="37" y="187" on="1"/>
        <pt x="37" y="248" on="0"/>
        <pt x="110" y="323" on="0"/>
        <pt x="176" y="323" on="1"/>
        <pt x="278" y="323" on="0"/>
        <pt x="380" y="323" on="0"/>
        <pt x="380" y="323" on="1"/>
        <pt x="381" y="352" on="0"/>
        <pt x="381" y="381" on="0"/>
        <pt x="380" y="399" on="0"/>
        <pt x="373" y="425" on="0"/>
        <pt x="360" y="443" on="0"/>
        <pt x="350" y="448" on="1"/>
        <pt x="332" y="459" on="0"/>
        <pt x="301" y="458" on="1"/>
        <pt x="219" y="458" on="0"/>
        <pt x="54" y="447" on="1"/>
      </contour>
      <contour>
        <pt x="129" y="138" on="1"/>
        <pt x="129" y="78" on="0"/>
        <pt x="186" y="78" on="1"/>
        <pt x="219" y="78" on="0"/>
        <pt x="316" y="103" on="0"/>
        <pt x="348" y="115" on="1"/>
        <pt x="380" y="127" on="1"/>
        <pt x="380" y="257" on="1"/>
        <pt x="184" y="243" on="1"/>
        <pt x="129" y="238" on="0"/>
        <pt x="129" y="181" on="1"/>
      </contour>
    </TTGlyph>
    <TTGlyph name="abreve.salt" xMin="46" yMin="0" xMax="489" yMax="712">
      <contour>
        <pt x="156" y="711" on="1"/>
        <pt x="206" y="711" on="1"/>
        <pt x="206" y="673" on="0"/>
        <pt x="239" y="655" on="1"/>
        <pt x="254" y="647" on="0"/>
        <pt x="289" y="647" on="0"/>
        <pt x="304" y="655" on="1"/>
        <pt x="336" y="671" on="0"/>
        <pt x="336" y="711" on="1"/>
        <pt x="386" y="711" on="1"/>
        <pt x="386" y="658" on="0"/>
        <pt x="317" y="597" on="0"/>
        <pt x="225" y="597" on="0"/>
        <pt x="156" y="660" on="0"/>
      </contour>
      <contour>
        <pt x="47" y="134" on="1"/>
        <pt x="47" y="192" on="1"/>
        <pt x="47" y="232" on="0"/>
        <pt x="60" y="259" on="1"/>
        <pt x="88" y="318" on="0"/>
        <pt x="190" y="318" on="1"/>
        <pt x="397" y="318" on="1"/>
        <pt x="397" y="425" on="0"/>
        <pt x="355" y="444" on="1"/>
        <pt x="335" y="453" on="0"/>
        <pt x="314" y="453" on="1"/>
        <pt x="251" y="453" on="0"/>
        <pt x="58" y="441" on="1"/>
        <pt x="58" y="506" on="1"/>
        <pt x="63" y="507" on="0"/>
        <pt x="110" y="516" on="0"/>
        <pt x="124" y="519" on="0"/>
        <pt x="166" y="526" on="0"/>
        <pt x="186" y="529" on="0"/>
        <pt x="205" y="531" on="1"/>
        <pt x="249" y="537" on="0"/>
        <pt x="306" y="537" on="0"/>
        <pt x="310" y="537" on="1"/>
        <pt x="364" y="537" on="0"/>
        <pt x="433" y="508" on="0"/>
        <pt x="474" y="440" on="0"/>
        <pt x="489" y="341" on="0"/>
        <pt x="489" y="262" on="1"/>
        <pt x="489" y="159" on="1"/>
        <pt x="489" y="78" on="0"/>
        <pt x="413" y="0" on="0"/>
        <pt x="334" y="0" on="1"/>
        <pt x="190" y="0" on="1"/>
        <pt x="47" y="0" on="0"/>
      </contour>
      <contour>
        <pt x="139" y="137" on="1"/>
        <pt x="139" y="110" on="0"/>
        <pt x="161" y="83" on="0"/>
        <pt x="197" y="83" on="1"/>
        <pt x="323" y="83" on="1"/>
        <pt x="369" y="83" on="0"/>
        <pt x="397" y="119" on="0"/>
        <pt x="397" y="158" on="1"/>
        <pt x="397" y="254" on="1"/>
        <pt x="197" y="240" on="1"/>
        <pt x="151" y="236" on="0"/>
        <pt x="142" y="212" on="1"/>
        <pt x="139" y="204" on="0"/>
        <pt x="139" y="192" on="1"/>
      </contour>
    </TTGlyph>
    <TTGlyph name="abreve.smcp" xMin="32" yMin="0" xMax="563" yMax="744">
      <contour>
        <pt x="192" y="744" on="1"/>
        <pt x="242" y="744" on="1"/>
        <pt x="242" y="717" on="0"/>
        <pt x="280" y="680" on="0"/>
        <pt x="335" y="680" on="0"/>
        <pt x="372" y="715" on="0"/>
        <pt x="372" y="744" on="1"/>
        <pt x="422" y="744" on="1"/>
        <pt x="422" y="691" on="0"/>
        <pt x="352" y="630" on="0"/>
        <pt x="260" y="630" on="0"/>
        <pt x="192" y="693" on="0"/>
      </contour>
      <contour>
        <pt x="33" y="0" on="1"/>
        <pt x="257" y="570" on="1"/>
        <pt x="356" y="570" on="1"/>
        <pt x="563" y="0" on="1"/>
        <pt x="464" y="0" on="1"/>
        <pt x="409" y="142" on="1"/>
        <pt x="190" y="142" on="1"/>
        <pt x="132" y="0" on="1"/>
      </contour>
      <contour>
        <pt x="221" y="227" on="1"/>
        <pt x="383" y="227" on="1"/>
        <pt x="306" y="446" on="1"/>
      </contour>
    </TTGlyph>
    <TTGlyph name="acircumflex" xMin="37" yMin="-7" xMax="473" yMax="733">
      <contour>
        <pt x="116" y="601" on="1"/>
        <pt x="230" y="732" on="1"/>
        <pt x="310" y="732" on="1"/>
        <pt x="412" y="601" on="1"/>
        <pt x="335" y="601" on="1"/>
        <pt x="267" y="669" on="1"/>
        <pt x="194" y="601" on="1"/>
      </contour>
      <contour>
        <pt x="54" y="510" on="1"/>
        <pt x="156" y="541" on="0"/>
        <pt x="312" y="541" on="1"/>
        <pt x="410" y="541" on="0"/>
        <pt x="450" y="475" on="1"/>
        <pt x="472" y="438" on="0"/>
        <pt x="472" y="382" on="1"/>
        <pt x="472" y="0" on="1"/>
        <pt x="402" y="0" on="1"/>
        <pt x="380" y="62" on="1"/>
        <pt x="377" y="59" on="0"/>
        <pt x="317" y="28" on="0"/>
        <pt x="215" y="-6" on="0"/>
        <pt x="176" y="-6" on="1"/>
        <pt x="114" y="-6" on="0"/>
        <pt x="37" y="68" on="0"/>
        <pt x="37" y="129" on="1"/>
        <pt x="37" y="187" on="1"/>
        <pt x="37" y="248" on="0"/>
        <pt x="110" y="323" on="0"/>
        <pt x="176" y="323" on="1"/>
        <pt x="278" y="323" on="0"/>
        <pt x="380" y="323" on="0"/>
        <pt x="380" y="323" on="1"/>
        <pt x="381" y="352" on="0"/>
        <pt x="381" y="381" on="0"/>
        <pt x="380" y="399" on="0"/>
        <pt x="373" y="425" on="0"/>
        <pt x="360" y="443" on="0"/>
        <pt x="350" y="448" on="1"/>
        <pt x="332" y="459" on="0"/>
        <pt x="301" y="458" on="1"/>
        <pt x="219" y="458" on="0"/>
        <pt x="54" y="447" on="1"/>
      </contour>
      <contour>
        <pt x="129" y="138" on="1"/>
        <pt x="129" y="78" on="0"/>
        <pt x="186" y="78" on="1"/>
        <pt x="219" y="78" on="0"/>
        <pt x="316" y="103" on="0"/>
        <pt x="348" y="115" on="1"/>
        <pt x="380" y="127" on="1"/>
        <pt x="380" y="257" on="1"/>
        <pt x="184" y="243" on="1"/>
        <pt x="129" y="238" on="0"/>
        <pt x="129" y="181" on="1"/>
      </contour>
    </TTGlyph>
    <TTGlyph name="acircumflex.salt" xMin="46" yMin="0" xMax="489" yMax="729">
      <contour>
        <pt x="120" y="597" on="1"/>
        <pt x="235" y="729" on="1"/>
        <pt x="315" y="729" on="1"/>
        <pt x="417" y="597" on="1"/>
        <pt x="340" y="597" on="1"/>
        <pt x="272" y="665" on="1"/>
        <pt x="198" y="597" on="1"/>
      </contour>
      <contour>
        <pt x="47" y="134" on="1"/>
        <pt x="47" y="192" on="1"/>
        <pt x="47" y="232" on="0"/>
        <pt x="60" y="259" on="1"/>
        <pt x="88" y="318" on="0"/>
        <pt x="190" y="318" on="1"/>
        <pt x="397" y="318" on="1"/>
        <pt x="397" y="425" on="0"/>
        <pt x="355" y="444" on="1"/>
        <pt x="335" y="453" on="0"/>
        <pt x="314" y="453" on="1"/>
        <pt x="251" y="453" on="0"/>
        <pt x="58" y="441" on="1"/>
        <pt x="58" y="506" on="1"/>
        <pt x="63" y="507" on="0"/>
        <pt x="110" y="516" on="0"/>
        <pt x="124" y="519" on="0"/>
        <pt x="166" y="526" on="0"/>
        <pt x="186" y="529" on="0"/>
        <pt x="205" y="531" on="1"/>
        <pt x="249" y="537" on="0"/>
        <pt x="306" y="537" on="0"/>
        <pt x="310" y="537" on="1"/>
        <pt x="364" y="537" on="0"/>
        <pt x="433" y="508" on="0"/>
        <pt x="474" y="440" on="0"/>
        <pt x="489" y="341" on="0"/>
        <pt x="489" y="262" on="1"/>
        <pt x="489" y="159" on="1"/>
        <pt x="489" y="78" on="0"/>
        <pt x="413" y="0" on="0"/>
        <pt x="334" y="0" on="1"/>
        <pt x="190" y="0" on="1"/>
        <pt x="47" y="0" on="0"/>
      </contour>
      <contour>
        <pt x="139" y="137" on="1"/>
        <pt x="139" y="110" on="0"/>
        <pt x="161" y="83" on="0"/>
        <pt x="197" y="83" on="1"/>
        <pt x="323" y="83" on="1"/>
        <pt x="369" y="83" on="0"/>
        <pt x="397" y="119" on="0"/>
        <pt x="397" y="158" on="1"/>
        <pt x="397" y="254" on="1"/>
        <pt x="197" y="240" on="1"/>
        <pt x="151" y="236" on="0"/>
        <pt x="142" y="212" on="1"/>
        <pt x="139" y="204" on="0"/>
        <pt x="139" y="192" on="1"/>
      </contour>
    </TTGlyph>
    <TTGlyph name="acircumflex.smcp" xMin="32" yMin="0" xMax="563" yMax="762">
      <contour>
        <pt x="158" y="630" on="1"/>
        <pt x="273" y="762" on="1"/>
        <pt x="353" y="762" on="1"/>
        <pt x="455" y="630" on="1"/>
        <pt x="378" y="630" on="1"/>
        <pt x="310" y="698" on="1"/>
        <pt x="236" y="630" on="1"/>
      </contour>
      <contour>
        <pt x="33" y="0" on="1"/>
        <pt x="257" y="570" on="1"/>
        <pt x="356" y="570" on="1"/>
        <pt x="563" y="0" on="1"/>
        <pt x="464" y="0" on="1"/>
        <pt x="409" y="142" on="1"/>
        <pt x="190" y="142" on="1"/>
        <pt x="132" y="0" on="1"/>
      </contour>
      <contour>
        <pt x="221" y="227" on="1"/>
        <pt x="383" y="227" on="1"/>
        <pt x="306" y="446" on="1"/>
      </contour>
    </TTGlyph>
    <TTGlyph name="acute" xMin="18" yMin="531" xMax="224" yMax="666">
      <contour>
        <pt x="19" y="531" on="1"/>
        <pt x="121" y="666" on="1"/>
        <pt x="224" y="666" on="1"/>
        <pt x="94" y="531" on="1"/>
      </contour>
    </TTGlyph>
</ttFont>
